SplineFontDB: 3.0
FontName: ElaineSans-LightItalic
FullName: Elaine Sans Light Italic
FamilyName: Elaine Sans Light
Weight: Light
Copyright: Copyright (c) 2015 by Wei Huang. All rights reserved.
Version: 1.030;PS 001.030;hotconv 1.0.70;makeotf.lib2.5.58329
ItalicAngle: -13
UnderlinePosition: -250
UnderlineWidth: 50
Ascent: 760
Descent: 240
InvalidEm: 0
sfntRevision: 0x000107ae
LayerCount: 2
Layer: 0 1 "Back" 1
Layer: 1 1 "Fore" 0
XUID: [1021 288 1899785369 24329]
StyleMap: 0x0001
FSType: 4
OS2Version: 3
OS2_WeightWidthSlopeOnly: 0
OS2_UseTypoMetrics: 0
CreationTime: 1436215488
ModificationTime: 1543787545
PfmFamily: 81
TTFWeight: 300
TTFWidth: 5
LineGap: 0
VLineGap: 0
Panose: 0 0 4 0 0 0 0 0 0 0
OS2TypoAscent: 760
OS2TypoAOffset: 0
OS2TypoDescent: -240
OS2TypoDOffset: 0
OS2TypoLinegap: 173
OS2WinAscent: 930
OS2WinAOffset: 0
OS2WinDescent: 243
OS2WinDOffset: 0
HheadAscent: 930
HheadAOffset: 0
HheadDescent: -243
HheadDOffset: 0
OS2SubXSize: 650
OS2SubYSize: 600
OS2SubXOff: 0
OS2SubYOff: 75
OS2SupXSize: 650
OS2SupYSize: 600
OS2SupXOff: 0
OS2SupYOff: 350
OS2StrikeYSize: 50
OS2StrikeYPos: 300
OS2CapHeight: 660
OS2XHeight: 500
OS2Vendor: 'UKWN'
OS2CodePages: 20000093.00000000
OS2UnicodeRanges: 00000007.00000001.00000000.00000000
Lookup: 1 0 0 "'aalt' Access All Alternates lookup 0" { "'aalt' Access All Alternates lookup 0 subtable"  } ['aalt' ('DFLT' <'dflt' > 'grek' <'dflt' > 'latn' <'CAT ' 'MOL ' 'NLD ' 'ROM ' 'TRK ' 'dflt' > ) ]
Lookup: 3 0 0 "'aalt' Access All Alternates lookup 1" { "'aalt' Access All Alternates lookup 1 subtable"  } ['aalt' ('DFLT' <'dflt' > 'grek' <'dflt' > 'latn' <'CAT ' 'MOL ' 'NLD ' 'ROM ' 'TRK ' 'dflt' > ) ]
Lookup: 1 0 0 "'locl' Localized Forms in Latin lookup 2" { "'locl' Localized Forms in Latin lookup 2 subtable"  } ['locl' ('latn' <'TRK ' > ) ]
Lookup: 1 0 0 "'locl' Localized Forms in Latin lookup 3" { "'locl' Localized Forms in Latin lookup 3 subtable"  } ['locl' ('latn' <'TAT ' > ) ]

StartChar: .notdef
Encoding: 65536 -1 0
Width: 500
Flags: W
LayerCount: 2
Fore
SplineSet
-14 0 m 1,0,-1
 138.373046875 660 l 1,1,-1
 538.373046875 660 l 1,2,-1
 386 0 l 1,3,-1
 -14 0 l 1,0,-1
84.4697265625 80 m 1,4,-1
 324.469726562 80 l 1,5,-1
 439.903320312 580 l 1,6,-1
 199.903320312 580 l 1,7,-1
 84.4697265625 80 l 1,4,-1
EndSplineSet
EndChar

StartChar: exclam
Encoding: 33 33 4
Width: 240
GlyphClass: 2
Flags: W
LayerCount: 2
Fore
SplineSet
238.373046875 660 m 1,0,-1
 166.341796875 348 l 1,1,-1
 122.788085938 194 l 1,2,-1
 78.7880859375 194 l 1,3,-1
 106.341796875 348 l 1,4,-1
 178.373046875 660 l 1,5,-1
 238.373046875 660 l 1,0,-1
77.0087890625 91 m 128,-1,7
 99.0087890625 91 99.0087890625 91 109.276367188 77 c 128,-1,8
 119.544921875 63 119.544921875 63 114.465820312 41 c 128,-1,9
 109.38671875 19 109.38671875 19 92.76953125 5.5 c 128,-1,10
 76.1533203125 -8 76.1533203125 -8 54.1533203125 -8 c 128,-1,11
 32.1533203125 -8 32.1533203125 -8 21.26953125 5.5 c 128,-1,12
 10.38671875 19 10.38671875 19 15.4658203125 41 c 0,13,14
 20.775390625 64 20.775390625 64 37.892578125 77.5 c 128,-1,6
 55.0087890625 91 55.0087890625 91 77.0087890625 91 c 128,-1,7
EndSplineSet
Substitution2: "'smcp' Lowercase to Small Capitals lookup 12 subtable" exclam.sc
Substitution2: "'c2sc' Capitals to Small Capitals lookup 11 subtable" exclam.sc
Substitution2: "'aalt' Access All Alternates lookup 0 subtable" exclam.sc
EndChar

StartChar: quotedbl
Encoding: 34 34 5
Width: 345
GlyphClass: 2
Flags: W
LayerCount: 2
Fore
SplineSet
233.375976562 686 m 1,0,-1
 166.739257812 471 l 1,1,-1
 120.739257812 471 l 1,2,-1
 170.375976562 686 l 1,3,-1
 233.375976562 686 l 1,0,-1
374.375976562 686 m 1,4,-1
 307.739257812 471 l 1,5,-1
 262.739257812 471 l 1,6,-1
 312.375976562 686 l 1,7,-1
 374.375976562 686 l 1,4,-1
EndSplineSet
Substitution2: "'smcp' Lowercase to Small Capitals lookup 12 subtable" quotedbl.sc
Substitution2: "'c2sc' Capitals to Small Capitals lookup 11 subtable" quotedbl.sc
Substitution2: "'aalt' Access All Alternates lookup 0 subtable" quotedbl.sc
EndChar

StartChar: numbersign
Encoding: 35 35 6
Width: 604
GlyphClass: 2
Flags: W
LayerCount: 2
Fore
SplineSet
612.349609375 426 m 1,0,-1
 487.349609375 426 l 1,1,-1
 416.408203125 240 l 1,2,-1
 526.408203125 240 l 1,3,-1
 516.25 196 l 1,4,-1
 399.25 196 l 1,5,-1
 324 0 l 1,6,-1
 274 0 l 1,7,-1
 348.25 196 l 1,8,-1
 183.25 196 l 1,9,-1
 108 0 l 1,10,-1
 57 0 l 1,11,-1
 132.25 196 l 1,12,-1
 7.25 196 l 1,13,-1
 17.408203125 240 l 1,14,-1
 149.408203125 240 l 1,15,-1
 220.349609375 426 l 1,16,-1
 103.349609375 426 l 1,17,-1
 113.5078125 470 l 1,18,-1
 236.5078125 470 l 1,19,-1
 309.373046875 660 l 1,20,-1
 359.373046875 660 l 1,21,-1
 287.5078125 470 l 1,22,-1
 453.5078125 470 l 1,23,-1
 525.373046875 660 l 1,24,-1
 576.373046875 660 l 1,25,-1
 503.5078125 470 l 1,26,-1
 622.5078125 470 l 1,27,-1
 612.349609375 426 l 1,0,-1
365.408203125 240 m 1,28,-1
 436.349609375 426 l 1,29,-1
 270.349609375 426 l 1,30,-1
 199.408203125 240 l 1,31,-1
 365.408203125 240 l 1,28,-1
EndSplineSet
Substitution2: "'tnum' Tabular Numbers lookup 26 subtable" numbersign.tf
Substitution2: "'aalt' Access All Alternates lookup 0 subtable" numbersign.tf
EndChar

StartChar: dollar
Encoding: 36 36 7
Width: 604
GlyphClass: 2
Flags: W
LayerCount: 2
Fore
SplineSet
524.86328125 177 m 0,0,1
 507.086914062 100 507.086914062 100 439.120117188 52.5 c 128,-1,2
 371.154296875 5 371.154296875 5 275 0 c 1,3,-1
 251.913085938 -100 l 1,4,-1
 201.913085938 -100 l 1,5,-1
 225.23046875 1 l 1,6,7
 140.846679688 8 140.846679688 8 92.3896484375 51.5 c 128,-1,8
 43.9326171875 95 43.9326171875 95 38.478515625 171 c 1,9,-1
 97.7119140625 198 l 1,10,11
 95.62890625 137 95.62890625 137 134.39453125 97 c 128,-1,12
 173.159179688 57 173.159179688 57 236.3125 49 c 1,13,-1
 296.107421875 308 l 1,14,15
 250.416015625 318 250.416015625 318 224.109375 327.5 c 128,-1,16
 197.802734375 337 197.802734375 337 168.458007812 355 c 128,-1,17
 139.114257812 373 139.114257812 373 130.040039062 403 c 128,-1,18
 120.965820312 433 120.965820312 433 130.662109375 475 c 0,19,20
 147.747070312 549 147.747070312 549 214.751953125 601 c 128,-1,21
 281.756835938 653 281.756835938 653 377.142578125 659 c 1,22,-1
 400.459960938 760 l 1,23,-1
 450.459960938 760 l 1,24,-1
 427.142578125 659 l 1,25,26
 502.98828125 654 502.98828125 654 544.022460938 619.5 c 128,-1,27
 585.057617188 585 585.057617188 585 599.358398438 517 c 1,28,-1
 545.047851562 481 l 1,29,30
 536.592773438 544 536.592773438 544 506.249023438 575 c 128,-1,31
 475.90625 606 475.90625 606 415.830078125 610 c 1,32,-1
 355.111328125 347 l 1,33,34
 392.264648438 339 392.264648438 339 414.263671875 332.5 c 128,-1,35
 436.262695312 326 436.262695312 326 464.146484375 312.5 c 128,-1,36
 492.029296875 299 492.029296875 299 506.220703125 282.5 c 128,-1,37
 520.411132812 266 520.411132812 266 526.677734375 239 c 128,-1,38
 532.944335938 212 532.944335938 212 524.86328125 177 c 0,0,1
185.5859375 479 m 0,39,40
 173.349609375 426 173.349609375 426 205.84765625 400 c 128,-1,41
 238.344726562 374 238.344726562 374 307.650390625 358 c 1,42,-1
 366.060546875 611 l 1,43,44
 292.90625 606 292.90625 606 245.709960938 570.5 c 128,-1,45
 198.514648438 535 198.514648438 535 185.5859375 479 c 0,39,40
286.08203125 48 m 1,46,47
 357.774414062 51 357.774414062 51 407.162109375 83 c 128,-1,48
 456.549804688 115 456.549804688 115 469.940429688 173 c 0,49,50
 476.635742188 202 476.635742188 202 470.098632812 223.5 c 128,-1,51
 463.5625 245 463.5625 245 442.794921875 259 c 128,-1,52
 422.02734375 273 422.02734375 273 399.874023438 281 c 128,-1,53
 377.720703125 289 377.720703125 289 343.567382812 297 c 1,54,-1
 286.08203125 48 l 1,46,47
EndSplineSet
Substitution2: "'tnum' Tabular Numbers lookup 26 subtable" dollar.tf
Substitution2: "'aalt' Access All Alternates lookup 0 subtable" dollar.tf
EndChar

StartChar: percent
Encoding: 37 37 8
Width: 820
GlyphClass: 2
Flags: W
LayerCount: 2
Fore
SplineSet
280.7578125 666 m 0,0,1
 352.7578125 666 352.7578125 666 381.330078125 616.5 c 128,-1,2
 409.90234375 567 409.90234375 567 391.89453125 489 c 128,-1,3
 373.88671875 411 373.88671875 411 322.689453125 362.5 c 128,-1,4
 271.4921875 314 271.4921875 314 199.4921875 314 c 0,5,6
 128.4921875 314 128.4921875 314 99.689453125 362.5 c 128,-1,7
 70.88671875 411 70.88671875 411 88.89453125 489 c 128,-1,8
 106.90234375 567 106.90234375 567 158.330078125 616.5 c 128,-1,9
 209.7578125 666 209.7578125 666 280.7578125 666 c 0,0,1
103 0 m 1,10,-1
 685.373046875 660 l 1,11,-1
 740.373046875 660 l 1,12,-1
 159 0 l 1,13,-1
 103 0 l 1,10,-1
270.369140625 621 m 128,-1,15
 221.369140625 621 221.369140625 621 187.557617188 585 c 128,-1,16
 153.747070312 549 153.747070312 549 139.89453125 489 c 0,17,18
 126.2734375 430 126.2734375 430 143.577148438 394.5 c 128,-1,19
 160.881835938 359 160.881835938 359 209.881835938 359 c 128,-1,20
 258.881835938 359 258.881835938 359 293.077148438 394.5 c 128,-1,21
 327.2734375 430 327.2734375 430 340.89453125 489 c 0,22,23
 354.747070312 549 354.747070312 549 337.057617188 585 c 128,-1,14
 319.369140625 621 319.369140625 621 270.369140625 621 c 128,-1,15
644.880859375 346 m 0,24,25
 715.880859375 346 715.880859375 346 744.567382812 297 c 128,-1,26
 773.254882812 248 773.254882812 248 755.248046875 170 c 128,-1,27
 737.240234375 92 737.240234375 92 685.927734375 43 c 128,-1,28
 634.615234375 -6 634.615234375 -6 563.615234375 -6 c 0,29,30
 491.615234375 -6 491.615234375 -6 462.427734375 43 c 128,-1,31
 433.240234375 92 433.240234375 92 451.248046875 170 c 128,-1,32
 469.254882812 248 469.254882812 248 521.067382812 297 c 128,-1,33
 572.880859375 346 572.880859375 346 644.880859375 346 c 0,24,25
634.491210938 301 m 128,-1,35
 585.491210938 301 585.491210938 301 551.295898438 265.5 c 128,-1,36
 517.099609375 230 517.099609375 230 503.248046875 170 c 128,-1,37
 489.395507812 110 489.395507812 110 507.19921875 74.5 c 128,-1,38
 525.00390625 39 525.00390625 39 574.00390625 39 c 128,-1,39
 623.00390625 39 623.00390625 39 656.69921875 74.5 c 128,-1,40
 690.395507812 110 690.395507812 110 704.248046875 170 c 128,-1,41
 718.099609375 230 718.099609375 230 700.795898438 265.5 c 128,-1,34
 683.491210938 301 683.491210938 301 634.491210938 301 c 128,-1,35
EndSplineSet
EndChar

StartChar: ampersand
Encoding: 38 38 9
Width: 605
GlyphClass: 2
Flags: W
LayerCount: 2
Fore
SplineSet
439.395507812 110 m 1,0,1
 469.775390625 64 469.775390625 64 494.697265625 48.5 c 128,-1,2
 519.618164062 33 519.618164062 33 553.618164062 33 c 1,3,-1
 530.69140625 -10 l 1,4,5
 492.69140625 -10 492.69140625 -10 464.116210938 7 c 128,-1,6
 435.541015625 24 435.541015625 24 400.853515625 73 c 1,7,8
 305.69140625 -10 305.69140625 -10 182.69140625 -10 c 0,9,10
 93.69140625 -10 93.69140625 -10 47.6962890625 35.5 c 128,-1,11
 1.7001953125 81 1.7001953125 81 18.3232421875 153 c 0,12,13
 33.3291015625 218 33.3291015625 218 83.4111328125 266 c 128,-1,14
 133.4921875 314 133.4921875 314 231.57421875 362 c 1,15,16
 198.426757812 422 198.426757812 422 189.276367188 456 c 128,-1,17
 180.125 490 180.125 490 188.66796875 527 c 0,18,19
 202.2890625 586 202.2890625 586 252.370117188 627.5 c 128,-1,20
 302.451171875 669 302.451171875 669 371.451171875 669 c 0,21,22
 434.451171875 669 434.451171875 669 468.716796875 635.5 c 128,-1,23
 502.982421875 602 502.982421875 602 488.4375 539 c 0,24,25
 475.278320312 482 475.278320312 482 435.966796875 439.5 c 128,-1,26
 396.654296875 397 396.654296875 397 302.573242188 349 c 1,27,28
 319.185546875 317 319.185546875 317 350.487304688 262 c 0,29,30
 384.942382812 199 384.942382812 199 416.70703125 146 c 1,31,32
 490.561523438 232 490.561523438 232 514.881835938 359 c 1,33,-1
 559.727539062 354 l 1,34,35
 534.40625 214 534.40625 214 439.395507812 110 c 1,0,1
359.138671875 620 m 0,36,37
 315.138671875 620 315.138671875 620 283.635742188 594 c 128,-1,38
 252.1328125 568 252.1328125 568 242.8984375 528 c 0,39,40
 235.97265625 498 235.97265625 498 242.969726562 472 c 128,-1,41
 249.966796875 446 249.966796875 446 281.883789062 385 c 1,42,43
 362.887695312 424 362.887695312 424 394.96875 459 c 128,-1,44
 427.048828125 494 427.048828125 494 437.20703125 538 c 0,45,46
 446.2109375 577 446.2109375 577 425.174804688 598.5 c 128,-1,47
 404.138671875 620 404.138671875 620 359.138671875 620 c 0,36,37
190.541992188 37 m 0,48,49
 295.541992188 37 295.541992188 37 377.93359375 108 c 1,50,51
 348.323242188 153 348.323242188 153 305.099609375 230 c 2,52,-1
 252.801757812 324 l 1,53,54
 164.412109375 279 164.412109375 279 124.370117188 242 c 128,-1,55
 84.328125 205 84.328125 205 73.24609375 157 c 0,56,57
 61.0107421875 104 61.0107421875 104 95.2763671875 70.5 c 128,-1,58
 129.541992188 37 129.541992188 37 190.541992188 37 c 0,48,49
EndSplineSet
Substitution2: "'smcp' Lowercase to Small Capitals lookup 12 subtable" ampersand.sc
Substitution2: "'c2sc' Capitals to Small Capitals lookup 11 subtable" ampersand.sc
Substitution2: "'aalt' Access All Alternates lookup 0 subtable" ampersand.sc
EndChar

StartChar: quotesingle
Encoding: 39 39 10
Width: 203
GlyphClass: 2
Flags: W
LayerCount: 2
Fore
SplineSet
233.375976562 686 m 1,0,-1
 166.739257812 471 l 1,1,-1
 120.739257812 471 l 1,2,-1
 170.375976562 686 l 1,3,-1
 233.375976562 686 l 1,0,-1
EndSplineSet
Substitution2: "'smcp' Lowercase to Small Capitals lookup 12 subtable" quotesingle.sc
Substitution2: "'c2sc' Capitals to Small Capitals lookup 11 subtable" quotesingle.sc
Substitution2: "'aalt' Access All Alternates lookup 0 subtable" quotesingle.sc
EndChar

StartChar: parenleft
Encoding: 40 40 11
Width: 315
GlyphClass: 2
Flags: W
LayerCount: 2
Fore
SplineSet
369.458984375 747 m 1,0,-1
 393.83984375 714 l 1,1,2
 279.447265625 630 279.447265625 630 214.8984375 528 c 128,-1,3
 150.349609375 426 150.349609375 426 117.104492188 282 c 0,4,5
 84.0908203125 139 84.0908203125 139 101.541992188 37 c 128,-1,6
 118.993164062 -65 118.993164062 -65 194.600585938 -149 c 1,7,-1
 154.982421875 -182 l 1,8,9
 -7.8466796875 -8 -7.8466796875 -8 59.1044921875 282 c 0,10,11
 126.287109375 573 126.287109375 573 369.458984375 747 c 1,0,-1
EndSplineSet
Substitution2: "'case' Case-Sensitive Forms lookup 29 subtable" parenleft.case
Substitution2: "'sups' Superscript lookup 15 subtable" uni207D
Substitution2: "'subs' Subscript lookup 14 subtable" uni208D
Substitution2: "'sinf' Scientific Inferiors lookup 13 subtable" uni208D
AlternateSubs2: "'aalt' Access All Alternates lookup 1 subtable" uni208D uni207D parenleft.case
EndChar

StartChar: parenright
Encoding: 41 41 12
Width: 315
GlyphClass: 2
Flags: W
LayerCount: 2
Fore
SplineSet
162.458984375 747 m 1,0,1
 325.287109375 573 325.287109375 573 258.104492188 282 c 0,2,3
 191.153320312 -8 191.153320312 -8 -52.017578125 -182 c 1,4,-1
 -76.3994140625 -149 l 1,5,6
 37.9931640625 -65 37.9931640625 -65 102.541992188 37 c 128,-1,7
 167.090820312 139 167.090820312 139 200.104492188 282 c 0,8,9
 233.349609375 426 233.349609375 426 215.8984375 528 c 128,-1,10
 198.447265625 630 198.447265625 630 122.83984375 714 c 1,11,-1
 162.458984375 747 l 1,0,1
EndSplineSet
Substitution2: "'case' Case-Sensitive Forms lookup 29 subtable" parenright.case
Substitution2: "'sups' Superscript lookup 15 subtable" uni207E
Substitution2: "'subs' Subscript lookup 14 subtable" uni208E
Substitution2: "'sinf' Scientific Inferiors lookup 13 subtable" uni208E
AlternateSubs2: "'aalt' Access All Alternates lookup 1 subtable" uni208E uni207E parenright.case
EndChar

StartChar: asterisk
Encoding: 42 42 13
Width: 550
GlyphClass: 2
Flags: W
LayerCount: 2
Fore
SplineSet
350.818359375 493 m 1,0,-1
 390.735351562 432 l 1,1,-1
 440.186523438 330 l 1,2,-1
 395.953125 303 l 1,3,-1
 345.270507812 404 l 1,4,-1
 320.431640625 474 l 1,5,-1
 263.270507812 404 l 1,6,-1
 165.953125 303 l 1,7,-1
 134.186523438 330 l 1,8,-1
 230.735351562 432 l 1,9,-1
 297.818359375 493 l 1,10,-1
 222.973632812 511 l 1,11,-1
 112.977539062 550 l 1,12,-1
 137.135742188 594 l 1,13,-1
 248.59375 557 l 1,14,-1
 314.974609375 524 l 1,15,-1
 326.444335938 604 l 1,16,-1
 355.534179688 730 l 1,17,-1
 403.534179688 730 l 1,18,-1
 374.444335938 604 l 1,19,-1
 347.974609375 524 l 1,20,-1
 429.59375 557 l 1,21,-1
 558.135742188 594 l 1,22,-1
 561.977539062 550 l 1,23,-1
 433.973632812 511 l 1,24,-1
 350.818359375 493 l 1,0,-1
EndSplineSet
EndChar

StartChar: plus
Encoding: 43 43 14
Width: 604
GlyphClass: 2
Flags: W
LayerCount: 2
Fore
SplineSet
556.1875 343 m 1,0,-1
 543.952148438 290 l 1,1,-1
 331.952148438 290 l 1,2,-1
 281.622070312 72 l 1,3,-1
 227.622070312 72 l 1,4,-1
 277.952148438 290 l 1,5,-1
 65.9521484375 290 l 1,6,-1
 78.1875 343 l 1,7,-1
 290.1875 343 l 1,8,-1
 339.59375 557 l 1,9,-1
 393.59375 557 l 1,10,-1
 344.1875 343 l 1,11,-1
 556.1875 343 l 1,0,-1
EndSplineSet
Substitution2: "'sups' Superscript lookup 15 subtable" uni207A
Substitution2: "'subs' Subscript lookup 14 subtable" uni208A
Substitution2: "'sinf' Scientific Inferiors lookup 13 subtable" uni208A
AlternateSubs2: "'aalt' Access All Alternates lookup 1 subtable" uni208A uni207A
EndChar

StartChar: comma
Encoding: 44 44 15
Width: 302
GlyphClass: 2
Flags: W
LayerCount: 2
Fore
SplineSet
110.008789062 91 m 0,0,1
 138.008789062 91 138.008789062 91 149.044921875 69.5 c 128,-1,2
 160.08203125 48 160.08203125 48 152.000976562 13 c 0,3,4
 141.612304688 -32 141.612304688 -32 109.608398438 -71 c 128,-1,5
 77.6044921875 -110 77.6044921875 -110 27.525390625 -132 c 1,6,-1
 1.9892578125 -104 l 1,7,8
 40.9912109375 -91 40.9912109375 -91 70.9169921875 -61 c 128,-1,9
 100.842773438 -31 100.842773438 -31 108.76953125 -1 c 1,10,-1
 106.23046875 1 l 1,11,12
 96.1533203125 -8 96.1533203125 -8 80.1533203125 -8 c 0,13,14
 63.1533203125 -8 63.1533203125 -8 53.154296875 5 c 128,-1,15
 43.1552734375 18 43.1552734375 18 48.234375 40 c 0,16,17
 53.0830078125 61 53.0830078125 61 71.0458984375 76 c 128,-1,18
 89.0087890625 91 89.0087890625 91 110.008789062 91 c 0,0,1
EndSplineSet
Substitution2: "'tnum' Tabular Numbers lookup 26 subtable" comma.tf
Substitution2: "'sups' Superscript lookup 15 subtable" commasuperior
Substitution2: "'subs' Subscript lookup 14 subtable" commainferior
Substitution2: "'sinf' Scientific Inferiors lookup 13 subtable" commainferior
AlternateSubs2: "'aalt' Access All Alternates lookup 1 subtable" commainferior commasuperior comma.tf
EndChar

StartChar: hyphen
Encoding: 45 45 16
Width: 477
GlyphClass: 2
Flags: W
LayerCount: 2
Fore
SplineSet
397.875 294 m 1,0,-1
 384.25390625 235 l 1,1,-1
 72.25390625 235 l 1,2,-1
 85.875 294 l 1,3,-1
 397.875 294 l 1,0,-1
EndSplineSet
Substitution2: "'case' Case-Sensitive Forms lookup 29 subtable" hyphen.case
Substitution2: "'sups' Superscript lookup 15 subtable" hyphensuperior
Substitution2: "'subs' Subscript lookup 14 subtable" hypheninferior
Substitution2: "'sinf' Scientific Inferiors lookup 13 subtable" hypheninferior
AlternateSubs2: "'aalt' Access All Alternates lookup 1 subtable" hypheninferior hyphensuperior hyphen.case
EndChar

StartChar: period
Encoding: 46 46 17
Width: 302
GlyphClass: 2
Flags: W
LayerCount: 2
Fore
SplineSet
108.008789062 91 m 128,-1,1
 131.008789062 91 131.008789062 91 141.392578125 77.5 c 128,-1,2
 151.775390625 64 151.775390625 64 146.465820312 41 c 0,3,4
 141.38671875 19 141.38671875 19 124.26953125 5.5 c 128,-1,5
 107.153320312 -8 107.153320312 -8 85.1533203125 -8 c 128,-1,6
 63.1533203125 -8 63.1533203125 -8 52.26953125 5.5 c 128,-1,7
 41.38671875 19 41.38671875 19 46.4658203125 41 c 0,8,9
 51.775390625 64 51.775390625 64 68.392578125 77.5 c 128,-1,0
 85.0087890625 91 85.0087890625 91 108.008789062 91 c 128,-1,1
EndSplineSet
Substitution2: "'tnum' Tabular Numbers lookup 26 subtable" period.tf
Substitution2: "'sups' Superscript lookup 15 subtable" periodsuperior
Substitution2: "'subs' Subscript lookup 14 subtable" periodinferior
Substitution2: "'sinf' Scientific Inferiors lookup 13 subtable" periodinferior
AlternateSubs2: "'aalt' Access All Alternates lookup 1 subtable" periodinferior periodsuperior period.tf
EndChar

StartChar: slash
Encoding: 47 47 18
Width: 406
GlyphClass: 2
Flags: W
LayerCount: 2
Fore
SplineSet
479.534179688 730 m 1,0,-1
 4.8388671875 -70 l 1,1,-1
 -49.1611328125 -70 l 1,2,-1
 424.534179688 730 l 1,3,-1
 479.534179688 730 l 1,0,-1
EndSplineSet
Substitution2: "'frac' Diagonal Fractions lookup 18 subtable" fraction
Substitution2: "'aalt' Access All Alternates lookup 0 subtable" fraction
EndChar

StartChar: zero
Encoding: 48 48 19
Width: 604
GlyphClass: 2
Flags: W
LayerCount: 2
Fore
SplineSet
235.69140625 -10 m 128,-1,1
 117.69140625 -10 117.69140625 -10 75.892578125 77.5 c 128,-1,2
 34.0927734375 165 34.0927734375 165 72.1865234375 330 c 128,-1,3
 110.279296875 495 110.279296875 495 192.48046875 582.5 c 128,-1,4
 274.681640625 670 274.681640625 670 392.681640625 670 c 128,-1,5
 510.681640625 670 510.681640625 670 552.48046875 582.5 c 128,-1,6
 594.279296875 495 594.279296875 495 556.186523438 330 c 128,-1,7
 518.092773438 165 518.092773438 165 435.892578125 77.5 c 128,-1,0
 353.69140625 -10 353.69140625 -10 235.69140625 -10 c 128,-1,1
247.465820312 41 m 128,-1,9
 336.465820312 41 336.465820312 41 400.665039062 115.5 c 128,-1,10
 464.865234375 190 464.865234375 190 497.186523438 330 c 128,-1,11
 529.5078125 470 529.5078125 470 499.708007812 544.5 c 128,-1,12
 469.907226562 619 469.907226562 619 380.907226562 619 c 128,-1,13
 291.907226562 619 291.907226562 619 227.708007812 544.5 c 128,-1,14
 163.5078125 470 163.5078125 470 131.186523438 330 c 128,-1,15
 98.865234375 190 98.865234375 190 128.665039062 115.5 c 128,-1,8
 158.465820312 41 158.465820312 41 247.465820312 41 c 128,-1,9
EndSplineSet
Substitution2: "'zero' Slashed Zero lookup 28 subtable" zero.zero
Substitution2: "'onum' Oldstyle Figures lookup 27 subtable" zero.osf
Substitution2: "'tnum' Tabular Numbers lookup 26 subtable" zero.tf
Substitution2: "'frac' Diagonal Fractions lookup 19 subtable" zero.numr
Substitution2: "'dnom' Denominators lookup 17 subtable" zero.dnom
Substitution2: "'numr' Numerators lookup 16 subtable" zero.numr
Substitution2: "'sups' Superscript lookup 15 subtable" uni2070
Substitution2: "'subs' Subscript lookup 14 subtable" uni2080
Substitution2: "'sinf' Scientific Inferiors lookup 13 subtable" uni2080
Substitution2: "'smcp' Lowercase to Small Capitals lookup 12 subtable" zero.sc
Substitution2: "'c2sc' Capitals to Small Capitals lookup 11 subtable" zero.sc
AlternateSubs2: "'aalt' Access All Alternates lookup 1 subtable" zero.sc uni2080 uni2070 zero.numr zero.dnom zero.tf zero.osf zero.zero
EndChar

StartChar: one
Encoding: 49 49 20
Width: 604
GlyphClass: 2
Flags: W
LayerCount: 2
Fore
SplineSet
318.774414062 51 m 1,0,-1
 503.774414062 51 l 1,1,-1
 492 0 l 1,2,-1
 45 0 l 1,3,-1
 56.7744140625 51 l 1,4,-1
 261.774414062 51 l 1,5,-1
 368.897460938 515 l 2,6,7
 374.20703125 538 374.20703125 538 387.750976562 588 c 1,8,9
 341.977539062 550 341.977539062 550 278.3203125 519 c 128,-1,10
 214.6640625 488 214.6640625 488 159.431640625 474 c 1,11,-1
 156.436523438 526 l 1,12,13
 208.20703125 538 208.20703125 538 291.672851562 579 c 128,-1,14
 375.138671875 620 375.138671875 620 409.373046875 660 c 1,15,-1
 459.373046875 660 l 1,16,-1
 318.774414062 51 l 1,0,-1
EndSplineSet
Substitution2: "'onum' Oldstyle Figures lookup 27 subtable" one.osf
Substitution2: "'tnum' Tabular Numbers lookup 26 subtable" one.tf
Substitution2: "'nalt' Alternate Annotation Forms lookup 23 subtable" uni2780
Substitution2: "'frac' Diagonal Fractions lookup 19 subtable" one.numr
Substitution2: "'dnom' Denominators lookup 17 subtable" one.dnom
Substitution2: "'numr' Numerators lookup 16 subtable" one.numr
Substitution2: "'sups' Superscript lookup 15 subtable" uni00B9
Substitution2: "'subs' Subscript lookup 14 subtable" uni2081
Substitution2: "'sinf' Scientific Inferiors lookup 13 subtable" uni2081
Substitution2: "'smcp' Lowercase to Small Capitals lookup 12 subtable" one.sc
Substitution2: "'c2sc' Capitals to Small Capitals lookup 11 subtable" one.sc
AlternateSubs2: "'aalt' Access All Alternates lookup 1 subtable" one.sc uni2081 uni00B9 one.numr one.dnom uni2780 one.tf one.osf
EndChar

StartChar: two
Encoding: 50 50 21
Width: 604
GlyphClass: 2
Flags: W
LayerCount: 2
Fore
SplineSet
26 0 m 1,0,-1
 36.8505859375 47 l 1,1,2
 279.328125 205 279.328125 205 377.797851562 291.5 c 128,-1,3
 476.268554688 378 476.268554688 378 496.815429688 467 c 0,4,5
 512.745117188 536 512.745117188 536 479.595703125 576.5 c 128,-1,6
 446.4453125 617 446.4453125 617 374.4453125 617 c 0,7,8
 299.4453125 617 299.4453125 617 242.979492188 569.5 c 128,-1,9
 186.513671875 522 186.513671875 522 161.8125 441 c 1,10,-1
 118.5078125 470 l 1,11,12
 149.516601562 561 149.516601562 561 220.599609375 615.5 c 128,-1,13
 291.681640625 670 291.681640625 670 388.681640625 670 c 0,14,15
 486.681640625 670 486.681640625 670 531.868164062 614.5 c 128,-1,16
 577.055664062 559 577.055664062 559 555.815429688 467 c 0,17,18
 533.65234375 371 533.65234375 371 434.181640625 278 c 128,-1,19
 334.7109375 185 334.7109375 185 121.004882812 52 c 1,20,-1
 120.774414062 51 l 1,21,22
 155.236328125 53 155.236328125 53 194.236328125 53 c 2,23,-1
 480.236328125 53 l 1,24,-1
 468 0 l 1,25,-1
 26 0 l 1,0,-1
EndSplineSet
Substitution2: "'onum' Oldstyle Figures lookup 27 subtable" two.osf
Substitution2: "'tnum' Tabular Numbers lookup 26 subtable" two.tf
Substitution2: "'nalt' Alternate Annotation Forms lookup 23 subtable" uni2781
Substitution2: "'frac' Diagonal Fractions lookup 19 subtable" two.numr
Substitution2: "'dnom' Denominators lookup 17 subtable" two.dnom
Substitution2: "'numr' Numerators lookup 16 subtable" two.numr
Substitution2: "'sups' Superscript lookup 15 subtable" uni00B2
Substitution2: "'subs' Subscript lookup 14 subtable" uni2082
Substitution2: "'sinf' Scientific Inferiors lookup 13 subtable" uni2082
Substitution2: "'smcp' Lowercase to Small Capitals lookup 12 subtable" two.sc
Substitution2: "'c2sc' Capitals to Small Capitals lookup 11 subtable" two.sc
AlternateSubs2: "'aalt' Access All Alternates lookup 1 subtable" two.sc uni2082 uni00B2 two.numr two.dnom uni2781 two.tf two.osf
EndChar

StartChar: three
Encoding: 51 51 22
Width: 604
GlyphClass: 2
Flags: W
LayerCount: 2
Fore
SplineSet
394.681640625 670 m 0,0,1
 488.681640625 670 488.681640625 670 530.484375 621.5 c 128,-1,2
 572.287109375 573 572.287109375 573 554.97265625 498 c 0,3,4
 539.50390625 431 539.50390625 431 492.768554688 384.5 c 128,-1,5
 446.033203125 338 446.033203125 338 391.110351562 334 c 1,6,-1
 390.87890625 333 l 1,7,8
 453.416992188 331 453.416992188 331 481.797851562 285 c 128,-1,9
 510.177734375 239 510.177734375 239 495.40234375 175 c 0,10,11
 476.470703125 93 476.470703125 93 403.081054688 41.5 c 128,-1,12
 329.69140625 -10 329.69140625 -10 232.69140625 -10 c 0,13,14
 146.69140625 -10 146.69140625 -10 98.42578125 30 c 128,-1,15
 50.1611328125 70 50.1611328125 70 42.4755859375 145 c 1,16,-1
 104.40234375 175 l 1,17,18
 106.927734375 43 106.927734375 43 247.927734375 43 c 0,19,20
 319.927734375 43 319.927734375 43 372.200195312 81 c 128,-1,21
 424.473632812 119 424.473632812 119 438.017578125 182 c 0,22,23
 466.645507812 306 466.645507812 306 308.645507812 306 c 2,24,-1
 274.645507812 306 l 1,25,-1
 286.881835938 359 l 1,26,-1
 320.881835938 359 l 2,27,28
 389.881835938 359 389.881835938 359 434.116210938 392.5 c 128,-1,29
 478.349609375 426 478.349609375 426 493.202148438 486 c 0,30,31
 507.747070312 549 507.747070312 549 479.095703125 583 c 128,-1,32
 450.4453125 617 450.4453125 617 382.4453125 617 c 0,33,34
 322.4453125 617 322.4453125 617 276.634765625 587.5 c 128,-1,35
 230.82421875 558 230.82421875 558 203.819335938 506 c 1,36,-1
 156.590820312 531 l 1,37,38
 194.366210938 595 194.366210938 595 258.024414062 632.5 c 128,-1,39
 321.681640625 670 321.681640625 670 394.681640625 670 c 0,0,1
EndSplineSet
Substitution2: "'onum' Oldstyle Figures lookup 27 subtable" three.osf
Substitution2: "'tnum' Tabular Numbers lookup 26 subtable" three.tf
Substitution2: "'nalt' Alternate Annotation Forms lookup 23 subtable" uni2782
Substitution2: "'frac' Diagonal Fractions lookup 19 subtable" three.numr
Substitution2: "'dnom' Denominators lookup 17 subtable" three.dnom
Substitution2: "'numr' Numerators lookup 16 subtable" three.numr
Substitution2: "'sups' Superscript lookup 15 subtable" uni00B3
Substitution2: "'subs' Subscript lookup 14 subtable" uni2083
Substitution2: "'sinf' Scientific Inferiors lookup 13 subtable" uni2083
Substitution2: "'smcp' Lowercase to Small Capitals lookup 12 subtable" three.sc
Substitution2: "'c2sc' Capitals to Small Capitals lookup 11 subtable" three.sc
AlternateSubs2: "'aalt' Access All Alternates lookup 1 subtable" three.sc uni2083 uni00B3 three.numr three.dnom uni2782 three.tf three.osf
EndChar

StartChar: four
Encoding: 52 52 23
Width: 604
GlyphClass: 2
Flags: W
LayerCount: 2
Fore
SplineSet
306 0 m 1,0,-1
 348.7109375 185 l 1,1,-1
 27.7109375 185 l 1,2,-1
 37.4072265625 227 l 1,3,-1
 439.373046875 660 l 1,4,-1
 515.373046875 660 l 1,5,-1
 417.0234375 234 l 1,6,-1
 550.0234375 234 l 1,7,-1
 538.7109375 185 l 1,8,-1
 405.7109375 185 l 1,9,-1
 363 0 l 1,10,-1
 306 0 l 1,0,-1
98.0234375 234 m 1,11,-1
 360.0234375 234 l 1,12,-1
 416.124023438 477 l 2,13,14
 436.440429688 565 436.440429688 565 448.830078125 610 c 1,15,-1
 447.830078125 610 l 1,16,17
 413.671875 566 413.671875 566 367.358398438 517 c 2,18,-1
 98.0234375 234 l 1,11,-1
EndSplineSet
Substitution2: "'onum' Oldstyle Figures lookup 27 subtable" four.osf
Substitution2: "'tnum' Tabular Numbers lookup 26 subtable" four.tf
Substitution2: "'nalt' Alternate Annotation Forms lookup 23 subtable" uni2783
Substitution2: "'frac' Diagonal Fractions lookup 19 subtable" four.numr
Substitution2: "'dnom' Denominators lookup 17 subtable" four.dnom
Substitution2: "'numr' Numerators lookup 16 subtable" four.numr
Substitution2: "'sups' Superscript lookup 15 subtable" uni2074
Substitution2: "'subs' Subscript lookup 14 subtable" uni2084
Substitution2: "'sinf' Scientific Inferiors lookup 13 subtable" uni2084
Substitution2: "'smcp' Lowercase to Small Capitals lookup 12 subtable" four.sc
Substitution2: "'c2sc' Capitals to Small Capitals lookup 11 subtable" four.sc
AlternateSubs2: "'aalt' Access All Alternates lookup 1 subtable" four.sc uni2084 uni2074 four.numr four.dnom uni2783 four.tf four.osf
EndChar

StartChar: five
Encoding: 53 53 24
Width: 604
GlyphClass: 2
Flags: W
LayerCount: 2
Fore
SplineSet
354.810546875 415 m 0,0,1
 447.810546875 415 447.810546875 415 491.919921875 357 c 128,-1,2
 536.029296875 299 536.029296875 299 514.328125 205 c 0,3,4
 491.703125 107 491.703125 107 418.197265625 48.5 c 128,-1,5
 344.69140625 -10 344.69140625 -10 243.69140625 -10 c 0,6,7
 63.69140625 -10 63.69140625 -10 51.2451171875 144 c 1,8,-1
 112.708984375 172 l 1,9,10
 112.927734375 43 112.927734375 43 253.927734375 43 c 0,11,12
 328.927734375 43 328.927734375 43 383.354492188 86 c 128,-1,13
 437.782226562 129 437.782226562 129 454.635742188 202 c 0,14,15
 470.950195312 277 470.950195312 277 438.762695312 319.5 c 128,-1,16
 406.57421875 362 406.57421875 362 333.57421875 362 c 0,17,18
 220.57421875 362 220.57421875 362 152.952148438 290 c 1,19,-1
 101.952148438 290 l 1,20,-1
 224.373046875 660 l 1,21,-1
 590.373046875 660 l 1,22,-1
 578.13671875 607 l 1,23,-1
 260.13671875 607 l 1,24,-1
 177.8046875 363 l 1,25,-1
 173.803710938 350 l 1,26,-1
 174.803710938 350 l 1,27,28
 243.810546875 415 243.810546875 415 354.810546875 415 c 0,0,1
EndSplineSet
Substitution2: "'onum' Oldstyle Figures lookup 27 subtable" five.osf
Substitution2: "'tnum' Tabular Numbers lookup 26 subtable" five.tf
Substitution2: "'nalt' Alternate Annotation Forms lookup 23 subtable" uni2784
Substitution2: "'frac' Diagonal Fractions lookup 19 subtable" five.numr
Substitution2: "'dnom' Denominators lookup 17 subtable" five.dnom
Substitution2: "'numr' Numerators lookup 16 subtable" five.numr
Substitution2: "'sups' Superscript lookup 15 subtable" uni2075
Substitution2: "'subs' Subscript lookup 14 subtable" uni2085
Substitution2: "'sinf' Scientific Inferiors lookup 13 subtable" uni2085
Substitution2: "'smcp' Lowercase to Small Capitals lookup 12 subtable" five.sc
Substitution2: "'c2sc' Capitals to Small Capitals lookup 11 subtable" five.sc
AlternateSubs2: "'aalt' Access All Alternates lookup 1 subtable" five.sc uni2085 uni2075 five.numr five.dnom uni2784 five.tf five.osf
EndChar

StartChar: six
Encoding: 54 54 25
Width: 604
GlyphClass: 2
Flags: W
LayerCount: 2
Fore
SplineSet
427.681640625 670 m 0,0,1
 573.681640625 670 573.681640625 670 596.20703125 538 c 1,2,-1
 537.435546875 513 l 1,3,4
 527.4453125 617 527.4453125 617 412.4453125 617 c 0,5,6
 317.4453125 617 317.4453125 617 244.975585938 530.5 c 128,-1,7
 172.505859375 444 172.505859375 444 142.954101562 316 c 0,8,9
 140.645507812 306 140.645507812 306 137.643554688 286.5 c 128,-1,10
 134.641601562 267 134.641601562 267 133.025390625 260 c 1,11,-1
 137.025390625 260 l 1,12,13
 163.416992188 331 163.416992188 331 229.037109375 370.5 c 128,-1,14
 294.65625 410 294.65625 410 363.65625 410 c 0,15,16
 462.65625 410 462.65625 410 508.49609375 353 c 128,-1,17
 554.336914062 296 554.336914062 296 532.173828125 200 c 128,-1,18
 510.010742188 104 510.010742188 104 436.850585938 47 c 128,-1,19
 363.69140625 -10 363.69140625 -10 261.69140625 -10 c 0,20,21
 142.69140625 -10 142.69140625 -10 99.3154296875 81.5 c 128,-1,22
 55.9404296875 173 55.9404296875 173 92.1865234375 330 c 0,23,24
 129.818359375 493 129.818359375 493 221.75 581.5 c 128,-1,25
 313.681640625 670 313.681640625 670 427.681640625 670 c 0,0,1
346.958007812 355 m 0,26,27
 274.958007812 355 274.958007812 355 218.569335938 310 c 128,-1,28
 162.1796875 265 162.1796875 265 147.404296875 201 c 0,29,30
 131.474609375 132 131.474609375 132 166.31640625 88 c 128,-1,31
 201.158203125 44 201.158203125 44 273.158203125 44 c 0,32,33
 349.158203125 44 349.158203125 44 402.854492188 86 c 128,-1,34
 456.55078125 128 456.55078125 128 473.404296875 201 c 0,35,36
 489.565429688 271 489.565429688 271 455.76171875 313 c 128,-1,37
 421.958007812 355 421.958007812 355 346.958007812 355 c 0,26,27
EndSplineSet
Substitution2: "'onum' Oldstyle Figures lookup 27 subtable" six.osf
Substitution2: "'tnum' Tabular Numbers lookup 26 subtable" six.tf
Substitution2: "'nalt' Alternate Annotation Forms lookup 23 subtable" uni2785
Substitution2: "'frac' Diagonal Fractions lookup 19 subtable" six.numr
Substitution2: "'dnom' Denominators lookup 17 subtable" six.dnom
Substitution2: "'numr' Numerators lookup 16 subtable" six.numr
Substitution2: "'sups' Superscript lookup 15 subtable" uni2076
Substitution2: "'subs' Subscript lookup 14 subtable" uni2086
Substitution2: "'sinf' Scientific Inferiors lookup 13 subtable" uni2086
Substitution2: "'smcp' Lowercase to Small Capitals lookup 12 subtable" six.sc
Substitution2: "'c2sc' Capitals to Small Capitals lookup 11 subtable" six.sc
AlternateSubs2: "'aalt' Access All Alternates lookup 1 subtable" six.sc uni2086 uni2076 six.numr six.dnom uni2785 six.tf six.osf
EndChar

StartChar: seven
Encoding: 55 55 26
Width: 604
GlyphClass: 2
Flags: W
LayerCount: 2
Fore
SplineSet
143.373046875 660 m 1,0,-1
 655.373046875 660 l 1,1,-1
 643.13671875 607 l 1,2,3
 322.341796875 348 322.341796875 348 235 0 c 1,4,-1
 176 0 l 1,5,6
 265.803710938 350 265.803710938 350 579.13671875 607 c 1,7,-1
 131.13671875 607 l 1,8,-1
 143.373046875 660 l 1,0,-1
EndSplineSet
Substitution2: "'onum' Oldstyle Figures lookup 27 subtable" seven.osf
Substitution2: "'tnum' Tabular Numbers lookup 26 subtable" seven.tf
Substitution2: "'nalt' Alternate Annotation Forms lookup 23 subtable" uni2786
Substitution2: "'frac' Diagonal Fractions lookup 19 subtable" seven.numr
Substitution2: "'dnom' Denominators lookup 17 subtable" seven.dnom
Substitution2: "'numr' Numerators lookup 16 subtable" seven.numr
Substitution2: "'sups' Superscript lookup 15 subtable" uni2077
Substitution2: "'subs' Subscript lookup 14 subtable" uni2087
Substitution2: "'sinf' Scientific Inferiors lookup 13 subtable" uni2087
Substitution2: "'smcp' Lowercase to Small Capitals lookup 12 subtable" seven.sc
Substitution2: "'c2sc' Capitals to Small Capitals lookup 11 subtable" seven.sc
AlternateSubs2: "'aalt' Access All Alternates lookup 1 subtable" seven.sc uni2087 uni2077 seven.numr seven.dnom uni2786 seven.tf seven.osf
EndChar

StartChar: eight
Encoding: 56 56 27
Width: 604
GlyphClass: 2
Flags: W
LayerCount: 2
Fore
SplineSet
392.451171875 669 m 128,-1,1
 483.451171875 669 483.451171875 669 527.446289062 623.5 c 128,-1,2
 571.44140625 578 571.44140625 578 553.434570312 500 c 0,3,4
 540.966796875 446 540.966796875 446 502.6171875 405.5 c 128,-1,5
 464.266601562 365 464.266601562 365 410.341796875 348 c 1,6,-1
 410.111328125 347 l 1,7,8
 468.956054688 329 468.956054688 329 494.951171875 283.5 c 128,-1,9
 520.946289062 238 520.946289062 238 506.40234375 175 c 0,10,11
 487.008789062 91 487.008789062 91 412.850585938 40.5 c 128,-1,12
 338.69140625 -10 338.69140625 -10 235.69140625 -10 c 0,13,14
 133.69140625 -10 133.69140625 -10 81.8505859375 40.5 c 128,-1,15
 30.0087890625 91 30.0087890625 91 49.40234375 175 c 0,16,17
 63.9462890625 238 63.9462890625 238 111.451171875 283.5 c 128,-1,18
 158.956054688 329 158.956054688 329 226.111328125 347 c 1,19,-1
 226.341796875 348 l 1,20,21
 180.266601562 365 180.266601562 365 160.501953125 405 c 128,-1,22
 140.736328125 445 140.736328125 445 153.434570312 500 c 0,23,24
 171.44140625 578 171.44140625 578 236.446289062 623.5 c 128,-1,0
 301.451171875 669 301.451171875 669 392.451171875 669 c 128,-1,1
380.21484375 616 m 128,-1,26
 315.21484375 616 315.21484375 616 269.711914062 583.5 c 128,-1,27
 224.208007812 551 224.208007812 551 211.279296875 495 c 0,28,29
 198.58203125 440 198.58203125 440 229.34765625 406.5 c 128,-1,30
 260.114257812 373 260.114257812 373 324.114257812 373 c 0,31,32
 387.114257812 373 387.114257812 373 433.84765625 406.5 c 128,-1,33
 480.58203125 440 480.58203125 440 493.279296875 495 c 0,34,35
 506.208007812 551 506.208007812 551 475.711914062 583.5 c 128,-1,25
 445.21484375 616 445.21484375 616 380.21484375 616 c 128,-1,26
247.927734375 43 m 128,-1,37
 324.927734375 43 324.927734375 43 379.584960938 80.5 c 128,-1,38
 434.2421875 118 434.2421875 118 448.556640625 180 c 0,39,40
 463.100585938 243 463.100585938 243 425.374023438 281 c 128,-1,41
 387.646484375 319 387.646484375 319 311.646484375 319 c 128,-1,42
 235.646484375 319 235.646484375 319 179.874023438 281 c 128,-1,43
 124.100585938 243 124.100585938 243 109.556640625 180 c 0,44,45
 95.2421875 118 95.2421875 118 133.084960938 80.5 c 128,-1,36
 170.927734375 43 170.927734375 43 247.927734375 43 c 128,-1,37
EndSplineSet
Substitution2: "'onum' Oldstyle Figures lookup 27 subtable" eight.osf
Substitution2: "'tnum' Tabular Numbers lookup 26 subtable" eight.tf
Substitution2: "'nalt' Alternate Annotation Forms lookup 23 subtable" uni2787
Substitution2: "'frac' Diagonal Fractions lookup 19 subtable" eight.numr
Substitution2: "'dnom' Denominators lookup 17 subtable" eight.dnom
Substitution2: "'numr' Numerators lookup 16 subtable" eight.numr
Substitution2: "'sups' Superscript lookup 15 subtable" uni2078
Substitution2: "'subs' Subscript lookup 14 subtable" uni2088
Substitution2: "'sinf' Scientific Inferiors lookup 13 subtable" uni2088
Substitution2: "'smcp' Lowercase to Small Capitals lookup 12 subtable" eight.sc
Substitution2: "'c2sc' Capitals to Small Capitals lookup 11 subtable" eight.sc
AlternateSubs2: "'aalt' Access All Alternates lookup 1 subtable" eight.sc uni2088 uni2078 eight.numr eight.dnom uni2787 eight.tf eight.osf
EndChar

StartChar: nine
Encoding: 57 57 28
Width: 604
GlyphClass: 2
Flags: W
LayerCount: 2
Fore
SplineSet
377.681640625 670 m 0,0,1
 496.681640625 670 496.681640625 670 540.057617188 578.5 c 128,-1,2
 583.432617188 487 583.432617188 487 547.186523438 330 c 0,3,4
 508.862304688 164 508.862304688 164 424.276367188 77 c 128,-1,5
 339.69140625 -10 339.69140625 -10 221.69140625 -10 c 0,6,7
 48.69140625 -10 48.69140625 -10 33.3984375 136 c 1,8,-1
 97.32421875 166 l 1,9,10
 98.927734375 43 98.927734375 43 232.927734375 43 c 0,11,12
 428.927734375 43 428.927734375 43 499.573242188 349 c 0,13,14
 505.575195312 375 505.575195312 375 507.040039062 403 c 1,15,-1
 504.040039062 403 l 1,16,17
 478.724609375 328 478.724609375 328 412.720703125 289 c 128,-1,18
 346.716796875 250 346.716796875 250 275.716796875 250 c 0,19,20
 176.716796875 250 176.716796875 250 130.876953125 307 c 128,-1,21
 85.0361328125 364 85.0361328125 364 107.19921875 460 c 128,-1,22
 129.362304688 556 129.362304688 556 202.522460938 613 c 128,-1,23
 275.681640625 670 275.681640625 670 377.681640625 670 c 0,0,1
366.21484375 616 m 0,24,25
 290.21484375 616 290.21484375 616 236.518554688 574 c 128,-1,26
 182.822265625 532 182.822265625 532 165.96875 459 c 0,27,28
 149.577148438 388 149.577148438 388 183.49609375 346.5 c 128,-1,29
 217.415039062 305 217.415039062 305 292.415039062 305 c 0,30,31
 363.415039062 305 363.415039062 305 420.303710938 350 c 128,-1,32
 477.193359375 395 477.193359375 395 491.96875 459 c 0,33,34
 507.8984375 528 507.8984375 528 473.056640625 572 c 128,-1,35
 438.21484375 616 438.21484375 616 366.21484375 616 c 0,24,25
EndSplineSet
Substitution2: "'onum' Oldstyle Figures lookup 27 subtable" nine.osf
Substitution2: "'tnum' Tabular Numbers lookup 26 subtable" nine.tf
Substitution2: "'nalt' Alternate Annotation Forms lookup 23 subtable" uni2788
Substitution2: "'frac' Diagonal Fractions lookup 19 subtable" nine.numr
Substitution2: "'dnom' Denominators lookup 17 subtable" nine.dnom
Substitution2: "'numr' Numerators lookup 16 subtable" nine.numr
Substitution2: "'sups' Superscript lookup 15 subtable" uni2079
Substitution2: "'subs' Subscript lookup 14 subtable" uni2089
Substitution2: "'sinf' Scientific Inferiors lookup 13 subtable" uni2089
Substitution2: "'smcp' Lowercase to Small Capitals lookup 12 subtable" nine.sc
Substitution2: "'c2sc' Capitals to Small Capitals lookup 11 subtable" nine.sc
AlternateSubs2: "'aalt' Access All Alternates lookup 1 subtable" nine.sc uni2089 uni2079 nine.numr nine.dnom uni2788 nine.tf nine.osf
EndChar

StartChar: colon
Encoding: 58 58 29
Width: 302
GlyphClass: 2
Flags: W
LayerCount: 2
Fore
SplineSet
203.819335938 506 m 128,-1,1
 226.819335938 506 226.819335938 506 237.202148438 492.5 c 128,-1,2
 247.5859375 479 247.5859375 479 242.506835938 457 c 0,3,4
 237.197265625 434 237.197265625 434 220.580078125 420.5 c 128,-1,5
 203.962890625 407 203.962890625 407 180.962890625 407 c 128,-1,6
 157.962890625 407 157.962890625 407 147.580078125 420.5 c 128,-1,7
 137.197265625 434 137.197265625 434 142.506835938 457 c 0,8,9
 147.5859375 479 147.5859375 479 164.202148438 492.5 c 128,-1,0
 180.819335938 506 180.819335938 506 203.819335938 506 c 128,-1,1
108.008789062 91 m 128,-1,11
 131.008789062 91 131.008789062 91 141.392578125 77.5 c 128,-1,12
 151.775390625 64 151.775390625 64 146.465820312 41 c 0,13,14
 141.38671875 19 141.38671875 19 124.26953125 5.5 c 128,-1,15
 107.153320312 -8 107.153320312 -8 85.1533203125 -8 c 128,-1,16
 63.1533203125 -8 63.1533203125 -8 52.26953125 5.5 c 128,-1,17
 41.38671875 19 41.38671875 19 46.4658203125 41 c 0,18,19
 51.775390625 64 51.775390625 64 68.392578125 77.5 c 128,-1,10
 85.0087890625 91 85.0087890625 91 108.008789062 91 c 128,-1,11
EndSplineSet
Substitution2: "'tnum' Tabular Numbers lookup 26 subtable" colon.tf
Substitution2: "'sups' Superscript lookup 15 subtable" colonsuperior
Substitution2: "'subs' Subscript lookup 14 subtable" coloninferior
Substitution2: "'sinf' Scientific Inferiors lookup 13 subtable" coloninferior
AlternateSubs2: "'aalt' Access All Alternates lookup 1 subtable" coloninferior colonsuperior colon.tf
EndChar

StartChar: semicolon
Encoding: 59 59 30
Width: 302
GlyphClass: 2
Flags: W
LayerCount: 2
Fore
SplineSet
185.962890625 407 m 128,-1,1
 163.962890625 407 163.962890625 407 153.6953125 421 c 128,-1,2
 143.427734375 435 143.427734375 435 148.506835938 457 c 128,-1,3
 153.5859375 479 153.5859375 479 170.202148438 492.5 c 128,-1,4
 186.819335938 506 186.819335938 506 208.819335938 506 c 0,5,6
 231.819335938 506 231.819335938 506 242.202148438 492.5 c 128,-1,7
 252.5859375 479 252.5859375 479 247.506835938 457 c 0,8,9
 242.197265625 434 242.197265625 434 225.080078125 420.5 c 128,-1,0
 207.962890625 407 207.962890625 407 185.962890625 407 c 128,-1,1
110.008789062 91 m 0,10,11
 138.008789062 91 138.008789062 91 149.044921875 69.5 c 128,-1,12
 160.08203125 48 160.08203125 48 152.000976562 13 c 0,13,14
 141.612304688 -32 141.612304688 -32 109.608398438 -71 c 128,-1,15
 77.6044921875 -110 77.6044921875 -110 27.525390625 -132 c 1,16,-1
 1.9892578125 -104 l 1,17,18
 40.9912109375 -91 40.9912109375 -91 70.9169921875 -61 c 128,-1,19
 100.842773438 -31 100.842773438 -31 108.76953125 -1 c 1,20,-1
 106.23046875 1 l 1,21,22
 96.1533203125 -8 96.1533203125 -8 80.1533203125 -8 c 0,23,24
 63.1533203125 -8 63.1533203125 -8 53.154296875 5 c 128,-1,25
 43.1552734375 18 43.1552734375 18 48.234375 40 c 0,26,27
 53.0830078125 61 53.0830078125 61 71.0458984375 76 c 128,-1,28
 89.0087890625 91 89.0087890625 91 110.008789062 91 c 0,10,11
EndSplineSet
Substitution2: "'tnum' Tabular Numbers lookup 26 subtable" semicolon.tf
Substitution2: "'aalt' Access All Alternates lookup 0 subtable" semicolon.tf
EndChar

StartChar: less
Encoding: 60 60 31
Width: 604
GlyphClass: 2
Flags: W
LayerCount: 2
Fore
SplineSet
607.286132812 560 m 1,0,-1
 593.665039062 501 l 1,1,-1
 128.260742188 300 l 1,2,-1
 500.625 98 l 1,3,-1
 487.00390625 39 l 1,4,-1
 75.4111328125 266 l 1,5,-1
 90.87890625 333 l 1,6,-1
 607.286132812 560 l 1,0,-1
EndSplineSet
EndChar

StartChar: equal
Encoding: 61 61 32
Width: 604
GlyphClass: 2
Flags: W
LayerCount: 2
Fore
SplineSet
568.197265625 434 m 1,0,-1
 555.9609375 381 l 1,1,-1
 95.9609375 381 l 1,2,-1
 108.197265625 434 l 1,3,-1
 568.197265625 434 l 1,0,-1
521.791992188 233 m 1,4,-1
 509.556640625 180 l 1,5,-1
 49.556640625 180 l 1,6,-1
 61.7919921875 233 l 1,7,-1
 521.791992188 233 l 1,4,-1
EndSplineSet
Substitution2: "'sups' Superscript lookup 15 subtable" uni207C
Substitution2: "'subs' Subscript lookup 14 subtable" uni208C
Substitution2: "'sinf' Scientific Inferiors lookup 13 subtable" uni208C
AlternateSubs2: "'aalt' Access All Alternates lookup 1 subtable" uni208C uni207C
EndChar

StartChar: greater
Encoding: 62 62 33
Width: 604
GlyphClass: 2
Flags: W
LayerCount: 2
Fore
SplineSet
127.286132812 560 m 1,0,-1
 538.87890625 333 l 1,1,-1
 523.411132812 266 l 1,2,-1
 7.00390625 39 l 1,3,-1
 20.625 98 l 1,4,-1
 486.260742188 300 l 1,5,-1
 113.665039062 501 l 1,6,-1
 127.286132812 560 l 1,0,-1
EndSplineSet
EndChar

StartChar: question
Encoding: 63 63 34
Width: 517
GlyphClass: 2
Flags: W
LayerCount: 2
Fore
SplineSet
352.681640625 670 m 0,0,1
 445.681640625 670 445.681640625 670 492.561523438 624 c 128,-1,2
 539.44140625 578 539.44140625 578 521.434570312 500 c 0,3,4
 483.802734375 337 483.802734375 337 284.953125 303 c 1,5,-1
 258.171875 187 l 1,6,-1
 199.171875 187 l 1,7,-1
 233.110351562 334 l 1,8,9
 342.189453125 356 342.189453125 356 394 392 c 128,-1,10
 445.811523438 428 445.811523438 428 461.048828125 494 c 0,11,12
 474.208007812 551 474.208007812 551 441.327148438 584 c 128,-1,13
 408.4453125 617 408.4453125 617 336.4453125 617 c 0,14,15
 261.4453125 617 261.4453125 617 208.672851562 579 c 128,-1,16
 155.899414062 541 155.899414062 541 130.969726562 472 c 1,17,-1
 87.4345703125 500 l 1,18,19
 120.903320312 580 120.903320312 580 189.29296875 625 c 128,-1,20
 257.681640625 670 257.681640625 670 352.681640625 670 c 0,0,1
205.008789062 91 m 128,-1,22
 227.008789062 91 227.008789062 91 237.892578125 77.5 c 128,-1,23
 248.775390625 64 248.775390625 64 243.465820312 41 c 0,24,25
 238.38671875 19 238.38671875 19 221.26953125 5.5 c 128,-1,26
 204.153320312 -8 204.153320312 -8 182.153320312 -8 c 128,-1,27
 160.153320312 -8 160.153320312 -8 149.76953125 5.5 c 128,-1,28
 139.38671875 19 139.38671875 19 144.465820312 41 c 128,-1,29
 149.544921875 63 149.544921875 63 166.276367188 77 c 128,-1,21
 183.008789062 91 183.008789062 91 205.008789062 91 c 128,-1,22
EndSplineSet
Substitution2: "'smcp' Lowercase to Small Capitals lookup 12 subtable" question.sc
Substitution2: "'c2sc' Capitals to Small Capitals lookup 11 subtable" question.sc
Substitution2: "'aalt' Access All Alternates lookup 0 subtable" question.sc
EndChar

StartChar: at
Encoding: 64 64 35
Width: 970
GlyphClass: 2
Flags: W
LayerCount: 2
Fore
SplineSet
585.296875 664 m 0,0,1
 690.296875 664 690.296875 664 762.677734375 631 c 128,-1,2
 835.059570312 598 835.059570312 598 869.284179688 540.5 c 128,-1,3
 903.509765625 483 903.509765625 483 910.88671875 411 c 128,-1,4
 918.264648438 339 918.264648438 339 898.87109375 255 c 0,5,6
 870.705078125 133 870.705078125 133 811.044921875 63 c 128,-1,7
 751.383789062 -7 751.383789062 -7 676.383789062 -7 c 0,8,9
 578.383789062 -7 578.383789062 -7 592.471679688 106 c 1,10,11
 556.697265625 55 556.697265625 55 502.88671875 25.5 c 128,-1,12
 449.076171875 -4 449.076171875 -4 385.076171875 -4 c 0,13,14
 302.076171875 -4 302.076171875 -4 262.813476562 55.5 c 128,-1,15
 223.549804688 115 223.549804688 115 246.63671875 215 c 0,16,17
 273.186523438 330 273.186523438 330 355.231445312 399.5 c 128,-1,18
 437.27734375 469 437.27734375 469 532.27734375 469 c 0,19,20
 661.27734375 469 661.27734375 469 672.34375 361 c 1,21,-1
 707.737304688 458 l 1,22,-1
 746.737304688 458 l 1,23,-1
 648.783203125 142 l 2,24,25
 616.849609375 34 616.849609375 34 694.849609375 34 c 0,26,27
 746.849609375 34 746.849609375 34 788.008789062 91 c 128,-1,28
 829.168945312 148 829.168945312 148 853.87109375 255 c 0,29,30
 891.041015625 416 891.041015625 416 823.205078125 518.5 c 128,-1,31
 755.369140625 621 755.369140625 621 575.369140625 621 c 0,32,33
 397.369140625 621 397.369140625 621 268.78125 514.5 c 128,-1,34
 140.194335938 408 140.194335938 408 98.4072265625 227 c 0,35,36
 58.236328125 53 58.236328125 53 139.1875 -49 c 128,-1,37
 220.138671875 -151 220.138671875 -151 387.138671875 -151 c 0,38,39
 523.138671875 -151 523.138671875 -151 626.530273438 -80 c 1,40,-1
 644.680664062 -114 l 1,41,42
 521.211914062 -194 521.211914062 -194 377.211914062 -194 c 0,43,44
 185.211914062 -194 185.211914062 -194 95.6455078125 -79.5 c 128,-1,45
 6.080078125 35 6.080078125 35 50.4072265625 227 c 0,46,47
 95.6572265625 423 95.6572265625 423 241.9765625 543.5 c 128,-1,48
 388.296875 664 388.296875 664 585.296875 664 c 0,0,1
527.349609375 426 m 0,49,50
 445.349609375 426 445.349609375 426 382.920898438 370 c 128,-1,51
 320.4921875 314 320.4921875 314 298.098632812 217 c 0,52,53
 279.166992188 135 279.166992188 135 309.201171875 87.5 c 128,-1,54
 339.234375 40 339.234375 40 410.234375 40 c 0,55,56
 480.234375 40 480.234375 40 538.469726562 86.5 c 128,-1,57
 596.705078125 133 596.705078125 133 620.712890625 211 c 2,58,-1
 634.640625 254 l 2,59,60
 657.186523438 330 657.186523438 330 631.268554688 378 c 128,-1,61
 605.349609375 426 605.349609375 426 527.349609375 426 c 0,49,50
EndSplineSet
Substitution2: "'case' Case-Sensitive Forms lookup 29 subtable" at.case
Substitution2: "'aalt' Access All Alternates lookup 0 subtable" at.case
EndChar

StartChar: A
Encoding: 65 65 36
Width: 633
GlyphClass: 2
Flags: W
LayerCount: 2
Fore
SplineSet
488 0 m 1,0,-1
 454.404296875 201 l 1,1,-1
 142.404296875 201 l 1,2,-1
 17 0 l 1,3,-1
 -43 0 l 1,4,-1
 371.373046875 660 l 1,5,-1
 439.373046875 660 l 1,6,-1
 548 0 l 1,7,-1
 488 0 l 1,0,-1
175.640625 254 m 1,8,-1
 445.640625 254 l 1,9,-1
 401.12890625 529 l 1,10,-1
 392.674804688 605 l 1,11,-1
 390.674804688 605 l 1,12,-1
 349.822265625 532 l 1,13,-1
 175.640625 254 l 1,8,-1
EndSplineSet
Substitution2: "Single Substitution lookup 56 subtable" A.swsh
Substitution2: "Single Substitution lookup 55 subtable" ordfeminine
Substitution2: "'swsh' Swash lookup 32 subtable" A.swsh
Substitution2: "'c2sc' Capitals to Small Capitals lookup 11 subtable" a.sc
AlternateSubs2: "'aalt' Access All Alternates lookup 1 subtable" a.sc ordfeminine A.swsh
EndChar

StartChar: B
Encoding: 66 66 37
Width: 637
GlyphClass: 2
Flags: W
LayerCount: 2
Fore
SplineSet
41 0 m 1,0,-1
 193.373046875 660 l 1,1,-1
 427.373046875 660 l 2,2,3
 535.373046875 660 535.373046875 660 578.868164062 614.5 c 128,-1,4
 622.364257812 569 622.364257812 569 602.509765625 483 c 0,5,6
 589.581054688 427 589.581054688 427 549.345703125 387 c 128,-1,7
 509.111328125 347 509.111328125 347 450.340820312 335 c 1,8,-1
 450.110351562 334 l 1,9,10
 510.801757812 324 510.801757812 324 537.489257812 281.5 c 128,-1,11
 564.177734375 239 564.177734375 239 550.325195312 179 c 0,12,13
 530.932617188 95 530.932617188 95 458.965820312 47.5 c 128,-1,14
 387 0 387 0 274 0 c 2,15,-1
 41 0 l 1,0,-1
180.881835938 359 m 1,16,-1
 357.881835938 359 l 2,17,18
 514.881835938 359 514.881835938 359 543.509765625 483 c 128,-1,19
 572.13671875 607 572.13671875 607 415.13671875 607 c 2,20,-1
 238.13671875 607 l 1,21,-1
 180.881835938 359 l 1,16,-1
110.236328125 53 m 1,22,-1
 298.236328125 53 l 2,23,24
 462.236328125 53 462.236328125 53 491.556640625 180 c 0,25,26
 520.645507812 306 520.645507812 306 356.645507812 306 c 2,27,-1
 168.645507812 306 l 1,28,-1
 110.236328125 53 l 1,22,-1
EndSplineSet
Substitution2: "'c2sc' Capitals to Small Capitals lookup 11 subtable" b.sc
Substitution2: "'aalt' Access All Alternates lookup 0 subtable" b.sc
EndChar

StartChar: C
Encoding: 67 67 38
Width: 673
GlyphClass: 2
Flags: W
LayerCount: 2
Fore
SplineSet
603.786132812 168 m 1,0,1
 555.392578125 84 555.392578125 84 475.041992188 37 c 128,-1,2
 394.69140625 -10 394.69140625 -10 298.69140625 -10 c 0,3,4
 160.69140625 -10 160.69140625 -10 100.431640625 82 c 128,-1,5
 40.1708984375 174 40.1708984375 174 76.1865234375 330 c 128,-1,6
 112.202148438 486 112.202148438 486 215.44140625 578 c 128,-1,7
 318.681640625 670 318.681640625 670 454.681640625 670 c 0,8,9
 651.681640625 670 651.681640625 670 673.51171875 509 c 1,10,-1
 611.509765625 483 l 1,11,12
 595.4453125 617 595.4453125 617 446.4453125 617 c 0,13,14
 335.4453125 617 335.4453125 617 250.668945312 540 c 128,-1,15
 165.891601562 463 165.891601562 463 135.186523438 330 c 128,-1,16
 104.481445312 197 104.481445312 197 152.204101562 120 c 128,-1,17
 199.927734375 43 199.927734375 43 310.927734375 43 c 0,18,19
 387.927734375 43 387.927734375 43 451.084960938 80.5 c 128,-1,20
 514.2421875 118 514.2421875 118 552.633789062 189 c 1,21,-1
 603.786132812 168 l 1,0,1
EndSplineSet
Substitution2: "'c2sc' Capitals to Small Capitals lookup 11 subtable" c.sc
Substitution2: "'aalt' Access All Alternates lookup 0 subtable" c.sc
EndChar

StartChar: D
Encoding: 68 68 39
Width: 708
GlyphClass: 2
Flags: W
LayerCount: 2
Fore
SplineSet
402.373046875 660 m 2,0,1
 560.373046875 660 560.373046875 660 626.98046875 576 c 128,-1,2
 693.586914062 492 693.586914062 492 657.110351562 334 c 0,3,4
 619.940429688 173 619.940429688 173 513.969726562 86.5 c 128,-1,5
 408 0 408 0 250 0 c 2,6,-1
 41 0 l 1,7,-1
 193.373046875 660 l 1,8,-1
 402.373046875 660 l 2,0,1
267.236328125 53 m 2,9,10
 394.236328125 53 394.236328125 53 480.08984375 126 c 128,-1,11
 565.942382812 199 565.942382812 199 597.110351562 334 c 0,12,13
 627.353515625 465 627.353515625 465 574.745117188 536 c 128,-1,14
 522.13671875 607 522.13671875 607 395.13671875 607 c 2,15,-1
 238.13671875 607 l 1,16,-1
 110.236328125 53 l 1,17,-1
 267.236328125 53 l 2,9,10
EndSplineSet
Substitution2: "'c2sc' Capitals to Small Capitals lookup 11 subtable" d.sc
Substitution2: "'aalt' Access All Alternates lookup 0 subtable" d.sc
EndChar

StartChar: E
Encoding: 69 69 40
Width: 618
GlyphClass: 2
Flags: W
AnchorPoint: "Anchor-0" 267 0 basechar 0
LayerCount: 2
Fore
SplineSet
110.236328125 53 m 1,0,-1
 522.236328125 53 l 1,1,-1
 510 0 l 1,2,-1
 41 0 l 1,3,-1
 193.373046875 660 l 1,4,-1
 646.373046875 660 l 1,5,-1
 634.13671875 607 l 1,6,-1
 238.13671875 607 l 1,7,-1
 181.57421875 362 l 1,8,-1
 493.57421875 362 l 1,9,-1
 481.337890625 309 l 1,10,-1
 169.337890625 309 l 1,11,-1
 110.236328125 53 l 1,0,-1
EndSplineSet
Substitution2: "Single Substitution lookup 57 subtable" E.swsh.001
Substitution2: "Single Substitution lookup 56 subtable" E.swsh
AlternateSubs2: "'swsh' Swash lookup 33 subtable" E.swsh E.swsh.001
Substitution2: "'c2sc' Capitals to Small Capitals lookup 11 subtable" e.sc
AlternateSubs2: "'aalt' Access All Alternates lookup 1 subtable" e.sc E.swsh E.swsh.001
EndChar

StartChar: F
Encoding: 70 70 41
Width: 590
GlyphClass: 2
Flags: W
LayerCount: 2
Fore
SplineSet
633.13671875 607 m 1,0,-1
 238.13671875 607 l 1,1,-1
 181.57421875 362 l 1,2,-1
 493.57421875 362 l 1,3,-1
 481.337890625 309 l 1,4,-1
 169.337890625 309 l 1,5,-1
 98 0 l 1,6,-1
 41 0 l 1,7,-1
 193.373046875 660 l 1,8,-1
 645.373046875 660 l 1,9,-1
 633.13671875 607 l 1,0,-1
EndSplineSet
Substitution2: "Single Substitution lookup 56 subtable" F.swsh
Substitution2: "'swsh' Swash lookup 34 subtable" F.swsh
Substitution2: "'c2sc' Capitals to Small Capitals lookup 11 subtable" f.sc
AlternateSubs2: "'aalt' Access All Alternates lookup 1 subtable" f.sc F.swsh
EndChar

StartChar: G
Encoding: 71 71 42
Width: 707
GlyphClass: 2
Flags: W
AnchorPoint: "Anchor-0" 322 0 basechar 0
LayerCount: 2
Fore
SplineSet
370.032226562 325 m 1,0,-1
 643.032226562 325 l 1,1,-1
 568 0 l 1,2,-1
 524 0 l 1,3,-1
 546.93359375 108 l 1,4,5
 461.69140625 -10 461.69140625 -10 297.69140625 -10 c 0,6,7
 159.69140625 -10 159.69140625 -10 99.8154296875 81.5 c 128,-1,8
 39.9404296875 173 39.9404296875 173 76.1865234375 330 c 0,9,10
 112.202148438 486 112.202148438 486 215.94140625 578 c 128,-1,11
 319.681640625 670 319.681640625 670 456.681640625 670 c 0,12,13
 652.681640625 670 652.681640625 670 680.973632812 511 c 1,14,-1
 623.509765625 483 l 1,15,16
 607.4453125 617 607.4453125 617 444.4453125 617 c 0,17,18
 334.4453125 617 334.4453125 617 250.053710938 539.5 c 128,-1,19
 165.661132812 462 165.661132812 462 135.186523438 330 c 0,20,21
 104.25 196 104.25 196 150.588867188 119.5 c 128,-1,22
 196.927734375 43 196.927734375 43 311.927734375 43 c 0,23,24
 413.927734375 43 413.927734375 43 482.85546875 99 c 128,-1,25
 551.784179688 155 551.784179688 155 570.946289062 238 c 2,26,-1
 578.795898438 272 l 1,27,-1
 357.795898438 272 l 1,28,-1
 370.032226562 325 l 1,0,-1
EndSplineSet
Substitution2: "'ss04' Style Set 4 lookup 50 subtable" G.ss04
Substitution2: "'salt' Stylistic Alternatives lookup 42 subtable" G.ss04
Substitution2: "'c2sc' Capitals to Small Capitals lookup 11 subtable" g.sc
AlternateSubs2: "'aalt' Access All Alternates lookup 1 subtable" g.sc G.ss04
EndChar

StartChar: H
Encoding: 72 72 43
Width: 720
GlyphClass: 2
Flags: W
LayerCount: 2
Fore
SplineSet
647.373046875 660 m 1,0,-1
 704.373046875 660 l 1,1,-1
 552 0 l 1,2,-1
 495 0 l 1,3,-1
 566.337890625 309 l 1,4,-1
 169.337890625 309 l 1,5,-1
 98 0 l 1,6,-1
 41 0 l 1,7,-1
 193.373046875 660 l 1,8,-1
 250.373046875 660 l 1,9,-1
 181.57421875 362 l 1,10,-1
 578.57421875 362 l 1,11,-1
 647.373046875 660 l 1,0,-1
EndSplineSet
Substitution2: "'sups' Superscript lookup 15 subtable" Hsuperior
Substitution2: "'subs' Subscript lookup 14 subtable" Hinferior
Substitution2: "'sinf' Scientific Inferiors lookup 13 subtable" Hinferior
Substitution2: "'c2sc' Capitals to Small Capitals lookup 11 subtable" h.sc
AlternateSubs2: "'aalt' Access All Alternates lookup 1 subtable" h.sc Hinferior Hsuperior
EndChar

StartChar: I
Encoding: 73 73 44
Width: 267
GlyphClass: 2
Flags: W
LayerCount: 2
Fore
SplineSet
250.373046875 660 m 1,0,-1
 98 0 l 1,1,-1
 41 0 l 1,2,-1
 193.373046875 660 l 1,3,-1
 250.373046875 660 l 1,0,-1
EndSplineSet
Substitution2: "'c2sc' Capitals to Small Capitals lookup 11 subtable" i.sc
Substitution2: "'aalt' Access All Alternates lookup 0 subtable" i.sc
EndChar

StartChar: J
Encoding: 74 74 45
Width: 542
GlyphClass: 2
Flags: W
LayerCount: 2
Fore
SplineSet
532.373046875 660 m 1,0,-1
 430.791015625 220 l 2,1,2
 405.857421875 112 405.857421875 112 335.774414062 51 c 128,-1,3
 265.69140625 -10 265.69140625 -10 164.69140625 -10 c 0,4,5
 57.69140625 -10 57.69140625 -10 21.54296875 50 c 128,-1,6
 -14.6044921875 110 -14.6044921875 110 26.9443359375 212 c 1,7,-1
 82.71484375 224 l 1,8,9
 16.927734375 43 16.927734375 43 174.927734375 43 c 0,10,11
 257.927734375 43 257.927734375 43 306.508789062 91 c 128,-1,12
 355.090820312 139 355.090820312 139 376.791992188 233 c 2,13,-1
 475.373046875 660 l 1,14,-1
 532.373046875 660 l 1,0,-1
EndSplineSet
Substitution2: "'c2sc' Capitals to Small Capitals lookup 11 subtable" j.sc
Substitution2: "'aalt' Access All Alternates lookup 0 subtable" j.sc
EndChar

StartChar: K
Encoding: 75 75 46
Width: 620
GlyphClass: 2
Flags: W
AnchorPoint: "Anchor-0" 290 0 basechar 0
LayerCount: 2
Fore
SplineSet
465 0 m 1,0,-1
 307.03515625 351 l 1,1,-1
 148.791015625 220 l 1,2,-1
 98 0 l 1,3,-1
 41 0 l 1,4,-1
 193.373046875 660 l 1,5,-1
 250.373046875 660 l 1,6,-1
 166.567382812 297 l 1,7,-1
 605.373046875 660 l 1,8,-1
 680.373046875 660 l 1,9,-1
 357.731445312 393 l 1,10,-1
 534 0 l 1,11,-1
 465 0 l 1,0,-1
EndSplineSet
Substitution2: "'c2sc' Capitals to Small Capitals lookup 11 subtable" k.sc
Substitution2: "'aalt' Access All Alternates lookup 0 subtable" k.sc
EndChar

StartChar: L
Encoding: 76 76 47
Width: 578
GlyphClass: 2
Flags: W
AnchorPoint: "Anchor-0" 287 0 basechar 0
LayerCount: 2
Fore
SplineSet
110.236328125 53 m 1,0,-1
 501.236328125 53 l 1,1,-1
 489 0 l 1,2,-1
 41 0 l 1,3,-1
 193.373046875 660 l 1,4,-1
 250.373046875 660 l 1,5,-1
 110.236328125 53 l 1,0,-1
EndSplineSet
Substitution2: "Single Substitution lookup 57 subtable" L.swsh
Substitution2: "'swsh' Swash lookup 34 subtable" L.swsh
Substitution2: "'c2sc' Capitals to Small Capitals lookup 11 subtable" l.sc
AlternateSubs2: "'aalt' Access All Alternates lookup 1 subtable" l.sc L.swsh
Position2: "Single Positioning lookup 6 subtable" dx=0 dy=0 dh=-152 dv=0
EndChar

StartChar: M
Encoding: 77 77 48
Width: 830
GlyphClass: 2
Flags: W
LayerCount: 2
Fore
SplineSet
813.373046875 660 m 1,0,-1
 661 0 l 1,1,-1
 606 0 l 1,2,-1
 715.431640625 474 l 1,3,-1
 751.90625 606 l 1,4,-1
 376 0 l 1,5,-1
 325 0 l 1,6,-1
 229.90625 606 l 1,7,-1
 228.90625 606 l 1,8,-1
 204.431640625 474 l 1,9,-1
 95 0 l 1,10,-1
 41 0 l 1,11,-1
 193.373046875 660 l 1,12,-1
 279.373046875 660 l 1,13,-1
 356.249023438 183 l 1,14,-1
 365.467773438 67 l 1,15,-1
 366.467773438 67 l 1,16,-1
 430.017578125 182 l 1,17,-1
 726.373046875 660 l 1,18,-1
 813.373046875 660 l 1,0,-1
EndSplineSet
Substitution2: "Single Substitution lookup 56 subtable" M.swsh
AlternateSubs2: "'swsh' Swash lookup 35 subtable" M.swsh M.swsh.001
Substitution2: "'c2sc' Capitals to Small Capitals lookup 11 subtable" m.sc
AlternateSubs2: "'aalt' Access All Alternates lookup 1 subtable" m.sc M.swsh M.swsh.001
EndChar

StartChar: N
Encoding: 78 78 49
Width: 720
GlyphClass: 2
Flags: W
AnchorPoint: "Anchor-0" 315 0 basechar 0
LayerCount: 2
Fore
SplineSet
703.373046875 660 m 1,0,-1
 551 0 l 1,1,-1
 480 0 l 1,2,-1
 262.665039062 501 l 1,3,-1
 231.059570312 598 l 1,4,-1
 230.059570312 598 l 1,5,-1
 212.51171875 509 l 1,6,-1
 95 0 l 1,7,-1
 41 0 l 1,8,-1
 193.373046875 660 l 1,9,-1
 264.373046875 660 l 1,10,-1
 481.169921875 161 l 1,11,-1
 513.313476562 62 l 1,12,-1
 530.861328125 151 l 1,13,-1
 648.373046875 660 l 1,14,-1
 703.373046875 660 l 1,0,-1
EndSplineSet
Substitution2: "Single Substitution lookup 57 subtable" N.swsh
Substitution2: "'swsh' Swash lookup 36 subtable" N.swsh
Substitution2: "'c2sc' Capitals to Small Capitals lookup 11 subtable" n.sc
AlternateSubs2: "'aalt' Access All Alternates lookup 1 subtable" n.sc N.swsh
EndChar

StartChar: O
Encoding: 79 79 50
Width: 736
GlyphClass: 2
Flags: W
LayerCount: 2
Fore
SplineSet
458.681640625 670 m 128,-1,1
 598.681640625 670 598.681640625 670 659.557617188 578.5 c 128,-1,2
 720.432617188 487 720.432617188 487 684.186523438 330 c 128,-1,3
 647.940429688 173 647.940429688 173 544.815429688 81.5 c 128,-1,4
 441.69140625 -10 441.69140625 -10 301.69140625 -10 c 128,-1,5
 161.69140625 -10 161.69140625 -10 100.815429688 81.5 c 128,-1,6
 39.9404296875 173 39.9404296875 173 76.1865234375 330 c 128,-1,7
 112.432617188 487 112.432617188 487 215.557617188 578.5 c 128,-1,0
 318.681640625 670 318.681640625 670 458.681640625 670 c 128,-1,1
446.4453125 617 m 128,-1,9
 333.4453125 617 333.4453125 617 249.668945312 540 c 128,-1,10
 165.891601562 463 165.891601562 463 135.186523438 330 c 128,-1,11
 104.481445312 197 104.481445312 197 152.704101562 120 c 128,-1,12
 200.927734375 43 200.927734375 43 313.927734375 43 c 128,-1,13
 426.927734375 43 426.927734375 43 510.704101562 120 c 128,-1,14
 594.481445312 197 594.481445312 197 625.186523438 330 c 128,-1,15
 655.891601562 463 655.891601562 463 607.668945312 540 c 128,-1,8
 559.4453125 617 559.4453125 617 446.4453125 617 c 128,-1,9
EndSplineSet
Substitution2: "Single Substitution lookup 55 subtable" ordmasculine
Substitution2: "'nalt' Alternate Annotation Forms lookup 23 subtable" indexring
Substitution2: "'sups' Superscript lookup 15 subtable" Osuperior
Substitution2: "'subs' Subscript lookup 14 subtable" Oinferior
Substitution2: "'sinf' Scientific Inferiors lookup 13 subtable" Oinferior
Substitution2: "'c2sc' Capitals to Small Capitals lookup 11 subtable" o.sc
AlternateSubs2: "'aalt' Access All Alternates lookup 1 subtable" o.sc Oinferior Osuperior ordmasculine indexring
EndChar

StartChar: P
Encoding: 80 80 51
Width: 592
GlyphClass: 2
Flags: W
LayerCount: 2
Fore
SplineSet
415.373046875 660 m 2,0,1
 517.373046875 660 517.373046875 660 565.751953125 607.5 c 128,-1,2
 614.131835938 555 614.131835938 555 593.353515625 465 c 128,-1,3
 572.575195312 375 572.575195312 375 499.955078125 322.5 c 128,-1,4
 427.333984375 270 427.333984375 270 325.333984375 270 c 2,5,-1
 160.333984375 270 l 1,6,-1
 98 0 l 1,7,-1
 41 0 l 1,8,-1
 193.373046875 660 l 1,9,-1
 415.373046875 660 l 2,0,1
330.5703125 323 m 2,10,11
 414.5703125 323 414.5703125 323 466.497070312 359.5 c 128,-1,12
 518.423828125 396 518.423828125 396 534.353515625 465 c 128,-1,13
 550.283203125 534 550.283203125 534 515.209960938 570.5 c 128,-1,14
 480.13671875 607 480.13671875 607 396.13671875 607 c 2,15,-1
 238.13671875 607 l 1,16,-1
 172.5703125 323 l 1,17,-1
 330.5703125 323 l 2,10,11
EndSplineSet
Substitution2: "'c2sc' Capitals to Small Capitals lookup 11 subtable" p.sc
Substitution2: "'aalt' Access All Alternates lookup 0 subtable" p.sc
EndChar

StartChar: Q
Encoding: 81 81 52
Width: 736
GlyphClass: 2
Flags: W
LayerCount: 2
Fore
SplineSet
440.140625 -138 m 0,0,1
 516.140625 -138 516.140625 -138 561.682617188 -101 c 1,2,-1
 569.676757812 -153 l 1,3,4
 512.98046875 -195 512.98046875 -195 425.98046875 -195 c 0,5,6
 345.98046875 -195 345.98046875 -195 303.985351562 -149.5 c 128,-1,7
 261.989257812 -104 261.989257812 -104 277.921875 -9 c 1,8,9
 149.76953125 -1 149.76953125 -1 95.6630859375 89.5 c 128,-1,10
 41.556640625 180 41.556640625 180 76.1865234375 330 c 0,11,12
 112.432617188 487 112.432617188 487 215.557617188 578.5 c 128,-1,13
 318.681640625 670 318.681640625 670 458.681640625 670 c 128,-1,14
 598.681640625 670 598.681640625 670 659.557617188 578.5 c 128,-1,15
 720.432617188 487 720.432617188 487 684.186523438 330 c 0,16,17
 649.787109375 181 649.787109375 181 554.893554688 90.5 c 128,-1,18
 460 0 460 0 328.921875 -9 c 1,19,20
 309.140625 -138 309.140625 -138 440.140625 -138 c 0,0,1
135.186523438 330 m 128,-1,22
 104.481445312 197 104.481445312 197 152.704101562 120 c 128,-1,23
 200.927734375 43 200.927734375 43 313.927734375 43 c 128,-1,24
 426.927734375 43 426.927734375 43 510.704101562 120 c 128,-1,25
 594.481445312 197 594.481445312 197 625.186523438 330 c 128,-1,26
 655.891601562 463 655.891601562 463 607.668945312 540 c 128,-1,27
 559.4453125 617 559.4453125 617 446.4453125 617 c 128,-1,28
 333.4453125 617 333.4453125 617 249.668945312 540 c 128,-1,21
 165.891601562 463 165.891601562 463 135.186523438 330 c 128,-1,22
EndSplineSet
Substitution2: "'c2sc' Capitals to Small Capitals lookup 11 subtable" q.sc
Substitution2: "'aalt' Access All Alternates lookup 0 subtable" q.sc
EndChar

StartChar: R
Encoding: 82 82 53
Width: 640
GlyphClass: 2
Flags: W
AnchorPoint: "Anchor-0" 294 0 basechar 0
LayerCount: 2
Fore
SplineSet
41 0 m 5,0,-1
 193.373046875 660 l 5,1,-1
 439.373046875 660 l 6,2,3
 538.373046875 660 538.373046875 660 586.213867188 609.5 c 132,-1,4
 634.055664062 559 634.055664062 559 613.969726562 472 c 4,5,6
 598.501953125 405 598.501953125 405 550.84375 361 c 132,-1,7
 503.185546875 317 503.185546875 317 432.953125 303 c 5,8,-1
 432.72265625 302 l 5,9,10
 546.3359375 283 546.3359375 283 523.631835938 163 c 4,11,12
 513.010742188 104 513.010742188 104 509.9296875 69 c 132,-1,13
 506.849609375 34 506.849609375 34 508.541015625 24 c 132,-1,14
 510.232421875 14 510.232421875 14 515.692382812 3 c 5,15,-1
 515 0 l 5,16,-1
 453 0 l 5,17,18
 444.465820312 41 444.465820312 41 465.015625 156 c 4,19,20
 489.3359375 283 489.3359375 283 337.3359375 283 c 6,21,-1
 163.3359375 283 l 5,22,-1
 98 0 l 5,23,-1
 41 0 l 5,0,-1
175.571289062 336 m 5,24,-1
 363.571289062 336 l 6,25,26
 441.571289062 336 441.571289062 336 490.15234375 371 c 132,-1,27
 538.732421875 406 538.732421875 406 553.969726562 472 c 132,-1,28
 569.20703125 538 569.20703125 538 536.671875 572.5 c 132,-1,29
 504.13671875 607 504.13671875 607 426.13671875 607 c 6,30,-1
 238.13671875 607 l 5,31,-1
 175.571289062 336 l 5,24,-1
EndSplineSet
Substitution2: "Single Substitution lookup 57 subtable" R.swsh.001
Substitution2: "Single Substitution lookup 56 subtable" R.swsh
Substitution2: "'ss03' Style Set 3 lookup 49 subtable" R.ss03
Substitution2: "'salt' Stylistic Alternatives lookup 42 subtable" R.ss03
AlternateSubs2: "'swsh' Swash lookup 37 subtable" R.swsh R.swsh.001
Substitution2: "'c2sc' Capitals to Small Capitals lookup 11 subtable" r.sc
AlternateSubs2: "'aalt' Access All Alternates lookup 1 subtable" r.sc R.swsh R.swsh.001 R.ss03
EndChar

StartChar: S
Encoding: 83 83 54
Width: 624
GlyphClass: 2
Flags: W
AnchorPoint: "Anchor-0" 278 0 basechar 0
LayerCount: 2
Fore
SplineSet
401.681640625 670 m 0,0,1
 585.681640625 670 585.681640625 670 618.206054688 525 c 1,2,-1
 560.202148438 486 l 1,3,4
 550.131835938 555 550.131835938 555 509.7890625 586 c 128,-1,5
 469.4453125 617 469.4453125 617 390.4453125 617 c 0,6,7
 305.4453125 617 305.4453125 617 247.903320312 580 c 128,-1,8
 190.361328125 543 190.361328125 543 177.202148438 486 c 0,9,10
 164.735351562 432 164.735351562 432 201.924804688 402.5 c 128,-1,11
 239.114257812 373 239.114257812 373 349.49609375 353 c 0,12,13
 473.6484375 332 473.6484375 332 517.8359375 289.5 c 128,-1,14
 562.024414062 247 562.024414062 247 544.708984375 172 c 0,15,16
 525.778320312 90 525.778320312 90 445.734375 40 c 128,-1,17
 365.69140625 -10 365.69140625 -10 253.69140625 -10 c 0,18,19
 150.69140625 -10 150.69140625 -10 88.6572265625 31 c 128,-1,20
 26.6220703125 72 26.6220703125 72 15.4755859375 145 c 1,21,-1
 73.4794921875 184 l 1,22,23
 79.7802734375 116 79.7802734375 116 129.854492188 79.5 c 128,-1,24
 179.927734375 43 179.927734375 43 266.927734375 43 c 0,25,26
 351.927734375 43 351.927734375 43 411.661132812 76.5 c 128,-1,27
 471.395507812 110 471.395507812 110 485.016601562 169 c 0,28,29
 496.791015625 220 496.791015625 220 460.216796875 250 c 128,-1,30
 423.643554688 280 423.643554688 280 319.798828125 298 c 0,31,32
 190.108398438 321 190.108398438 321 144.3046875 363 c 128,-1,33
 98.501953125 405 98.501953125 405 115.81640625 480 c 0,34,35
 134.286132812 560 134.286132812 560 212.984375 615 c 128,-1,36
 291.681640625 670 291.681640625 670 401.681640625 670 c 0,0,1
EndSplineSet
Substitution2: "Single Substitution lookup 57 subtable" S.swsh
Substitution2: "Single Substitution lookup 56 subtable" S.swsh
Substitution2: "'swsh' Swash lookup 38 subtable" S.swsh
Substitution2: "'c2sc' Capitals to Small Capitals lookup 11 subtable" s.sc
AlternateSubs2: "'aalt' Access All Alternates lookup 1 subtable" s.sc S.swsh
EndChar

StartChar: T
Encoding: 84 84 55
Width: 582
GlyphClass: 2
Flags: W
AnchorPoint: "Anchor-0" 239 0 basechar 0
LayerCount: 2
Fore
SplineSet
646.373046875 660 m 1,0,-1
 634.13671875 607 l 1,1,-1
 396.13671875 607 l 1,2,-1
 256 0 l 1,3,-1
 199 0 l 1,4,-1
 339.13671875 607 l 1,5,-1
 100.13671875 607 l 1,6,-1
 112.373046875 660 l 1,7,-1
 646.373046875 660 l 1,0,-1
EndSplineSet
Substitution2: "Single Substitution lookup 56 subtable" T.swsh
Substitution2: "'swsh' Swash lookup 38 subtable" T.swsh
Substitution2: "'c2sc' Capitals to Small Capitals lookup 11 subtable" t.sc
AlternateSubs2: "'aalt' Access All Alternates lookup 1 subtable" t.sc T.swsh
EndChar

StartChar: U
Encoding: 85 85 56
Width: 706
GlyphClass: 2
Flags: W
LayerCount: 2
Fore
SplineSet
696.373046875 660 m 1,0,-1
 599.870117188 242 l 2,1,2
 571.473632812 119 571.473632812 119 490.58203125 54.5 c 128,-1,3
 409.69140625 -10 409.69140625 -10 286.69140625 -10 c 128,-1,4
 163.69140625 -10 163.69140625 -10 112.08203125 54.5 c 128,-1,5
 60.4736328125 119 60.4736328125 119 88.8701171875 242 c 2,6,-1
 185.373046875 660 l 1,7,-1
 242.373046875 660 l 1,8,-1
 148.87109375 255 l 2,9,10
 99.927734375 43 99.927734375 43 298.927734375 43 c 0,11,12
 496.927734375 43 496.927734375 43 545.87109375 255 c 2,13,-1
 639.373046875 660 l 1,14,-1
 696.373046875 660 l 1,0,-1
EndSplineSet
Substitution2: "'c2sc' Capitals to Small Capitals lookup 11 subtable" u.sc
Substitution2: "'aalt' Access All Alternates lookup 0 subtable" u.sc
EndChar

StartChar: V
Encoding: 86 86 57
Width: 622
GlyphClass: 2
Flags: W
LayerCount: 2
Fore
SplineSet
686.373046875 660 m 1,0,-1
 280 0 l 1,1,-1
 214 0 l 1,2,-1
 112.373046875 660 l 1,3,-1
 173.373046875 660 l 1,4,-1
 247.400390625 162 l 1,5,-1
 259.236328125 53 l 1,6,-1
 321.169921875 161 l 1,7,-1
 625.373046875 660 l 1,8,-1
 686.373046875 660 l 1,0,-1
EndSplineSet
Substitution2: "'c2sc' Capitals to Small Capitals lookup 11 subtable" v.sc
Substitution2: "'aalt' Access All Alternates lookup 0 subtable" v.sc
EndChar

StartChar: W
Encoding: 87 87 58
Width: 942
GlyphClass: 2
Flags: W
LayerCount: 2
Fore
SplineSet
476.044921875 455 m 1,0,-1
 242 0 l 1,1,-1
 171 0 l 1,2,-1
 119.373046875 660 l 1,3,-1
 181.373046875 660 l 1,4,-1
 217.620117188 46 l 1,5,-1
 528.373046875 660 l 1,6,-1
 593.373046875 660 l 1,7,-1
 620.388671875 45 l 1,8,-1
 941.373046875 660 l 1,9,-1
 999.373046875 660 l 1,10,-1
 644 0 l 1,11,-1
 573 0 l 1,12,-1
 549.044921875 455 l 1,13,-1
 546.290039062 599 l 1,14,-1
 545.290039062 599 l 1,15,-1
 476.044921875 455 l 1,0,-1
EndSplineSet
Substitution2: "Single Substitution lookup 56 subtable" W.swsh
Substitution2: "'swsh' Swash lookup 38 subtable" W.swsh
Substitution2: "'c2sc' Capitals to Small Capitals lookup 11 subtable" w.sc
AlternateSubs2: "'aalt' Access All Alternates lookup 1 subtable" w.sc W.swsh
EndChar

StartChar: X
Encoding: 88 88 59
Width: 574
GlyphClass: 2
Flags: W
LayerCount: 2
Fore
SplineSet
483 0 m 1,0,-1
 417 0 l 1,1,-1
 288.64453125 293 l 1,2,-1
 23 0 l 1,3,-1
 -44 0 l 1,4,-1
 269.033203125 338 l 1,5,-1
 129.373046875 660 l 1,6,-1
 197.373046875 660 l 1,7,-1
 316.883789062 385 l 1,8,-1
 565.373046875 660 l 1,9,-1
 628.373046875 660 l 1,10,-1
 336.495117188 340 l 1,11,-1
 483 0 l 1,0,-1
EndSplineSet
Substitution2: "'c2sc' Capitals to Small Capitals lookup 11 subtable" x.sc
Substitution2: "'aalt' Access All Alternates lookup 0 subtable" x.sc
EndChar

StartChar: Y
Encoding: 89 89 60
Width: 550
GlyphClass: 2
Flags: W
LayerCount: 2
Fore
SplineSet
626.373046875 660 m 1,0,-1
 299.333007812 257 l 1,1,-1
 240 0 l 1,2,-1
 183 0 l 1,3,-1
 242.333007812 257 l 1,4,-1
 100.373046875 660 l 1,5,-1
 168.373046875 660 l 1,6,-1
 283.954101562 316 l 1,7,-1
 559.373046875 660 l 1,8,-1
 626.373046875 660 l 1,0,-1
EndSplineSet
Substitution2: "'c2sc' Capitals to Small Capitals lookup 11 subtable" y.sc
Substitution2: "'aalt' Access All Alternates lookup 0 subtable" y.sc
EndChar

StartChar: Z
Encoding: 90 90 61
Width: 602
GlyphClass: 2
Flags: W
LayerCount: 2
Fore
SplineSet
61.236328125 53 m 1,0,-1
 506.236328125 53 l 1,1,-1
 494 0 l 1,2,-1
 -18 0 l 1,3,-1
 -6.2255859375 51 l 1,4,-1
 551.13671875 607 l 1,5,-1
 131.13671875 607 l 1,6,-1
 143.373046875 660 l 1,7,-1
 631.373046875 660 l 1,8,-1
 619.598632812 609 l 1,9,-1
 61.236328125 53 l 1,0,-1
EndSplineSet
Substitution2: "'c2sc' Capitals to Small Capitals lookup 11 subtable" z.sc
Substitution2: "'aalt' Access All Alternates lookup 0 subtable" z.sc
EndChar

StartChar: bracketleft
Encoding: 91 91 62
Width: 319
GlyphClass: 2
Flags: W
LayerCount: 2
Fore
SplineSet
386.990234375 680 m 1,0,-1
 228.990234375 680 l 1,1,-1
 44.7578125 -118 l 1,2,-1
 202.7578125 -118 l 1,3,-1
 191.213867188 -168 l 1,4,-1
 -19.7861328125 -168 l 1,5,-1
 187.534179688 730 l 1,6,-1
 398.534179688 730 l 1,7,-1
 386.990234375 680 l 1,0,-1
EndSplineSet
Substitution2: "'case' Case-Sensitive Forms lookup 29 subtable" bracketleft.case
Substitution2: "'sups' Superscript lookup 15 subtable" bracketleftsuperior
Substitution2: "'subs' Subscript lookup 14 subtable" bracketleftinferior
Substitution2: "'sinf' Scientific Inferiors lookup 13 subtable" bracketleftinferior
AlternateSubs2: "'aalt' Access All Alternates lookup 1 subtable" bracketleftinferior bracketleftsuperior bracketleft.case
EndChar

StartChar: backslash
Encoding: 92 92 63
Width: 406
GlyphClass: 2
Flags: W
LayerCount: 2
Fore
SplineSet
136.534179688 730 m 1,0,-1
 190.534179688 730 l 1,1,-1
 295.838867188 -70 l 1,2,-1
 240.838867188 -70 l 1,3,-1
 136.534179688 730 l 1,0,-1
EndSplineSet
EndChar

StartChar: bracketright
Encoding: 93 93 64
Width: 319
GlyphClass: 2
Flags: W
LayerCount: 2
Fore
SplineSet
340.534179688 730 m 1,0,-1
 133.213867188 -168 l 1,1,-1
 -77.7861328125 -168 l 1,2,-1
 -66.2421875 -118 l 1,3,-1
 91.7578125 -118 l 1,4,-1
 275.990234375 680 l 1,5,-1
 117.990234375 680 l 1,6,-1
 129.534179688 730 l 1,7,-1
 340.534179688 730 l 1,0,-1
EndSplineSet
Substitution2: "'case' Case-Sensitive Forms lookup 29 subtable" bracketright.case
Substitution2: "'sups' Superscript lookup 15 subtable" bracketrightsuperior
Substitution2: "'subs' Subscript lookup 14 subtable" bracketrightinferior
Substitution2: "'sinf' Scientific Inferiors lookup 13 subtable" bracketrightinferior
AlternateSubs2: "'aalt' Access All Alternates lookup 1 subtable" bracketrightinferior bracketrightsuperior bracketright.case
EndChar

StartChar: asciicircum
Encoding: 94 94 65
Width: 550
GlyphClass: 2
Flags: W
LayerCount: 2
Fore
SplineSet
537.958007812 355 m 1,0,-1
 478.958007812 355 l 1,1,-1
 368.221679688 681 l 1,2,-1
 106.958007812 355 l 1,3,-1
 48.9580078125 355 l 1,4,-1
 351.534179688 730 l 1,5,-1
 407.534179688 730 l 1,6,-1
 537.958007812 355 l 1,0,-1
EndSplineSet
EndChar

StartChar: underscore
Encoding: 95 95 66
Width: 525
GlyphClass: 2
Flags: W
LayerCount: 2
Fore
SplineSet
438.60546875 -97 m 1,0,-1
 426.370117188 -150 l 1,1,-1
 -98.6298828125 -150 l 1,2,-1
 -86.39453125 -97 l 1,3,-1
 438.60546875 -97 l 1,0,-1
EndSplineSet
EndChar

StartChar: grave
Encoding: 96 96 67
Width: 518
GlyphClass: 2
Flags: W
LayerCount: 2
Fore
SplineSet
306.53515625 743 m 1,0,-1
 349.595703125 583 l 1,1,-1
 302.595703125 583 l 1,2,-1
 244.53515625 743 l 1,3,-1
 306.53515625 743 l 1,0,-1
EndSplineSet
EndChar

StartChar: a
Encoding: 97 97 68
Width: 548
GlyphClass: 2
Flags: W
LayerCount: 2
Fore
SplineSet
439.00390625 39 m 0,0,1
 461.00390625 39 461.00390625 39 479.388671875 45 c 1,2,-1
 466 0 l 1,3,4
 443.69140625 -10 443.69140625 -10 411.69140625 -10 c 0,5,6
 335.69140625 -10 335.69140625 -10 346.622070312 72 c 1,7,8
 314.849609375 34 314.849609375 34 260.770507812 12 c 128,-1,9
 206.69140625 -10 206.69140625 -10 151.69140625 -10 c 0,10,11
 77.69140625 -10 77.69140625 -10 39.92578125 23.5 c 128,-1,12
 2.1591796875 57 2.1591796875 57 16.2421875 118 c 0,13,14
 43.7158203125 237 43.7158203125 237 242.333984375 270 c 2,15,-1
 397.336914062 296 l 1,16,-1
 406.571289062 336 l 2,17,18
 419.961914062 394 419.961914062 394 393.081054688 427 c 128,-1,19
 366.19921875 460 366.19921875 460 303.19921875 460 c 0,20,21
 188.19921875 460 188.19921875 460 123.419921875 357 c 1,22,-1
 87.5771484375 388 l 1,23,24
 121.966796875 446 121.966796875 446 181.85546875 478 c 128,-1,25
 241.743164062 510 241.743164062 510 314.743164062 510 c 0,26,27
 401.743164062 510 401.743164062 510 442.930664062 467.5 c 128,-1,28
 484.119140625 425 484.119140625 425 465.1875 343 c 2,29,-1
 406.31640625 88 l 2,30,31
 395.00390625 39 395.00390625 39 439.00390625 39 c 0,0,1
167.234375 40 m 0,32,33
 233.234375 40 233.234375 40 293.353515625 73 c 128,-1,34
 353.471679688 106 353.471679688 106 366.400390625 162 c 2,35,-1
 386.486328125 249 l 1,36,-1
 249.9453125 225 l 2,37,38
 93.7119140625 198 93.7119140625 198 75.2421875 118 c 0,39,40
 66.7001953125 81 66.7001953125 81 90.9677734375 60.5 c 128,-1,41
 115.234375 40 115.234375 40 167.234375 40 c 0,32,33
EndSplineSet
Substitution2: "Single Substitution lookup 55 subtable" ordfeminine
Substitution2: "'smcp' Lowercase to Small Capitals lookup 12 subtable" a.sc
AlternateSubs2: "'aalt' Access All Alternates lookup 1 subtable" a.sc ordfeminine
EndChar

StartChar: b
Encoding: 98 98 69
Width: 614
GlyphClass: 2
Flags: W
LayerCount: 2
Fore
SplineSet
380.743164062 510 m 0,0,1
 486.743164062 510 486.743164062 510 531.8125 441 c 128,-1,2
 576.8828125 372 576.8828125 372 548.716796875 250 c 128,-1,3
 520.55078125 128 520.55078125 128 443.62109375 59 c 128,-1,4
 366.69140625 -10 366.69140625 -10 260.69140625 -10 c 0,5,6
 195.69140625 -10 195.69140625 -10 154.848632812 21 c 128,-1,7
 114.004882812 52 114.004882812 52 104.471679688 106 c 1,8,-1
 77 0 l 1,9,-1
 26 0 l 1,10,-1
 194.534179688 730 l 1,11,-1
 251.534179688 730 l 1,12,-1
 175.578125 401 l 1,13,14
 210.352539062 452 210.352539062 452 264.047851562 481 c 128,-1,15
 317.743164062 510 317.743164062 510 380.743164062 510 c 0,0,1
265.234375 40 m 0,16,17
 349.234375 40 349.234375 40 409.163085938 96 c 128,-1,18
 469.091796875 152 469.091796875 152 491.716796875 250 c 128,-1,19
 514.341796875 348 514.341796875 348 480.270507812 404 c 128,-1,20
 446.19921875 460 446.19921875 460 362.19921875 460 c 0,21,22
 285.19921875 460 285.19921875 460 226.079101562 407.5 c 128,-1,23
 166.958007812 355 166.958007812 355 143.94921875 264 c 2,24,-1
 137.485351562 236 l 2,25,26
 118.475585938 145 118.475585938 145 153.85546875 92.5 c 128,-1,27
 189.234375 40 189.234375 40 265.234375 40 c 0,16,17
EndSplineSet
Substitution2: "'smcp' Lowercase to Small Capitals lookup 12 subtable" b.sc
Substitution2: "'aalt' Access All Alternates lookup 0 subtable" b.sc
EndChar

StartChar: c
Encoding: 99 99 70
Width: 550
GlyphClass: 2
Flags: W
LayerCount: 2
Fore
SplineSet
349.743164062 510 m 0,0,1
 424.743164062 510 424.743164062 510 468.662109375 475 c 128,-1,2
 512.58203125 440 512.58203125 440 521.806640625 376 c 1,3,-1
 461.803710938 350 l 1,4,5
 454.19921875 460 454.19921875 460 336.19921875 460 c 0,6,7
 252.19921875 460 252.19921875 460 191.770507812 404 c 128,-1,8
 131.341796875 348 131.341796875 348 108.716796875 250 c 128,-1,9
 86.091796875 152 86.091796875 152 120.163085938 96 c 128,-1,10
 154.234375 40 154.234375 40 238.234375 40 c 0,11,12
 301.234375 40 301.234375 40 350.776367188 70.5 c 128,-1,13
 400.317382812 101 400.317382812 101 422.784179688 155 c 1,14,-1
 471.62890625 137 l 1,15,16
 434.69921875 68 434.69921875 68 370.6953125 29 c 128,-1,17
 306.69140625 -10 306.69140625 -10 228.69140625 -10 c 0,18,19
 116.69140625 -10 116.69140625 -10 70.12109375 59 c 128,-1,20
 23.55078125 128 23.55078125 128 51.716796875 250 c 128,-1,21
 79.8828125 372 79.8828125 372 158.8125 441 c 128,-1,22
 237.743164062 510 237.743164062 510 349.743164062 510 c 0,0,1
EndSplineSet
Substitution2: "'smcp' Lowercase to Small Capitals lookup 12 subtable" c.sc
Substitution2: "'aalt' Access All Alternates lookup 0 subtable" c.sc
EndChar

StartChar: d
Encoding: 100 100 71
Width: 614
GlyphClass: 2
Flags: W
LayerCount: 2
Fore
SplineSet
571.534179688 730 m 1,0,-1
 628.534179688 730 l 1,1,-1
 460 0 l 1,2,-1
 409 0 l 1,3,-1
 430.241210938 105 l 1,4,5
 396.004882812 52 396.004882812 52 340.348632812 21 c 128,-1,6
 284.69140625 -10 284.69140625 -10 220.69140625 -10 c 0,7,8
 114.69140625 -10 114.69140625 -10 69.62109375 59 c 128,-1,9
 24.55078125 128 24.55078125 128 52.716796875 250 c 128,-1,10
 80.8828125 372 80.8828125 372 157.8125 441 c 128,-1,11
 234.743164062 510 234.743164062 510 340.743164062 510 c 0,12,13
 403.743164062 510 403.743164062 510 444.047851562 481 c 128,-1,14
 484.352539062 452 484.352539062 452 495.578125 401 c 1,15,-1
 571.534179688 730 l 1,0,-1
239.234375 40 m 0,16,17
 315.234375 40 315.234375 40 373.508789062 91 c 128,-1,18
 431.783203125 142 431.783203125 142 456.330078125 231 c 1,19,-1
 465.103515625 269 l 1,20,21
 481.650390625 358 481.650390625 358 446.924804688 409 c 128,-1,22
 412.19921875 460 412.19921875 460 336.19921875 460 c 0,23,24
 252.19921875 460 252.19921875 460 192.270507812 404 c 128,-1,25
 132.341796875 348 132.341796875 348 109.716796875 250 c 128,-1,26
 87.091796875 152 87.091796875 152 121.163085938 96 c 128,-1,27
 155.234375 40 155.234375 40 239.234375 40 c 0,16,17
EndSplineSet
Substitution2: "'smcp' Lowercase to Small Capitals lookup 12 subtable" d.sc
Substitution2: "'aalt' Access All Alternates lookup 0 subtable" d.sc
EndChar

StartChar: e
Encoding: 101 101 72
Width: 564
GlyphClass: 2
Flags: W
AnchorPoint: "Anchor-0" 233 0 basechar 0
LayerCount: 2
Fore
SplineSet
506.1796875 265 m 0,0,1
 502.024414062 247 502.024414062 247 495.407226562 227 c 1,2,-1
 103.407226562 227 l 1,3,4
 88.0908203125 139 88.0908203125 139 124.163085938 89.5 c 128,-1,5
 160.234375 40 160.234375 40 240.234375 40 c 0,6,7
 298.234375 40 298.234375 40 345.044921875 63 c 128,-1,8
 391.854492188 86 391.854492188 86 419.55078125 128 c 1,9,-1
 460.779296875 103 l 1,10,11
 375.69140625 -10 375.69140625 -10 228.69140625 -10 c 0,12,13
 117.69140625 -10 117.69140625 -10 70.62109375 59 c 128,-1,14
 23.55078125 128 23.55078125 128 51.716796875 250 c 128,-1,15
 79.8828125 372 79.8828125 372 156.8125 441 c 128,-1,16
 233.743164062 510 233.743164062 510 343.743164062 510 c 0,17,18
 446.743164062 510 446.743164062 510 489.043945312 442 c 128,-1,19
 531.344726562 374 531.344726562 374 506.1796875 265 c 0,0,1
332.19921875 460 m 0,20,21
 254.19921875 460 254.19921875 460 197.733398438 412.5 c 128,-1,22
 141.266601562 365 141.266601562 365 115.181640625 278 c 1,23,-1
 455.181640625 278 l 1,24,25
 469.036132812 364 469.036132812 364 437.118164062 412 c 128,-1,26
 405.19921875 460 405.19921875 460 332.19921875 460 c 0,20,21
EndSplineSet
Substitution2: "'smcp' Lowercase to Small Capitals lookup 12 subtable" e.sc
Substitution2: "'aalt' Access All Alternates lookup 0 subtable" e.sc
EndChar

StartChar: f
Encoding: 102 102 73
Width: 367
GlyphClass: 2
Flags: W
LayerCount: 2
Fore
SplineSet
251.672851562 579 m 2,0,-1
 233.434570312 500 l 1,1,-1
 407.434570312 500 l 1,2,-1
 396.12109375 451 l 1,3,-1
 222.12109375 451 l 1,4,-1
 118 0 l 1,5,-1
 61 0 l 1,6,-1
 165.12109375 451 l 1,7,-1
 65.12109375 451 l 1,8,-1
 76.4345703125 500 l 1,9,-1
 176.434570312 500 l 1,10,-1
 195.827148438 584 l 2,11,12
 211.98828125 654 211.98828125 654 260.837890625 694.5 c 128,-1,13
 309.688476562 735 309.688476562 735 383.688476562 735 c 0,14,15
 437.688476562 735 437.688476562 735 459.685546875 709 c 1,16,-1
 433.065429688 663 l 1,17,18
 413.682617188 683 413.682617188 683 375.682617188 683 c 0,19,20
 327.682617188 683 327.682617188 683 295.565429688 656.5 c 128,-1,21
 263.447265625 630 263.447265625 630 251.672851562 579 c 2,0,-1
EndSplineSet
Substitution2: "'smcp' Lowercase to Small Capitals lookup 12 subtable" f.sc
Substitution2: "'aalt' Access All Alternates lookup 0 subtable" f.sc
EndChar

StartChar: g
Encoding: 103 103 74
Width: 614
GlyphClass: 2
Flags: W
LayerCount: 2
Fore
SplineSet
527.434570312 500 m 1,0,-1
 575.434570312 500 l 1,1,-1
 466.6953125 29 l 2,2,3
 438.991210938 -91 438.991210938 -91 361.676757812 -153 c 128,-1,4
 284.36328125 -215 284.36328125 -215 165.36328125 -215 c 0,5,6
 83.36328125 -215 83.36328125 -215 35.1357421875 -183.5 c 128,-1,7
 -13.091796875 -152 -13.091796875 -152 -11.0087890625 -91 c 1,8,-1
 48.30078125 -68 l 1,9,10
 45.9072265625 -165 45.9072265625 -165 183.907226562 -165 c 0,11,12
 265.907226562 -165 265.907226562 -165 326.334960938 -115.5 c 128,-1,13
 386.762695312 -66 386.762695312 -66 405.694335938 16 c 2,14,-1
 424.163085938 96 l 1,15,16
 389.3125 49 389.3125 49 336.194335938 22.5 c 128,-1,17
 283.076171875 -4 283.076171875 -4 221.076171875 -4 c 0,18,19
 115.076171875 -4 115.076171875 -4 69.890625 64.5 c 128,-1,20
 24.705078125 133 24.705078125 133 52.4091796875 253 c 128,-1,21
 80.1142578125 373 80.1142578125 373 156.928710938 441.5 c 128,-1,22
 233.743164062 510 233.743164062 510 339.743164062 510 c 0,23,24
 403.743164062 510 403.743164062 510 444.778320312 482 c 128,-1,25
 485.814453125 454 485.814453125 454 498.270507812 404 c 1,26,-1
 527.434570312 500 l 1,0,-1
239.620117188 46 m 0,27,28
 318.620117188 46 318.620117188 46 378.202148438 100.5 c 128,-1,29
 437.784179688 155 437.784179688 155 459.254882812 248 c 2,30,-1
 462.025390625 260 l 2,31,32
 483.265625 352 483.265625 352 448.732421875 406 c 128,-1,33
 414.19921875 460 414.19921875 460 335.19921875 460 c 0,34,35
 252.19921875 460 252.19921875 460 191.885742188 404.5 c 128,-1,36
 131.573242188 349 131.573242188 349 109.409179688 253 c 128,-1,37
 87.24609375 157 87.24609375 157 121.93359375 101.5 c 128,-1,38
 156.620117188 46 156.620117188 46 239.620117188 46 c 0,27,28
EndSplineSet
Substitution2: "'ss01' Style Set 1 lookup 47 subtable" g.ss01
Substitution2: "'salt' Stylistic Alternatives lookup 42 subtable" g.ss01
Substitution2: "'smcp' Lowercase to Small Capitals lookup 12 subtable" g.sc
AlternateSubs2: "'aalt' Access All Alternates lookup 1 subtable" g.sc g.ss01
EndChar

StartChar: h
Encoding: 104 104 75
Width: 603
GlyphClass: 2
Flags: W
LayerCount: 2
Fore
SplineSet
379.743164062 510 m 0,0,1
 465.743164062 510 465.743164062 510 507.661132812 462 c 128,-1,2
 549.579101562 414 549.579101562 414 528.801757812 324 c 2,3,-1
 454 0 l 1,4,-1
 397 0 l 1,5,-1
 467.415039062 305 l 2,6,7
 485.653320312 384 485.653320312 384 456.426757812 422 c 128,-1,8
 427.19921875 460 427.19921875 460 362.19921875 460 c 0,9,10
 291.19921875 460 291.19921875 460 229.118164062 412 c 128,-1,11
 167.036132812 364 167.036132812 364 147.181640625 278 c 2,12,-1
 83 0 l 1,13,-1
 26 0 l 1,14,-1
 194.534179688 730 l 1,15,-1
 251.534179688 730 l 1,16,-1
 176.962890625 407 l 1,17,18
 212.737304688 458 212.737304688 458 265.740234375 484 c 128,-1,19
 318.743164062 510 318.743164062 510 379.743164062 510 c 0,0,1
EndSplineSet
Substitution2: "'smcp' Lowercase to Small Capitals lookup 12 subtable" h.sc
Substitution2: "'aalt' Access All Alternates lookup 0 subtable" h.sc
EndChar

StartChar: i
Encoding: 105 105 76
Width: 237
GlyphClass: 2
Flags: W
LayerCount: 2
Fore
SplineSet
192.828125 597 m 0,0,1
 171.828125 597 171.828125 597 161.713867188 609.5 c 128,-1,2
 151.599609375 622 151.599609375 622 156.448242188 643 c 128,-1,3
 161.296875 664 161.296875 664 177.182617188 676.5 c 128,-1,4
 193.068359375 689 193.068359375 689 214.068359375 689 c 0,5,6
 234.068359375 689 234.068359375 689 244.182617188 676.5 c 128,-1,7
 254.296875 664 254.296875 664 249.448242188 643 c 128,-1,8
 244.599609375 622 244.599609375 622 228.713867188 609.5 c 128,-1,9
 212.828125 597 212.828125 597 192.828125 597 c 0,0,1
198.434570312 500 m 1,10,-1
 83 0 l 1,11,-1
 26 0 l 1,12,-1
 141.434570312 500 l 1,13,-1
 198.434570312 500 l 1,10,-1
EndSplineSet
Substitution2: "'smcp' Lowercase to Small Capitals lookup 12 subtable" i.sc
Substitution2: "'locl' Localized Forms in Latin lookup 6 subtable" i.loclTRK
Substitution2: "'locl' Localized Forms in Latin lookup 5 subtable" i.loclTRK
Substitution2: "'locl' Localized Forms in Latin lookup 4 subtable" i.loclTRK
Substitution2: "'locl' Localized Forms in Latin lookup 3 subtable" i.loclTRK
Substitution2: "'locl' Localized Forms in Latin lookup 2 subtable" i.loclTRK
Substitution2: "'aalt' Access All Alternates lookup 0 subtable" i.sc
EndChar

StartChar: j
Encoding: 106 106 77
Width: 237
GlyphClass: 2
Flags: W
LayerCount: 2
Fore
SplineSet
214.068359375 689 m 0,0,1
 233.068359375 689 233.068359375 689 243.451171875 675.5 c 128,-1,2
 253.834960938 662 253.834960938 662 249.448242188 643 c 128,-1,3
 245.061523438 624 245.061523438 624 228.4453125 610.5 c 128,-1,4
 211.828125 597 211.828125 597 192.828125 597 c 0,5,6
 172.828125 597 172.828125 597 162.4453125 610.5 c 128,-1,7
 152.061523438 624 152.061523438 624 156.448242188 643 c 128,-1,8
 160.834960938 662 160.834960938 662 177.451171875 675.5 c 128,-1,9
 194.068359375 689 194.068359375 689 214.068359375 689 c 0,0,1
198.434570312 500 m 1,10,-1
 70.0712890625 -56 l 2,11,12
 51.8330078125 -135 51.8330078125 -135 0.59765625 -175 c 128,-1,13
 -50.63671875 -215 -50.63671875 -215 -111.63671875 -215 c 0,14,15
 -166.63671875 -215 -166.63671875 -215 -193.94140625 -186 c 1,16,-1
 -169.474609375 -132 l 1,17,18
 -145.938476562 -160 -145.938476562 -160 -98.9384765625 -160 c 0,19,20
 -58.9384765625 -160 -58.9384765625 -160 -28.58984375 -132.5 c 128,-1,21
 1.7587890625 -105 1.7587890625 -105 14.2255859375 -51 c 2,22,-1
 141.434570312 500 l 1,23,-1
 198.434570312 500 l 1,10,-1
EndSplineSet
Substitution2: "'smcp' Lowercase to Small Capitals lookup 12 subtable" j.sc
Substitution2: "'aalt' Access All Alternates lookup 0 subtable" j.sc
EndChar

StartChar: k
Encoding: 107 107 78
Width: 536
GlyphClass: 2
Flags: W
AnchorPoint: "Anchor-0" 249 0 basechar 0
LayerCount: 2
Fore
SplineSet
384 0 m 1,0,-1
 258.256835938 261 l 1,1,-1
 117.168945312 148 l 1,2,-1
 83 0 l 1,3,-1
 26 0 l 1,4,-1
 194.534179688 730 l 1,5,-1
 251.534179688 730 l 1,6,-1
 133.791015625 220 l 1,7,-1
 486.434570312 500 l 1,8,-1
 559.434570312 500 l 1,9,-1
 309.491210938 301 l 1,10,-1
 453 0 l 1,11,-1
 384 0 l 1,0,-1
EndSplineSet
Substitution2: "'smcp' Lowercase to Small Capitals lookup 12 subtable" k.sc
Substitution2: "'aalt' Access All Alternates lookup 0 subtable" k.sc
EndChar

StartChar: l
Encoding: 108 108 79
Width: 281
GlyphClass: 2
Flags: W
AnchorPoint: "Anchor-0" 137 0 basechar 0
LayerCount: 2
Fore
SplineSet
247.534179688 730 m 1,0,-1
 107.627929688 124 l 2,1,2
 97.4697265625 80 97.4697265625 80 107.313476562 62 c 128,-1,3
 117.158203125 44 117.158203125 44 150.158203125 44 c 128,-1,4
 183.158203125 44 183.158203125 44 221.390625 58 c 1,5,-1
 199.692382812 3 l 1,6,7
 167.69140625 -10 167.69140625 -10 128.69140625 -10 c 0,8,9
 19.69140625 -10 19.69140625 -10 49.2421875 118 c 2,10,-1
 190.534179688 730 l 1,11,-1
 247.534179688 730 l 1,0,-1
EndSplineSet
Substitution2: "'ss02' Style Set 2 lookup 48 subtable" l.ss02
Substitution2: "'salt' Stylistic Alternatives lookup 42 subtable" l.ss02
Substitution2: "'smcp' Lowercase to Small Capitals lookup 12 subtable" l.sc
AlternateSubs2: "'aalt' Access All Alternates lookup 1 subtable" l.sc l.ss02
Position2: "Single Positioning lookup 6 subtable" dx=0 dy=0 dh=-40 dv=0
EndChar

StartChar: m
Encoding: 109 109 80
Width: 958
GlyphClass: 2
Flags: W
LayerCount: 2
Fore
SplineSet
737.973632812 511 m 0,0,1
 819.973632812 511 819.973632812 511 862.776367188 462.5 c 128,-1,2
 905.579101562 414 905.579101562 414 884.801757812 324 c 2,3,-1
 810.23046875 1 l 1,4,-1
 753.23046875 1 l 1,5,-1
 826.416015625 318 l 2,6,7
 842.577148438 388 842.577148438 388 813.50390625 424.5 c 128,-1,8
 784.430664062 461 784.430664062 461 721.430664062 461 c 0,9,10
 650.430664062 461 650.430664062 461 590.001953125 411.5 c 128,-1,11
 529.57421875 362 529.57421875 362 511.56640625 284 c 2,12,-1
 446 0 l 1,13,-1
 389 0 l 1,14,-1
 462.185546875 317 l 2,15,16
 478.345703125 387 478.345703125 387 449.272460938 423.5 c 128,-1,17
 420.19921875 460 420.19921875 460 358.19921875 460 c 0,18,19
 290.19921875 460 290.19921875 460 228.38671875 411 c 128,-1,20
 166.57421875 362 166.57421875 362 147.412109375 279 c 2,21,-1
 83 0 l 1,22,-1
 26 0 l 1,23,-1
 141.434570312 500 l 1,24,-1
 192.434570312 500 l 1,25,-1
 173.732421875 406 l 1,26,27
 210.276367188 456 210.276367188 456 264.009765625 483 c 128,-1,28
 317.743164062 510 317.743164062 510 374.743164062 510 c 0,29,30
 436.743164062 510 436.743164062 510 477.663085938 481.5 c 128,-1,31
 518.583007812 453 518.583007812 453 525.885742188 398 c 1,32,33
 559.12109375 451 559.12109375 451 618.547851562 481 c 128,-1,34
 677.973632812 511 677.973632812 511 737.973632812 511 c 0,0,1
EndSplineSet
Substitution2: "'smcp' Lowercase to Small Capitals lookup 12 subtable" m.sc
Substitution2: "'aalt' Access All Alternates lookup 0 subtable" m.sc
EndChar

StartChar: n
Encoding: 110 110 81
Width: 603
GlyphClass: 2
Flags: W
AnchorPoint: "Anchor-0" 271 0 basechar 0
LayerCount: 2
Fore
SplineSet
379.743164062 510 m 0,0,1
 465.743164062 510 465.743164062 510 507.545898438 461.5 c 128,-1,2
 549.348632812 413 549.348632812 413 528.5703125 323 c 2,3,-1
 454 0 l 1,4,-1
 397 0 l 1,5,-1
 467.415039062 305 l 2,6,7
 485.422851562 383 485.422851562 383 456.310546875 421.5 c 128,-1,8
 427.19921875 460 427.19921875 460 362.19921875 460 c 0,9,10
 291.19921875 460 291.19921875 460 229.118164062 412 c 128,-1,11
 167.036132812 364 167.036132812 364 147.412109375 279 c 2,12,-1
 83 0 l 1,13,-1
 26 0 l 1,14,-1
 141.434570312 500 l 1,15,-1
 192.434570312 500 l 1,16,-1
 173.501953125 405 l 1,17,18
 209.276367188 456 209.276367188 456 264.009765625 483 c 128,-1,19
 318.743164062 510 318.743164062 510 379.743164062 510 c 0,0,1
EndSplineSet
Substitution2: "Single Substitution lookup 57 subtable" n.swsh
Substitution2: "'swsh' Swash lookup 38 subtable" n.swsh
Substitution2: "'smcp' Lowercase to Small Capitals lookup 12 subtable" n.sc
AlternateSubs2: "'aalt' Access All Alternates lookup 1 subtable" n.sc n.swsh
EndChar

StartChar: o
Encoding: 111 111 82
Width: 594
GlyphClass: 2
Flags: W
LayerCount: 2
Fore
SplineSet
350.743164062 510 m 128,-1,1
 462.743164062 510 462.743164062 510 510.3125 441 c 128,-1,2
 557.8828125 372 557.8828125 372 529.716796875 250 c 128,-1,3
 501.55078125 128 501.55078125 128 422.12109375 59 c 128,-1,4
 342.69140625 -10 342.69140625 -10 230.69140625 -10 c 128,-1,5
 118.69140625 -10 118.69140625 -10 71.12109375 59 c 128,-1,6
 23.55078125 128 23.55078125 128 51.716796875 250 c 128,-1,7
 79.8828125 372 79.8828125 372 159.3125 441 c 128,-1,0
 238.743164062 510 238.743164062 510 350.743164062 510 c 128,-1,1
339.430664062 461 m 128,-1,9
 254.430664062 461 254.430664062 461 192.885742188 404.5 c 128,-1,10
 131.341796875 348 131.341796875 348 108.716796875 250 c 128,-1,11
 86.091796875 152 86.091796875 152 121.547851562 95.5 c 128,-1,12
 157.00390625 39 157.00390625 39 242.00390625 39 c 128,-1,13
 327.00390625 39 327.00390625 39 388.547851562 95.5 c 128,-1,14
 450.091796875 152 450.091796875 152 472.716796875 250 c 128,-1,15
 495.341796875 348 495.341796875 348 459.885742188 404.5 c 128,-1,8
 424.430664062 461 424.430664062 461 339.430664062 461 c 128,-1,9
EndSplineSet
Substitution2: "Single Substitution lookup 55 subtable" ordmasculine
Substitution2: "'smcp' Lowercase to Small Capitals lookup 12 subtable" o.sc
AlternateSubs2: "'aalt' Access All Alternates lookup 1 subtable" o.sc ordmasculine
EndChar

StartChar: p
Encoding: 112 112 83
Width: 614
GlyphClass: 2
Flags: W
LayerCount: 2
Fore
SplineSet
380.743164062 510 m 0,0,1
 486.743164062 510 486.743164062 510 531.8125 441 c 128,-1,2
 576.8828125 372 576.8828125 372 548.716796875 250 c 128,-1,3
 520.55078125 128 520.55078125 128 443.62109375 59 c 128,-1,4
 366.69140625 -10 366.69140625 -10 260.69140625 -10 c 0,5,6
 197.69140625 -10 197.69140625 -10 157.38671875 19 c 128,-1,7
 117.08203125 48 117.08203125 48 105.85546875 99 c 1,8,-1
 34.517578125 -210 l 1,9,-1
 -22.482421875 -210 l 1,10,-1
 141.434570312 500 l 1,11,-1
 192.434570312 500 l 1,12,-1
 170.961914062 394 l 1,13,14
 205.428710938 448 205.428710938 448 260.5859375 479 c 128,-1,15
 315.743164062 510 315.743164062 510 380.743164062 510 c 0,0,1
265.234375 40 m 0,16,17
 349.234375 40 349.234375 40 409.163085938 96 c 128,-1,18
 469.091796875 152 469.091796875 152 491.716796875 250 c 128,-1,19
 514.341796875 348 514.341796875 348 480.270507812 404 c 128,-1,20
 446.19921875 460 446.19921875 460 362.19921875 460 c 0,21,22
 286.19921875 460 286.19921875 460 226.579101562 407.5 c 128,-1,23
 166.958007812 355 166.958007812 355 143.94921875 264 c 2,24,-1
 137.485351562 236 l 2,25,26
 118.475585938 145 118.475585938 145 153.35546875 92.5 c 128,-1,27
 188.234375 40 188.234375 40 265.234375 40 c 0,16,17
EndSplineSet
Substitution2: "'smcp' Lowercase to Small Capitals lookup 12 subtable" p.sc
Substitution2: "'aalt' Access All Alternates lookup 0 subtable" p.sc
EndChar

StartChar: q
Encoding: 113 113 84
Width: 615
GlyphClass: 2
Flags: W
LayerCount: 2
Fore
SplineSet
525.434570312 500 m 1,0,-1
 576.434570312 500 l 1,1,-1
 412.517578125 -210 l 1,2,-1
 355.517578125 -210 l 1,3,-1
 426.85546875 99 l 1,4,5
 392.08203125 48 392.08203125 48 338.38671875 19 c 128,-1,6
 284.69140625 -10 284.69140625 -10 221.69140625 -10 c 0,7,8
 115.69140625 -10 115.69140625 -10 70.62109375 59 c 128,-1,9
 25.55078125 128 25.55078125 128 53.716796875 250 c 128,-1,10
 81.8828125 372 81.8828125 372 158.8125 441 c 128,-1,11
 235.743164062 510 235.743164062 510 341.743164062 510 c 0,12,13
 406.743164062 510 406.743164062 510 447.5859375 479 c 128,-1,14
 488.428710938 448 488.428710938 448 498.193359375 395 c 1,15,-1
 525.434570312 500 l 1,0,-1
240.234375 40 m 0,16,17
 316.234375 40 316.234375 40 374.508789062 91 c 128,-1,18
 432.783203125 142 432.783203125 142 457.330078125 231 c 1,19,-1
 466.103515625 269 l 1,20,21
 482.650390625 358 482.650390625 358 447.924804688 409 c 128,-1,22
 413.19921875 460 413.19921875 460 337.19921875 460 c 0,23,24
 253.19921875 460 253.19921875 460 193.270507812 404 c 128,-1,25
 133.341796875 348 133.341796875 348 110.716796875 250 c 128,-1,26
 88.091796875 152 88.091796875 152 122.163085938 96 c 128,-1,27
 156.234375 40 156.234375 40 240.234375 40 c 0,16,17
EndSplineSet
Substitution2: "'smcp' Lowercase to Small Capitals lookup 12 subtable" q.sc
Substitution2: "'aalt' Access All Alternates lookup 0 subtable" q.sc
EndChar

StartChar: r
Encoding: 114 114 85
Width: 385
GlyphClass: 2
Flags: W
AnchorPoint: "Anchor-0" 69 0 basechar 0
LayerCount: 2
Fore
SplineSet
359.743164062 510 m 0,0,1
 397.743164062 510 397.743164062 510 417.279296875 495 c 1,2,-1
 390.8125 441 l 1,3,4
 369.506835938 457 369.506835938 457 331.506835938 457 c 0,5,6
 274.506835938 457 274.506835938 457 219.962890625 407 c 128,-1,7
 165.419921875 357 165.419921875 357 147.181640625 278 c 2,8,-1
 83 0 l 1,9,-1
 26 0 l 1,10,-1
 141.434570312 500 l 1,11,-1
 189.434570312 500 l 1,12,-1
 174.040039062 403 l 1,13,14
 239.743164062 510 239.743164062 510 359.743164062 510 c 0,0,1
EndSplineSet
Substitution2: "Single Substitution lookup 57 subtable" r.swsh
Substitution2: "'swsh' Swash lookup 38 subtable" r.swsh
Substitution2: "'smcp' Lowercase to Small Capitals lookup 12 subtable" r.sc
AlternateSubs2: "'aalt' Access All Alternates lookup 1 subtable" r.sc r.swsh
EndChar

StartChar: s
Encoding: 115 115 86
Width: 510
GlyphClass: 2
Flags: W
AnchorPoint: "Anchor-0" 205 0 basechar 0
LayerCount: 2
Fore
SplineSet
188.69140625 -10 m 0,0,1
 113.69140625 -10 113.69140625 -10 64.001953125 19.5 c 128,-1,2
 14.3125 49 14.3125 49 4.4716796875 106 c 1,3,-1
 58.62890625 137 l 1,4,5
 63.546875 89 63.546875 89 102.890625 64.5 c 128,-1,6
 142.234375 40 142.234375 40 206.234375 40 c 0,7,8
 272.234375 40 272.234375 40 315.006835938 65 c 128,-1,9
 357.778320312 90 357.778320312 90 367.012695312 130 c 0,10,11
 375.092773438 165 375.092773438 165 347.94140625 186 c 128,-1,12
 320.790039062 207 320.790039062 207 243.021484375 221 c 0,13,14
 141.408203125 240 141.408203125 240 105.911132812 272.5 c 128,-1,15
 70.4150390625 305 70.4150390625 305 84.2666015625 365 c 0,16,17
 98.349609375 426 98.349609375 426 161.545898438 468 c 128,-1,18
 224.743164062 510 224.743164062 510 310.743164062 510 c 0,19,20
 467.743164062 510 467.743164062 510 475.577148438 388 c 1,21,-1
 421.112304688 360 l 1,22,23
 414.19921875 460 414.19921875 460 299.19921875 460 c 0,24,25
 241.19921875 460 241.19921875 460 196.197265625 434 c 128,-1,26
 151.194335938 408 151.194335938 408 142.65234375 371 c 0,27,28
 133.6484375 332 133.6484375 332 161.569335938 310 c 128,-1,29
 189.490234375 288 189.490234375 288 270.2578125 274 c 0,30,31
 368.333007812 257 368.333007812 257 403.330078125 224.5 c 128,-1,32
 438.327148438 192 438.327148438 192 424.705078125 133 c 0,33,34
 409.69921875 68 409.69921875 68 345.6953125 29 c 128,-1,35
 281.69140625 -10 281.69140625 -10 188.69140625 -10 c 0,0,1
EndSplineSet
Substitution2: "'hist' Historical Forms lookup 44 subtable" longs
Substitution2: "'smcp' Lowercase to Small Capitals lookup 12 subtable" s.sc
AlternateSubs2: "'aalt' Access All Alternates lookup 1 subtable" s.sc longs
EndChar

StartChar: t
Encoding: 116 116 87
Width: 387
GlyphClass: 2
Flags: W
AnchorPoint: "Anchor-0" 179 0 basechar 0
LayerCount: 2
Fore
SplineSet
306.469726562 80 m 1,0,-1
 316.387695312 32 l 1,1,2
 261.69140625 -10 261.69140625 -10 189.69140625 -10 c 0,3,4
 128.69140625 -10 128.69140625 -10 100.92578125 23.5 c 128,-1,5
 73.1591796875 57 73.1591796875 57 88.8583984375 125 c 2,6,-1
 164.12109375 451 l 1,7,-1
 64.12109375 451 l 1,8,-1
 75.4345703125 500 l 1,9,-1
 175.434570312 500 l 1,10,-1
 204.061523438 624 l 1,11,-1
 264.524414062 639 l 1,12,-1
 232.434570312 500 l 1,13,-1
 420.434570312 500 l 1,14,-1
 409.12109375 451 l 1,15,-1
 221.12109375 451 l 1,16,-1
 147.936523438 134 l 2,17,18
 126.927734375 43 126.927734375 43 211.927734375 43 c 0,19,20
 262.927734375 43 262.927734375 43 306.469726562 80 c 1,0,-1
EndSplineSet
Substitution2: "Single Substitution lookup 57 subtable" t.swsh
Substitution2: "'swsh' Swash lookup 38 subtable" t.swsh
Substitution2: "'smcp' Lowercase to Small Capitals lookup 12 subtable" t.sc
AlternateSubs2: "'aalt' Access All Alternates lookup 1 subtable" t.sc t.swsh
EndChar

StartChar: u
Encoding: 117 117 88
Width: 599
GlyphClass: 2
Flags: W
LayerCount: 2
Fore
SplineSet
503.434570312 500 m 1,0,-1
 560.434570312 500 l 1,1,-1
 445 0 l 1,2,-1
 395 0 l 1,3,-1
 412.470703125 93 l 1,4,5
 338.69140625 -10 338.69140625 -10 199.69140625 -10 c 0,6,7
 117.69140625 -10 117.69140625 -10 78.6962890625 35.5 c 128,-1,8
 39.7001953125 81 39.7001953125 81 60.478515625 171 c 2,9,-1
 136.434570312 500 l 1,10,-1
 193.434570312 500 l 1,11,-1
 120.7109375 185 l 2,12,13
 87.234375 40 87.234375 40 221.234375 40 c 0,14,15
 300.234375 40 300.234375 40 360.163085938 89.5 c 128,-1,16
 420.090820312 139 420.090820312 139 438.098632812 217 c 2,17,-1
 503.434570312 500 l 1,0,-1
EndSplineSet
Substitution2: "'smcp' Lowercase to Small Capitals lookup 12 subtable" u.sc
Substitution2: "'aalt' Access All Alternates lookup 0 subtable" u.sc
EndChar

StartChar: v
Encoding: 118 118 89
Width: 506
GlyphClass: 2
Flags: W
LayerCount: 2
Fore
SplineSet
481.434570312 500 m 1,0,-1
 541.434570312 500 l 1,1,-1
 218 0 l 1,2,-1
 160 0 l 1,3,-1
 67.4345703125 500 l 1,4,-1
 131.434570312 500 l 1,5,-1
 203.390625 58 l 1,6,-1
 481.434570312 500 l 1,0,-1
EndSplineSet
Substitution2: "'smcp' Lowercase to Small Capitals lookup 12 subtable" v.sc
Substitution2: "'aalt' Access All Alternates lookup 0 subtable" v.sc
EndChar

StartChar: w
Encoding: 119 119 90
Width: 828
GlyphClass: 2
Flags: W
LayerCount: 2
Fore
SplineSet
782.434570312 500 m 1,0,-1
 845.434570312 500 l 1,1,-1
 559 0 l 1,2,-1
 502 0 l 1,3,-1
 445.811523438 428 l 1,4,-1
 198 0 l 1,5,-1
 141 0 l 1,6,-1
 85.4345703125 500 l 1,7,-1
 148.434570312 500 l 1,8,-1
 186.237304688 66 l 1,9,-1
 436.434570312 500 l 1,10,-1
 494.434570312 500 l 1,11,-1
 545.237304688 66 l 1,12,-1
 782.434570312 500 l 1,0,-1
EndSplineSet
Substitution2: "'smcp' Lowercase to Small Capitals lookup 12 subtable" w.sc
Substitution2: "'aalt' Access All Alternates lookup 0 subtable" w.sc
EndChar

StartChar: x
Encoding: 120 120 91
Width: 511
GlyphClass: 2
Flags: W
LayerCount: 2
Fore
SplineSet
422 0 m 1,0,-1
 351 0 l 1,1,-1
 239.174804688 213 l 1,2,-1
 29 0 l 1,3,-1
 -39 0 l 1,4,-1
 215.87109375 255 l 1,5,-1
 87.4345703125 500 l 1,6,-1
 159.434570312 500 l 1,7,-1
 264.260742188 300 l 1,8,-1
 457.434570312 500 l 1,9,-1
 525.434570312 500 l 1,10,-1
 286.564453125 258 l 1,11,-1
 422 0 l 1,0,-1
EndSplineSet
Substitution2: "'smcp' Lowercase to Small Capitals lookup 12 subtable" x.sc
Substitution2: "'aalt' Access All Alternates lookup 0 subtable" x.sc
EndChar

StartChar: y
Encoding: 121 121 92
Width: 516
GlyphClass: 2
Flags: W
LayerCount: 2
Fore
SplineSet
548.434570312 500 m 1,0,-1
 172.221679688 -90 l 2,1,2
 128.291992188 -159 128.291992188 -159 87.328125 -187 c 128,-1,3
 46.36328125 -215 46.36328125 -215 -6.63671875 -215 c 0,4,5
 -71.63671875 -215 -71.63671875 -215 -96.86328125 -177 c 1,6,-1
 -64.55078125 -128 l 1,7,8
 -47.0927734375 -165 -47.0927734375 -165 3.9072265625 -165 c 0,9,10
 37.9072265625 -165 37.9072265625 -165 66.408203125 -145.5 c 128,-1,11
 94.91015625 -126 94.91015625 -126 126.454101562 -76 c 2,12,-1
 175 0 l 1,13,-1
 79.4345703125 500 l 1,14,-1
 144.434570312 500 l 1,15,-1
 206.705078125 133 l 1,16,-1
 216.083007812 61 l 1,17,-1
 263.321289062 140 l 1,18,-1
 486.434570312 500 l 1,19,-1
 548.434570312 500 l 1,0,-1
EndSplineSet
Substitution2: "Single Substitution lookup 57 subtable" y.swsh
Substitution2: "'swsh' Swash lookup 38 subtable" y.swsh
Substitution2: "'smcp' Lowercase to Small Capitals lookup 12 subtable" y.sc
AlternateSubs2: "'aalt' Access All Alternates lookup 1 subtable" y.sc y.swsh
EndChar

StartChar: z
Encoding: 122 122 93
Width: 512
GlyphClass: 2
Flags: W
LayerCount: 2
Fore
SplineSet
-13 0 m 1,0,-1
 -2.841796875 44 l 1,1,-1
 363.731445312 393 l 1,2,-1
 432.352539062 452 l 1,3,-1
 351.12109375 451 l 1,4,-1
 90.12109375 451 l 1,5,-1
 101.434570312 500 l 1,6,-1
 507.434570312 500 l 1,7,-1
 497.276367188 456 l 1,8,-1
 138.319335938 114 l 1,9,-1
 63.08203125 48 l 1,10,-1
 154.3125 49 l 1,11,-1
 414.3125 49 l 1,12,-1
 403 0 l 1,13,-1
 -13 0 l 1,0,-1
EndSplineSet
Substitution2: "'smcp' Lowercase to Small Capitals lookup 12 subtable" z.sc
Substitution2: "'aalt' Access All Alternates lookup 0 subtable" z.sc
EndChar

StartChar: braceleft
Encoding: 123 123 94
Width: 318
GlyphClass: 2
Flags: W
LayerCount: 2
Fore
SplineSet
107.762695312 -66 m 2,0,1
 91.6015625 -136 91.6015625 -136 188.6015625 -136 c 1,2,-1
 169.982421875 -182 l 1,3,4
 27.982421875 -182 27.982421875 -182 55.6865234375 -62 c 2,5,-1
 106.24609375 157 l 2,6,7
 118.250976562 209 118.250976562 209 96.408203125 233.5 c 128,-1,8
 74.564453125 258 74.564453125 258 16.564453125 258 c 1,9,-1
 27.876953125 307 l 1,10,11
 140.876953125 307 140.876953125 307 164.194335938 408 c 2,12,-1
 214.75390625 627 l 2,13,14
 242.458984375 747 242.458984375 747 384.458984375 747 c 1,15,-1
 381.607421875 700 l 1,16,17
 284.607421875 700 284.607421875 700 268.677734375 631 c 2,18,-1
 216.040039062 403 l 2,19,20
 193.645507812 306 193.645507812 306 87.3359375 283 c 1,21,22
 182.564453125 258 182.564453125 258 160.400390625 162 c 2,23,-1
 107.762695312 -66 l 2,0,1
EndSplineSet
Substitution2: "'case' Case-Sensitive Forms lookup 29 subtable" braceleft.case
Substitution2: "'aalt' Access All Alternates lookup 0 subtable" braceleft.case
EndChar

StartChar: bar
Encoding: 124 124 95
Width: 216
GlyphClass: 2
Flags: W
LayerCount: 2
Fore
SplineSet
237.534179688 730 m 1,0,-1
 30.2138671875 -168 l 1,1,-1
 -19.7861328125 -168 l 1,2,-1
 187.534179688 730 l 1,3,-1
 237.534179688 730 l 1,0,-1
EndSplineSet
Substitution2: "'case' Case-Sensitive Forms lookup 29 subtable" bar.case
Substitution2: "'aalt' Access All Alternates lookup 0 subtable" bar.case
EndChar

StartChar: braceright
Encoding: 125 125 96
Width: 318
GlyphClass: 2
Flags: W
LayerCount: 2
Fore
SplineSet
214.194335938 408 m 2,0,1
 190.876953125 307 190.876953125 307 303.876953125 307 c 1,2,-1
 292.564453125 258 l 1,3,4
 234.564453125 258 234.564453125 258 201.408203125 233.5 c 128,-1,5
 168.250976562 209 168.250976562 209 156.24609375 157 c 2,6,-1
 105.686523438 -62 l 2,7,8
 77.982421875 -182 77.982421875 -182 -64.017578125 -182 c 1,9,-1
 -62.3984375 -136 l 1,10,11
 35.6015625 -136 35.6015625 -136 51.7626953125 -66 c 2,12,-1
 104.400390625 162 l 2,13,14
 127.025390625 260 127.025390625 260 234.3359375 283 c 1,15,16
 137.645507812 306 137.645507812 306 160.040039062 403 c 2,17,-1
 212.677734375 631 l 2,18,19
 228.607421875 700 228.607421875 700 130.607421875 700 c 1,20,-1
 150.458984375 747 l 1,21,22
 292.458984375 747 292.458984375 747 264.75390625 627 c 2,23,-1
 214.194335938 408 l 2,0,1
EndSplineSet
Substitution2: "'case' Case-Sensitive Forms lookup 29 subtable" braceright.case
Substitution2: "'aalt' Access All Alternates lookup 0 subtable" braceright.case
EndChar

StartChar: asciitilde
Encoding: 126 126 97
Width: 518
GlyphClass: 2
Flags: W
LayerCount: 2
Fore
SplineSet
500.577148438 388 m 1,0,1
 458.794921875 259 458.794921875 259 353.794921875 259 c 0,2,3
 305.794921875 259 305.794921875 259 258.336914062 296 c 128,-1,4
 210.87890625 333 210.87890625 333 178.87890625 333 c 0,5,6
 123.87890625 333 123.87890625 333 92.3330078125 257 c 1,7,-1
 38.3330078125 257 l 1,8,9
 80.115234375 386 80.115234375 386 186.115234375 386 c 0,10,11
 224.115234375 386 224.115234375 386 253.34375 367.5 c 128,-1,12
 282.573242188 349 282.573242188 349 307.801757812 330.5 c 128,-1,13
 333.03125 312 333.03125 312 361.03125 312 c 0,14,15
 415.03125 312 415.03125 312 446.577148438 388 c 1,16,-1
 500.577148438 388 l 1,0,1
EndSplineSet
EndChar

StartChar: exclamdown
Encoding: 161 161 99
Width: 232
GlyphClass: 2
Flags: W
LayerCount: 2
Fore
SplineSet
146.424804688 409 m 128,-1,1
 124.424804688 409 124.424804688 409 113.541992188 422.5 c 128,-1,2
 102.658203125 436 102.658203125 436 107.96875 459 c 0,3,4
 113.047851562 481 113.047851562 481 130.1640625 494.5 c 128,-1,5
 147.28125 508 147.28125 508 169.28125 508 c 128,-1,6
 191.28125 508 191.28125 508 201.6640625 494.5 c 128,-1,7
 212.047851562 481 212.047851562 481 206.96875 459 c 128,-1,8
 201.889648438 437 201.889648438 437 185.157226562 423 c 128,-1,0
 168.424804688 409 168.424804688 409 146.424804688 409 c 128,-1,1
-14.9384765625 -160 m 1,9,-1
 57.091796875 152 l 1,10,-1
 100.645507812 306 l 1,11,-1
 144.645507812 306 l 1,12,-1
 117.091796875 152 l 1,13,-1
 45.0615234375 -160 l 1,14,-1
 -14.9384765625 -160 l 1,9,-1
EndSplineSet
Substitution2: "'case' Case-Sensitive Forms lookup 29 subtable" exclamdown.case
Substitution2: "'smcp' Lowercase to Small Capitals lookup 12 subtable" exclamdown.sc
Substitution2: "'c2sc' Capitals to Small Capitals lookup 11 subtable" exclamdown.sc
AlternateSubs2: "'aalt' Access All Alternates lookup 1 subtable" exclamdown.sc exclamdown.case
EndChar

StartChar: cent
Encoding: 162 162 100
Width: 604
GlyphClass: 2
Flags: W
LayerCount: 2
Fore
SplineSet
490.859375 138 m 1,0,1
 456.853515625 73 456.853515625 73 397.96484375 34.5 c 128,-1,2
 339.076171875 -4 339.076171875 -4 266.921875 -9 c 1,3,-1
 245.913085938 -100 l 1,4,-1
 197.913085938 -100 l 1,5,-1
 218.921875 -9 l 1,6,7
 123.23046875 1 123.23046875 1 84.4296875 69 c 128,-1,8
 45.62890625 137 45.62890625 137 71.716796875 250 c 0,9,10
 97.57421875 362 97.57421875 362 167.888671875 430.5 c 128,-1,11
 238.203125 499 238.203125 499 338.51171875 509 c 1,12,-1
 359.520507812 600 l 1,13,-1
 407.520507812 600 l 1,14,-1
 386.743164062 510 l 1,15,16
 523.665039062 501 523.665039062 501 540.806640625 376 c 1,17,-1
 480.803710938 350 l 1,18,19
 478.34765625 400 478.34765625 400 450.926757812 428.5 c 128,-1,20
 423.506835938 457 423.506835938 457 375.661132812 462 c 1,21,-1
 277.7734375 38 l 1,22,23
 331.927734375 43 331.927734375 43 375.353515625 73 c 128,-1,24
 418.779296875 103 418.779296875 103 443.784179688 155 c 1,25,-1
 490.859375 138 l 1,0,1
125.716796875 250 m 0,26,27
 104.477539062 158 104.477539062 158 131.779296875 103 c 128,-1,28
 159.08203125 48 159.08203125 48 230.00390625 39 c 1,29,-1
 327.430664062 461 l 1,30,31
 252.12109375 451 252.12109375 451 199.423828125 396 c 128,-1,32
 146.725585938 341 146.725585938 341 125.716796875 250 c 0,26,27
EndSplineSet
Substitution2: "'tnum' Tabular Numbers lookup 26 subtable" cent.tf
Substitution2: "'aalt' Access All Alternates lookup 0 subtable" cent.tf
EndChar

StartChar: sterling
Encoding: 163 163 101
Width: 604
GlyphClass: 2
Flags: W
LayerCount: 2
Fore
SplineSet
477.090820312 139 m 1,0,-1
 523.090820312 139 l 1,1,2
 506.006835938 65 506.006835938 65 463.848632812 27.5 c 128,-1,3
 421.69140625 -10 421.69140625 -10 361.69140625 -10 c 0,4,5
 333.69140625 -10 333.69140625 -10 307.5 0 c 128,-1,6
 281.30859375 10 281.30859375 10 267.232421875 20.5 c 128,-1,7
 253.157226562 31 253.157226562 31 230.774414062 51 c 1,8,9
 167.69140625 -10 167.69140625 -10 87.69140625 -10 c 0,10,11
 41.69140625 -10 41.69140625 -10 20.6552734375 11.5 c 128,-1,12
 -0.3818359375 33 -0.3818359375 33 7.9296875 69 c 0,13,14
 16.0107421875 104 16.0107421875 104 49.935546875 127.5 c 128,-1,15
 83.861328125 151 83.861328125 151 132.861328125 151 c 0,16,17
 189.861328125 151 189.861328125 151 233.549804688 115 c 1,18,19
 245.62890625 137 245.62890625 137 252.32421875 166 c 0,20,21
 265.71484375 224 265.71484375 224 238.258789062 287 c 1,22,-1
 93.2587890625 287 l 1,23,-1
 104.110351562 334 l 1,24,-1
 216.110351562 334 l 1,25,26
 179.88671875 411 179.88671875 411 194.662109375 475 c 0,27,28
 214.516601562 561 214.516601562 561 282.099609375 615.5 c 128,-1,29
 349.681640625 670 349.681640625 670 435.681640625 670 c 0,30,31
 583.681640625 670 583.681640625 670 582.58984375 518 c 1,32,-1
 526.356445312 491 l 1,33,34
 532.676757812 618 532.676757812 618 420.676757812 618 c 0,35,36
 356.676757812 618 356.676757812 618 310.134765625 581 c 128,-1,37
 263.592773438 544 263.592773438 544 249.509765625 483 c 0,38,39
 241.428710938 448 241.428710938 448 246.502929688 418 c 128,-1,40
 251.577148438 388 251.577148438 388 273.264648438 339 c 0,41,42
 274.340820312 335 274.340820312 335 276.110351562 334 c 2,43,-1
 471.110351562 334 l 1,44,-1
 460.258789062 287 l 1,45,-1
 293.258789062 287 l 1,46,47
 311.17578125 226 311.17578125 226 296.862304688 164 c 0,48,49
 286.858398438 125 286.858398438 125 262.31640625 88 c 1,50,51
 279.391601562 71 279.391601562 71 290.313476562 62 c 128,-1,52
 301.236328125 53 301.236328125 53 321.7734375 44.5 c 128,-1,53
 342.311523438 36 342.311523438 36 365.311523438 36 c 0,54,55
 452.311523438 36 452.311523438 36 477.090820312 139 c 1,0,-1
103.92578125 30 m 0,56,57
 160.92578125 30 160.92578125 30 204.315429688 75 c 1,58,59
 163.703125 107 163.703125 107 123.703125 107 c 0,60,61
 67.703125 107 67.703125 107 58.9296875 69 c 0,62,63
 49.92578125 30 49.92578125 30 103.92578125 30 c 0,56,57
EndSplineSet
Substitution2: "'tnum' Tabular Numbers lookup 26 subtable" sterling.tf
Substitution2: "'aalt' Access All Alternates lookup 0 subtable" sterling.tf
EndChar

StartChar: currency
Encoding: 164 164 102
Width: 604
GlyphClass: 2
Flags: W
LayerCount: 2
Fore
SplineSet
512.186523438 330 m 0,0,1
 495.102539062 256 495.102539062 256 444.328125 205 c 1,2,-1
 517.857421875 112 l 1,3,-1
 472.315429688 75 l 1,4,-1
 399.786132812 168 l 1,5,6
 339.782226562 129 339.782226562 129 267.782226562 129 c 0,7,8
 193.782226562 129 193.782226562 129 152.016601562 169 c 1,9,-1
 38.3154296875 75 l 1,10,-1
 9.857421875 112 l 1,11,-1
 124.55859375 206 l 1,12,13
 99.025390625 260 99.025390625 260 115.186523438 330 c 0,14,15
 131.80859375 402 131.80859375 402 181.814453125 454 c 1,16,-1
 110.053710938 546 l 1,17,-1
 155.595703125 583 l 1,18,-1
 226.356445312 491 l 1,19,20
 287.590820312 531 287.590820312 531 360.590820312 531 c 128,-1,21
 433.590820312 531 433.590820312 531 476.125 490 c 1,22,-1
 589.595703125 583 l 1,23,-1
 618.053710938 546 l 1,24,-1
 504.352539062 452 l 1,25,26
 528.34765625 400 528.34765625 400 512.186523438 330 c 0,0,1
279.556640625 180 m 0,27,28
 341.556640625 180 341.556640625 180 390.637695312 221.5 c 128,-1,29
 439.71875 263 439.71875 263 455.186523438 330 c 128,-1,30
 470.654296875 397 470.654296875 397 440.735351562 438.5 c 128,-1,31
 410.81640625 480 410.81640625 480 348.81640625 480 c 0,32,33
 285.81640625 480 285.81640625 480 236.735351562 438.5 c 128,-1,34
 187.654296875 397 187.654296875 397 172.186523438 330 c 128,-1,35
 156.71875 263 156.71875 263 186.637695312 221.5 c 128,-1,36
 216.556640625 180 216.556640625 180 279.556640625 180 c 0,27,28
EndSplineSet
Substitution2: "'tnum' Tabular Numbers lookup 26 subtable" currency.tf
Substitution2: "'aalt' Access All Alternates lookup 0 subtable" currency.tf
EndChar

StartChar: yen
Encoding: 165 165 103
Width: 604
GlyphClass: 2
Flags: W
LayerCount: 2
Fore
SplineSet
343.56640625 284 m 1,0,-1
 376.258789062 287 l 1,1,-1
 527.258789062 287 l 1,2,-1
 517.33203125 244 l 1,3,-1
 319.33203125 244 l 1,4,-1
 299.24609375 157 l 1,5,-1
 497.24609375 157 l 1,6,-1
 487.780273438 116 l 1,7,-1
 289.780273438 116 l 1,8,-1
 263 0 l 1,9,-1
 213 0 l 1,10,-1
 239.780273438 116 l 1,11,-1
 42.7802734375 116 l 1,12,-1
 52.24609375 157 l 1,13,-1
 249.24609375 157 l 1,14,-1
 269.33203125 244 l 1,15,-1
 72.33203125 244 l 1,16,-1
 82.2587890625 287 l 1,17,-1
 232.258789062 287 l 1,18,-1
 263.56640625 284 l 1,19,-1
 127.373046875 660 l 1,20,-1
 193.373046875 660 l 1,21,-1
 287.344726562 374 l 1,22,-1
 306.72265625 302 l 1,23,-1
 308.72265625 302 l 1,24,-1
 361.575195312 375 l 1,25,-1
 587.373046875 660 l 1,26,-1
 653.373046875 660 l 1,27,-1
 343.56640625 284 l 1,0,-1
EndSplineSet
Substitution2: "'tnum' Tabular Numbers lookup 26 subtable" yen.tf
Substitution2: "'aalt' Access All Alternates lookup 0 subtable" yen.tf
EndChar

StartChar: brokenbar
Encoding: 166 166 104
Width: 228
GlyphClass: 2
Flags: W
LayerCount: 2
Fore
SplineSet
243.534179688 730 m 1,0,-1
 159.498046875 366 l 1,1,-1
 109.498046875 366 l 1,2,-1
 193.534179688 730 l 1,3,-1
 243.534179688 730 l 1,0,-1
120.25 196 m 1,4,-1
 36.2138671875 -168 l 1,5,-1
 -13.7861328125 -168 l 1,6,-1
 70.25 196 l 1,7,-1
 120.25 196 l 1,4,-1
EndSplineSet
EndChar

StartChar: section
Encoding: 167 167 105
Width: 576
GlyphClass: 2
Flags: W
LayerCount: 2
Fore
SplineSet
544.103515625 269 m 0,0,1
 524.017578125 182 524.017578125 182 413.859375 138 c 1,2,3
 448.317382812 101 448.317382812 101 433.311523438 36 c 0,4,5
 418.997070312 -26 418.997070312 -26 355.30078125 -68 c 128,-1,6
 291.604492188 -110 291.604492188 -110 201.604492188 -110 c 0,7,8
 56.6044921875 -110 56.6044921875 -110 22.537109375 -15 c 1,9,-1
 72.6171875 20 l 1,10,11
 93.1474609375 -60 93.1474609375 -60 212.147460938 -60 c 0,12,13
 279.147460938 -60 279.147460938 -60 322.303710938 -35.5 c 128,-1,14
 365.4609375 -11 365.4609375 -11 375.157226562 31 c 0,15,16
 386.23828125 79 386.23828125 79 352.625976562 104.5 c 128,-1,17
 319.012695312 130 319.012695312 130 219.475585938 145 c 0,18,19
 106.169921875 161 106.169921875 161 66.404296875 194.5 c 128,-1,20
 26.6376953125 228 26.6376953125 228 41.1826171875 291 c 0,21,22
 61.2685546875 378 61.2685546875 378 171.426757812 422 c 1,23,24
 136.96875 459 136.96875 459 151.974609375 524 c 0,25,26
 166.2890625 586 166.2890625 586 230.485351562 628 c 128,-1,27
 294.681640625 670 294.681640625 670 388.681640625 670 c 0,28,29
 529.681640625 670 529.681640625 670 562.749023438 575 c 1,30,-1
 514.899414062 541 l 1,31,32
 490.138671875 620 490.138671875 620 376.138671875 620 c 0,33,34
 307.138671875 620 307.138671875 620 263.482421875 595.5 c 128,-1,35
 219.826171875 571 219.826171875 571 210.12890625 529 c 0,36,37
 198.81640625 480 198.81640625 480 232.9296875 454.5 c 128,-1,38
 267.041992188 429 267.041992188 429 365.810546875 415 c 0,39,40
 479.116210938 399 479.116210938 399 518.998046875 366 c 128,-1,41
 558.87890625 333 558.87890625 333 544.103515625 269 c 0,0,1
367.5546875 167 m 1,42,43
 470.942382812 199 470.942382812 199 486.1796875 265 c 0,44,45
 495.645507812 306 495.645507812 306 463.33984375 328.5 c 128,-1,46
 431.03515625 351 431.03515625 351 339.8046875 363 c 0,47,48
 262.114257812 373 262.114257812 373 216.731445312 393 c 1,49,50
 114.34375 361 114.34375 361 99.1064453125 295 c 0,51,52
 89.640625 254 89.640625 254 121.561523438 232 c 128,-1,53
 153.482421875 210 153.482421875 210 245.481445312 197 c 0,54,55
 322.171875 187 322.171875 187 367.5546875 167 c 1,42,43
EndSplineSet
EndChar

StartChar: dieresis
Encoding: 168 168 106
Width: 518
GlyphClass: 2
Flags: W
LayerCount: 2
Fore
SplineSet
258.297851562 677 m 128,-1,1
 278.297851562 677 278.297851562 677 287.412109375 664.5 c 128,-1,2
 296.526367188 652 296.526367188 652 291.909179688 632 c 128,-1,3
 287.291015625 612 287.291015625 612 272.520507812 600 c 128,-1,4
 257.750976562 588 257.750976562 588 237.750976562 588 c 128,-1,5
 217.750976562 588 217.750976562 588 208.020507812 600 c 128,-1,6
 198.291015625 612 198.291015625 612 202.909179688 632 c 128,-1,7
 207.526367188 652 207.526367188 652 222.912109375 664.5 c 128,-1,0
 238.297851562 677 238.297851562 677 258.297851562 677 c 128,-1,1
448.297851562 677 m 128,-1,9
 468.297851562 677 468.297851562 677 477.912109375 664.5 c 128,-1,10
 487.526367188 652 487.526367188 652 482.909179688 632 c 128,-1,11
 478.291015625 612 478.291015625 612 463.020507812 600 c 128,-1,12
 447.750976562 588 447.750976562 588 427.750976562 588 c 128,-1,13
 407.750976562 588 407.750976562 588 398.520507812 600 c 128,-1,14
 389.291015625 612 389.291015625 612 393.909179688 632 c 128,-1,15
 398.526367188 652 398.526367188 652 413.412109375 664.5 c 128,-1,8
 428.297851562 677 428.297851562 677 448.297851562 677 c 128,-1,9
EndSplineSet
EndChar

StartChar: copyright
Encoding: 169 169 107
Width: 811
GlyphClass: 2
Flags: W
LayerCount: 2
Fore
SplineSet
496.681640625 670 m 128,-1,1
 651.681640625 670 651.681640625 670 723.7109375 577 c 128,-1,2
 795.740234375 484 795.740234375 484 760.186523438 330 c 128,-1,3
 724.6328125 176 724.6328125 176 609.662109375 83 c 128,-1,4
 494.69140625 -10 494.69140625 -10 339.69140625 -10 c 128,-1,5
 184.69140625 -10 184.69140625 -10 112.662109375 83 c 128,-1,6
 40.6328125 176 40.6328125 176 76.1865234375 330 c 128,-1,7
 111.740234375 484 111.740234375 484 226.7109375 577 c 128,-1,0
 341.681640625 670 341.681640625 670 496.681640625 670 c 128,-1,1
485.831054688 623 m 0,8,9
 353.831054688 623 353.831054688 623 255.861328125 543 c 128,-1,10
 157.891601562 463 157.891601562 463 127.186523438 330 c 128,-1,11
 96.4814453125 197 96.4814453125 197 157.51171875 117 c 128,-1,12
 218.541992188 37 218.541992188 37 350.541992188 37 c 0,13,14
 481.541992188 37 481.541992188 37 579.51171875 117 c 128,-1,15
 677.481445312 197 677.481445312 197 708.186523438 330 c 128,-1,16
 738.891601562 463 738.891601562 463 677.861328125 543 c 128,-1,17
 616.831054688 623 616.831054688 623 485.831054688 623 c 0,8,9
468.435546875 513 m 0,18,19
 583.435546875 513 583.435546875 513 600.041015625 416 c 1,20,-1
 553.193359375 395 l 1,21,22
 543.5078125 470 543.5078125 470 457.5078125 470 c 0,23,24
 395.5078125 470 395.5078125 470 351.850585938 432.5 c 128,-1,25
 308.193359375 395 308.193359375 395 292.724609375 328 c 128,-1,26
 277.256835938 261 277.256835938 261 303.598632812 223.5 c 128,-1,27
 329.94140625 186 329.94140625 186 391.94140625 186 c 0,28,29
 483.94140625 186 483.94140625 186 529.411132812 266 c 1,30,-1
 565.716796875 250 l 1,31,32
 537.173828125 200 537.173828125 200 489.59375 171.5 c 128,-1,33
 442.013671875 143 442.013671875 143 383.013671875 143 c 0,34,35
 298.013671875 143 298.013671875 143 260.942382812 192.5 c 128,-1,36
 223.870117188 242 223.870117188 242 243.724609375 328 c 128,-1,37
 263.579101562 414 263.579101562 414 323.5078125 463.5 c 128,-1,38
 383.435546875 513 383.435546875 513 468.435546875 513 c 0,18,19
EndSplineSet
EndChar

StartChar: ordfeminine
Encoding: 170 170 108
Width: 371
GlyphClass: 2
Flags: W
LayerCount: 2
Fore
SplineSet
353.8046875 363 m 0,0,1
 371.8046875 363 371.8046875 363 379.959960938 368 c 1,2,-1
 368.340820312 335 l 1,3,4
 352.494140625 327 352.494140625 327 332.494140625 327 c 0,5,6
 278.494140625 327 278.494140625 327 283.9609375 381 c 1,7,8
 237.494140625 327 237.494140625 327 144.494140625 327 c 0,9,10
 94.494140625 327 94.494140625 327 69.9580078125 348.5 c 128,-1,11
 45.4208984375 370 45.4208984375 370 54.4248046875 409 c 0,12,13
 72.6640625 488 72.6640625 488 206.973632812 511 c 2,14,-1
 310.8984375 528 l 1,15,-1
 315.747070312 549 l 2,16,17
 324.057617188 585 324.057617188 585 306.674804688 605 c 128,-1,18
 289.29296875 625 289.29296875 625 248.29296875 625 c 0,19,20
 170.29296875 625 170.29296875 625 131.286132812 560 c 1,21,-1
 100.134765625 581 l 1,22,23
 121.138671875 620 121.138671875 620 162.833007812 642.5 c 128,-1,24
 204.52734375 665 204.52734375 665 259.52734375 665 c 0,25,26
 323.52734375 665 323.52734375 665 350.83203125 636 c 128,-1,27
 378.13671875 607 378.13671875 607 365.208007812 551 c 2,28,-1
 329.885742188 398 l 2,29,30
 321.8046875 363 321.8046875 363 353.8046875 363 c 0,0,1
165.498046875 366 m 0,31,32
 205.498046875 366 205.498046875 366 244.345703125 387 c 128,-1,33
 283.194335938 408 283.194335938 408 291.274414062 443 c 2,34,-1
 303.279296875 495 l 1,35,-1
 215.5859375 479 l 2,36,37
 163.27734375 469 163.27734375 469 137.9296875 454.5 c 128,-1,38
 112.58203125 440 112.58203125 440 106.579101562 414 c 0,39,40
 95.498046875 366 95.498046875 366 165.498046875 366 c 0,31,32
14.2509765625 209 m 1,41,-1
 23.2548828125 248 l 1,42,-1
 335.254882812 248 l 1,43,-1
 326.250976562 209 l 1,44,-1
 14.2509765625 209 l 1,41,-1
EndSplineSet
EndChar

StartChar: guillemotleft
Encoding: 171 171 109
Width: 452
GlyphClass: 2
Flags: W
LayerCount: 2
Fore
SplineSet
287.430664062 461 m 1,0,-1
 108.1796875 265 l 1,1,-1
 196.9296875 69 l 1,2,-1
 133.9296875 69 l 1,3,-1
 46.1796875 265 l 1,4,-1
 224.430664062 461 l 1,5,-1
 287.430664062 461 l 1,0,-1
443.430664062 461 m 1,6,-1
 264.1796875 265 l 1,7,-1
 352.9296875 69 l 1,8,-1
 288.9296875 69 l 1,9,-1
 202.1796875 265 l 1,10,-1
 379.430664062 461 l 1,11,-1
 443.430664062 461 l 1,6,-1
EndSplineSet
Substitution2: "'case' Case-Sensitive Forms lookup 29 subtable" guillemotleft.case
Substitution2: "'aalt' Access All Alternates lookup 0 subtable" guillemotleft.case
EndChar

StartChar: logicalnot
Encoding: 172 172 110
Width: 604
GlyphClass: 2
Flags: W
LayerCount: 2
Fore
SplineSet
80.1875 343 m 1,0,-1
 554.1875 343 l 1,1,-1
 508.9375 147 l 1,2,-1
 451.9375 147 l 1,3,-1
 484.952148438 290 l 1,4,-1
 67.9521484375 290 l 1,5,-1
 80.1875 343 l 1,0,-1
EndSplineSet
EndChar

StartChar: uni00AD
Encoding: 173 173 111
Width: 477
GlyphClass: 2
Flags: W
LayerCount: 2
Fore
SplineSet
397.875 294 m 1,0,-1
 384.25390625 235 l 1,1,-1
 72.25390625 235 l 1,2,-1
 85.875 294 l 1,3,-1
 397.875 294 l 1,0,-1
EndSplineSet
EndChar

StartChar: registered
Encoding: 174 174 112
Width: 811
GlyphClass: 2
Flags: W
LayerCount: 2
Fore
SplineSet
496.681640625 670 m 128,-1,1
 651.681640625 670 651.681640625 670 723.7109375 577 c 128,-1,2
 795.740234375 484 795.740234375 484 760.186523438 330 c 128,-1,3
 724.6328125 176 724.6328125 176 609.662109375 83 c 128,-1,4
 494.69140625 -10 494.69140625 -10 339.69140625 -10 c 128,-1,5
 184.69140625 -10 184.69140625 -10 112.662109375 83 c 128,-1,6
 40.6328125 176 40.6328125 176 76.1865234375 330 c 128,-1,7
 111.740234375 484 111.740234375 484 226.7109375 577 c 128,-1,0
 341.681640625 670 341.681640625 670 496.681640625 670 c 128,-1,1
350.541992188 37 m 0,8,9
 481.541992188 37 481.541992188 37 579.51171875 117 c 128,-1,10
 677.481445312 197 677.481445312 197 708.186523438 330 c 128,-1,11
 738.891601562 463 738.891601562 463 677.861328125 543 c 128,-1,12
 616.831054688 623 616.831054688 623 485.831054688 623 c 0,13,14
 353.831054688 623 353.831054688 623 255.861328125 543 c 128,-1,15
 157.891601562 463 157.891601562 463 127.186523438 330 c 128,-1,16
 96.4814453125 197 96.4814453125 197 157.51171875 117 c 128,-1,17
 218.541992188 37 218.541992188 37 350.541992188 37 c 0,8,9
593.578125 401 m 0,18,19
 583.419921875 357 583.419921875 357 551.956054688 329 c 128,-1,20
 520.491210938 301 520.491210938 301 473.64453125 293 c 1,21,-1
 541.013671875 143 l 1,22,-1
 486.013671875 143 l 1,23,-1
 423.720703125 289 l 1,24,-1
 330.720703125 289 l 1,25,-1
 297.013671875 143 l 1,26,-1
 248.013671875 143 l 1,27,-1
 333.435546875 513 l 1,28,-1
 486.435546875 513 l 2,29,30
 548.435546875 513 548.435546875 513 577.125 483.5 c 128,-1,31
 605.814453125 454 605.814453125 454 593.578125 401 c 0,18,19
373.662109375 475 m 1,32,-1
 339.494140625 327 l 1,33,-1
 443.494140625 327 l 2,34,35
 527.494140625 327 527.494140625 327 544.578125 401 c 128,-1,36
 561.662109375 475 561.662109375 475 477.662109375 475 c 2,37,-1
 373.662109375 475 l 1,32,-1
EndSplineSet
Substitution2: "'ordn' Ordinals lookup 22 subtable" registeredsuperior
Substitution2: "'sups' Superscript lookup 15 subtable" registeredsuperior
Substitution2: "'aalt' Access All Alternates lookup 0 subtable" registeredsuperior
EndChar

StartChar: macron
Encoding: 175 175 113
Width: 518
GlyphClass: 2
Flags: W
LayerCount: 2
Fore
SplineSet
507.372070312 647 m 1,0,-1
 496.290039062 599 l 1,1,-1
 170.290039062 599 l 1,2,-1
 181.372070312 647 l 1,3,-1
 507.372070312 647 l 1,0,-1
EndSplineSet
EndChar

StartChar: degree
Encoding: 176 176 114
Width: 428
GlyphClass: 2
Flags: W
LayerCount: 2
Fore
SplineSet
233.57421875 362 m 0,0,1
 163.57421875 362 163.57421875 362 130.001953125 405 c 128,-1,2
 96.4287109375 448 96.4287109375 448 112.127929688 516 c 128,-1,3
 127.827148438 584 127.827148438 584 181.25390625 627 c 128,-1,4
 234.681640625 670 234.681640625 670 304.681640625 670 c 0,5,6
 373.681640625 670 373.681640625 670 407.75390625 627 c 128,-1,7
 441.827148438 584 441.827148438 584 426.127929688 516 c 128,-1,8
 410.428710938 448 410.428710938 448 356.501953125 405 c 128,-1,9
 302.57421875 362 302.57421875 362 233.57421875 362 c 0,0,1
244.194335938 408 m 128,-1,11
 291.194335938 408 291.194335938 408 327.735351562 438.5 c 128,-1,12
 364.27734375 469 364.27734375 469 375.127929688 516 c 128,-1,13
 385.978515625 563 385.978515625 563 363.405273438 593 c 128,-1,14
 340.831054688 623 340.831054688 623 293.831054688 623 c 128,-1,15
 246.831054688 623 246.831054688 623 209.905273438 593 c 128,-1,16
 172.978515625 563 172.978515625 563 162.127929688 516 c 128,-1,17
 151.27734375 469 151.27734375 469 174.235351562 438.5 c 128,-1,10
 197.194335938 408 197.194335938 408 244.194335938 408 c 128,-1,11
EndSplineSet
EndChar

StartChar: plusminus
Encoding: 177 177 115
Width: 604
GlyphClass: 2
Flags: W
LayerCount: 2
Fore
SplineSet
360.118164062 412 m 1,0,-1
 570.118164062 412 l 1,1,-1
 557.881835938 359 l 1,2,-1
 347.881835938 359 l 1,3,-1
 296.62890625 137 l 1,4,-1
 243.62890625 137 l 1,5,-1
 294.881835938 359 l 1,6,-1
 83.8818359375 359 l 1,7,-1
 96.1181640625 412 l 1,8,-1
 307.118164062 412 l 1,9,-1
 358.370117188 634 l 1,10,-1
 411.370117188 634 l 1,11,-1
 360.118164062 412 l 1,0,-1
1 0 m 1,12,-1
 13.236328125 53 l 1,13,-1
 487.236328125 53 l 1,14,-1
 475 0 l 1,15,-1
 1 0 l 1,12,-1
EndSplineSet
EndChar

StartChar: uni00B2
Encoding: 178 178 116
Width: 352
GlyphClass: 2
Flags: W
LayerCount: 2
Fore
SplineSet
50.87890625 333 m 1,0,-1
 59.1904296875 369 l 1,1,2
 142.887695312 424 142.887695312 424 177.198242188 447 c 0,3,4
 254.203125 499 254.203125 499 290.014648438 535 c 128,-1,5
 325.826171875 571 325.826171875 571 334.598632812 609 c 0,6,7
 343.140625 646 343.140625 646 325.56640625 669.5 c 128,-1,8
 307.991210938 693 307.991210938 693 266.991210938 693 c 0,9,10
 223.991210938 693 223.991210938 693 191.874023438 666.5 c 128,-1,11
 159.755859375 640 159.755859375 640 146.905273438 593 c 1,12,-1
 105.368164062 608 l 1,13,14
 122.989257812 667 122.989257812 667 168.838867188 701 c 128,-1,15
 214.688476562 735 214.688476562 735 277.688476562 735 c 0,16,17
 342.688476562 735 342.688476562 735 371.607421875 700 c 128,-1,18
 400.52734375 665 400.52734375 665 388.060546875 611 c 0,19,20
 368.66796875 527 368.66796875 527 208.581054688 427 c 0,21,22
 154.26953125 391 154.26953125 391 126.344726562 374 c 1,23,-1
 126.114257812 373 l 1,24,25
 131.114257812 373 131.114257812 373 151.344726562 374 c 128,-1,26
 171.575195312 375 171.575195312 375 177.575195312 375 c 2,27,-1
 344.575195312 375 l 1,28,-1
 334.87890625 333 l 1,29,-1
 50.87890625 333 l 1,0,-1
EndSplineSet
EndChar

StartChar: uni00B3
Encoding: 179 179 117
Width: 342
GlyphClass: 2
Flags: W
LayerCount: 2
Fore
SplineSet
272.688476562 735 m 0,0,1
 333.688476562 735 333.688476562 735 361.377929688 705.5 c 128,-1,2
 389.067382812 676 389.067382812 676 377.985351562 628 c 0,3,4
 368.750976562 588 368.750976562 588 340.59375 563.5 c 128,-1,5
 312.4375 539 312.4375 539 279.052734375 533 c 1,6,-1
 278.822265625 532 l 1,7,8
 313.360351562 530 313.360351562 530 333.088867188 505 c 128,-1,9
 352.81640625 480 352.81640625 480 343.3515625 439 c 0,10,11
 331.807617188 389 331.807617188 389 285.150390625 358 c 128,-1,12
 238.494140625 327 238.494140625 327 176.494140625 327 c 0,13,14
 61.494140625 327 61.494140625 327 53.1953125 421 c 1,15,-1
 106.274414062 443 l 1,16,17
 103.190429688 369 103.190429688 369 186.190429688 369 c 0,18,19
 226.190429688 369 226.190429688 369 255.422851562 389.5 c 128,-1,20
 284.65625 410 284.65625 410 292.736328125 445 c 0,21,22
 308.435546875 513 308.435546875 513 221.435546875 513 c 2,23,-1
 197.435546875 513 l 1,24,-1
 205.977539062 550 l 1,25,-1
 227.977539062 550 l 2,26,27
 265.977539062 550 265.977539062 550 290.979492188 569.5 c 128,-1,28
 315.981445312 589 315.981445312 589 323.369140625 621 c 0,29,30
 331.21875 655 331.21875 655 315.10546875 674 c 128,-1,31
 298.991210938 693 298.991210938 693 260.991210938 693 c 0,32,33
 188.991210938 693 188.991210938 693 159.985351562 628 c 1,34,-1
 116.91015625 645 l 1,35,36
 138.836914062 688 138.836914062 688 180.262695312 711.5 c 128,-1,37
 221.688476562 735 221.688476562 735 272.688476562 735 c 0,0,1
EndSplineSet
EndChar

StartChar: acute
Encoding: 180 180 118
Width: 518
GlyphClass: 2
Flags: W
LayerCount: 2
Fore
SplineSet
426.53515625 743 m 1,0,-1
 488.53515625 743 l 1,1,-1
 356.595703125 583 l 1,2,-1
 309.595703125 583 l 1,3,-1
 426.53515625 743 l 1,0,-1
EndSplineSet
EndChar

StartChar: uni00B5
Encoding: 181 181 119
Width: 588
GlyphClass: 2
Flags: W
LayerCount: 2
Fore
SplineSet
501.434570312 500 m 1,0,-1
 558.434570312 500 l 1,1,-1
 443 0 l 1,2,-1
 395 0 l 1,3,-1
 413.163085938 96 l 1,4,5
 336.69140625 -10 336.69140625 -10 196.69140625 -10 c 0,6,7
 113.69140625 -10 113.69140625 -10 87.0048828125 52 c 1,8,-1
 26.517578125 -210 l 1,9,-1
 -30.482421875 -210 l 1,10,-1
 133.434570312 500 l 1,11,-1
 190.434570312 500 l 1,12,-1
 117.7109375 185 l 2,13,14
 84.234375 40 84.234375 40 218.234375 40 c 0,15,16
 291.234375 40 291.234375 40 349.315429688 81.5 c 128,-1,17
 407.396484375 123 407.396484375 123 429.633789062 189 c 1,18,-1
 501.434570312 500 l 1,0,-1
EndSplineSet
EndChar

StartChar: paragraph
Encoding: 182 182 120
Width: 606
GlyphClass: 2
Flags: W
LayerCount: 2
Fore
SplineSet
607.373046875 660 m 1,0,-1
 431.913085938 -100 l 1,1,-1
 380.913085938 -100 l 1,2,-1
 545.291015625 612 l 1,3,-1
 413.291015625 612 l 1,4,-1
 248.913085938 -100 l 1,5,-1
 195.913085938 -100 l 1,6,-1
 268.40625 214 l 1,7,8
 157.40625 214 157.40625 214 104.104492188 275.5 c 128,-1,9
 50.802734375 337 50.802734375 337 73.8896484375 437 c 128,-1,10
 96.9765625 537 96.9765625 537 182.174804688 598.5 c 128,-1,11
 267.373046875 660 267.373046875 660 383.373046875 660 c 2,12,-1
 607.373046875 660 l 1,0,-1
360.291015625 612 m 1,13,14
 271.291015625 612 271.291015625 612 208.825195312 564.5 c 128,-1,15
 146.358398438 517 146.358398438 517 127.889648438 437 c 0,16,17
 109.189453125 356 109.189453125 356 149.337890625 309 c 128,-1,18
 189.487304688 262 189.487304688 262 279.487304688 262 c 1,19,-1
 360.291015625 612 l 1,13,14
EndSplineSet
Substitution2: "'ornm' Ornaments lookup 40 subtable" uni2761
Substitution2: "'aalt' Access All Alternates lookup 0 subtable" uni2761
EndChar

StartChar: periodcentered
Encoding: 183 183 121
Width: 214
GlyphClass: 2
Flags: W
LayerCount: 2
Fore
SplineSet
136.732421875 406 m 128,-1,1
 158.732421875 406 158.732421875 406 169.116210938 392.5 c 128,-1,2
 179.499023438 379 179.499023438 379 174.419921875 357 c 0,3,4
 169.110351562 334 169.110351562 334 152.493164062 320.5 c 128,-1,5
 135.876953125 307 135.876953125 307 113.876953125 307 c 0,6,7
 90.876953125 307 90.876953125 307 80.4931640625 320.5 c 128,-1,8
 70.1103515625 334 70.1103515625 334 75.419921875 357 c 0,9,10
 80.4990234375 379 80.4990234375 379 97.6162109375 392.5 c 128,-1,0
 114.732421875 406 114.732421875 406 136.732421875 406 c 128,-1,1
EndSplineSet
Substitution2: "Single Substitution lookup 55 subtable" periodcentered.loclCAT.sc
Substitution2: "Single Substitution lookup 54 subtable" periodcentered.loclCAT.case
Substitution2: "Single Substitution lookup 53 subtable" periodcentered.loclCAT
Substitution2: "'case' Case-Sensitive Forms lookup 29 subtable" periodcentered.case
Substitution2: "'smcp' Lowercase to Small Capitals lookup 12 subtable" periodcentered.sc
Substitution2: "'c2sc' Capitals to Small Capitals lookup 11 subtable" periodcentered.sc
AlternateSubs2: "'aalt' Access All Alternates lookup 1 subtable" periodcentered.sc periodcentered.case
Position2: "Single Positioning lookup 6 subtable" dx=0 dy=0 dh=-30 dv=0
EndChar

StartChar: cedilla
Encoding: 184 184 122
Width: 518
GlyphClass: 2
Flags: W
LayerCount: 2
Fore
SplineSet
157.692382812 3 m 1,0,-1
 197.6171875 20 l 1,1,2
 251.538085938 -2 251.538085938 -2 273.073242188 -36.5 c 128,-1,3
 294.608398438 -71 294.608398438 -71 285.142578125 -112 c 128,-1,4
 275.676757812 -153 275.676757812 -153 240.09765625 -181.5 c 128,-1,5
 204.517578125 -210 204.517578125 -210 156.517578125 -210 c 0,6,7
 88.517578125 -210 88.517578125 -210 61.0595703125 -173 c 1,8,-1
 92.294921875 -133 l 1,9,10
 112.4453125 -167 112.4453125 -167 159.4453125 -167 c 0,11,12
 186.4453125 -167 186.4453125 -167 208.485351562 -149.5 c 128,-1,13
 230.525390625 -132 230.525390625 -132 236.758789062 -105 c 0,14,15
 244.146484375 -73 244.146484375 -73 227.572265625 -49.5 c 128,-1,16
 210.997070312 -26 210.997070312 -26 157.692382812 3 c 1,0,-1
EndSplineSet
EndChar

StartChar: uni00B9
Encoding: 185 185 123
Width: 225
GlyphClass: 2
Flags: W
LayerCount: 2
Fore
SplineSet
230.534179688 730 m 1,0,-1
 274.534179688 730 l 1,1,-1
 182.87890625 333 l 1,2,-1
 131.87890625 333 l 1,3,-1
 194.674804688 605 l 2,4,5
 202.293945312 638 202.293945312 638 213.60546875 674 c 1,6,7
 151.061523438 624 151.061523438 624 87.060546875 611 c 1,8,-1
 96.98828125 654 l 1,9,10
 127.603515625 661 127.603515625 661 168.682617188 683 c 128,-1,11
 209.76171875 705 209.76171875 705 230.534179688 730 c 1,0,-1
EndSplineSet
EndChar

StartChar: ordmasculine
Encoding: 186 186 124
Width: 358
GlyphClass: 2
Flags: W
LayerCount: 2
Fore
SplineSet
190.494140625 327 m 0,0,1
 39.494140625 327 39.494140625 327 78.5107421875 496 c 128,-1,2
 117.52734375 665 117.52734375 665 268.52734375 665 c 0,3,4
 418.52734375 665 418.52734375 665 379.510742188 496 c 128,-1,5
 340.494140625 327 340.494140625 327 190.494140625 327 c 0,0,1
199.728515625 367 m 128,-1,7
 299.728515625 367 299.728515625 367 329.510742188 496 c 128,-1,8
 359.29296875 625 359.29296875 625 259.29296875 625 c 128,-1,9
 159.29296875 625 159.29296875 625 129.510742188 496 c 128,-1,6
 99.728515625 367 99.728515625 367 199.728515625 367 c 128,-1,7
23.2509765625 209 m 1,10,-1
 32.2548828125 248 l 1,11,-1
 312.254882812 248 l 1,12,-1
 303.250976562 209 l 1,13,-1
 23.2509765625 209 l 1,10,-1
EndSplineSet
EndChar

StartChar: guillemotright
Encoding: 187 187 125
Width: 450
GlyphClass: 2
Flags: W
LayerCount: 2
Fore
SplineSet
91.4306640625 461 m 1,0,-1
 155.430664062 461 l 1,1,-1
 242.1796875 265 l 1,2,-1
 64.9296875 69 l 1,3,-1
 0.9296875 69 l 1,4,-1
 180.1796875 265 l 1,5,-1
 91.4306640625 461 l 1,0,-1
247.430664062 461 m 1,6,-1
 310.430664062 461 l 1,7,-1
 398.1796875 265 l 1,8,-1
 219.9296875 69 l 1,9,-1
 156.9296875 69 l 1,10,-1
 336.1796875 265 l 1,11,-1
 247.430664062 461 l 1,6,-1
EndSplineSet
Substitution2: "'case' Case-Sensitive Forms lookup 29 subtable" guillemotright.case
Substitution2: "'aalt' Access All Alternates lookup 0 subtable" guillemotright.case
EndChar

StartChar: onequarter
Encoding: 188 188 126
Width: 733
GlyphClass: 2
Flags: W
LayerCount: 2
Fore
SplineSet
197.598632812 609 m 1,0,1
 139.286132812 560 139.286132812 560 72.0537109375 546 c 1,2,-1
 81.9814453125 589 l 1,3,4
 112.59765625 596 112.59765625 596 153.676757812 618 c 128,-1,5
 194.755859375 640 194.755859375 640 215.52734375 665 c 1,6,-1
 259.52734375 665 l 1,7,-1
 167.873046875 268 l 1,8,-1
 116.873046875 268 l 1,9,-1
 179.668945312 540 l 2,10,11
 184.516601562 561 184.516601562 561 197.598632812 609 c 1,0,1
636.373046875 660 m 1,12,-1
 694.373046875 660 l 1,13,-1
 69 0 l 1,14,-1
 12 0 l 1,15,-1
 636.373046875 660 l 1,12,-1
606.321289062 140 m 1,16,-1
 681.321289062 140 l 1,17,-1
 672.779296875 103 l 1,18,-1
 597.779296875 103 l 1,19,-1
 573.076171875 -4 l 1,20,-1
 530.076171875 -4 l 1,21,-1
 554.779296875 103 l 1,22,-1
 355.779296875 103 l 1,23,-1
 362.244140625 131 l 1,24,-1
 608.731445312 393 l 1,25,-1
 664.731445312 393 l 1,26,-1
 606.321289062 140 l 1,16,-1
597.028320312 286 m 2,27,28
 606.956054688 329 606.956054688 329 613.803710938 350 c 1,29,-1
 610.803710938 350 l 1,30,31
 581.723632812 315 581.723632812 315 567.029296875 299 c 2,32,-1
 414.321289062 140 l 1,33,-1
 563.321289062 140 l 1,34,-1
 597.028320312 286 l 2,27,28
EndSplineSet
EndChar

StartChar: onehalf
Encoding: 189 189 127
Width: 808
GlyphClass: 2
Flags: W
LayerCount: 2
Fore
SplineSet
197.598632812 609 m 1,0,1
 139.286132812 560 139.286132812 560 72.0537109375 546 c 1,2,-1
 81.9814453125 589 l 1,3,4
 112.59765625 596 112.59765625 596 153.676757812 618 c 128,-1,5
 194.755859375 640 194.755859375 640 215.52734375 665 c 1,6,-1
 259.52734375 665 l 1,7,-1
 167.873046875 268 l 1,8,-1
 116.873046875 268 l 1,9,-1
 179.668945312 540 l 2,10,11
 184.516601562 561 184.516601562 561 197.598632812 609 c 1,0,1
636.373046875 660 m 1,12,-1
 694.373046875 660 l 1,13,-1
 69 0 l 1,14,-1
 12 0 l 1,15,-1
 636.373046875 660 l 1,12,-1
555.7734375 38 m 2,16,-1
 722.7734375 38 l 1,17,-1
 713.076171875 -4 l 1,18,-1
 429.076171875 -4 l 1,19,-1
 437.387695312 32 l 1,20,21
 521.0859375 87 521.0859375 87 555.395507812 110 c 0,22,23
 632.400390625 162 632.400390625 162 668.211914062 198 c 128,-1,24
 704.0234375 234 704.0234375 234 712.795898438 272 c 128,-1,25
 721.569335938 310 721.569335938 310 703.87890625 333 c 128,-1,26
 686.189453125 356 686.189453125 356 645.189453125 356 c 0,27,28
 602.189453125 356 602.189453125 356 570.071289062 329.5 c 128,-1,29
 537.953125 303 537.953125 303 525.102539062 256 c 1,30,-1
 483.565429688 271 l 1,31,32
 501.186523438 330 501.186523438 330 547.036132812 364 c 128,-1,33
 592.885742188 398 592.885742188 398 655.885742188 398 c 0,34,35
 720.885742188 398 720.885742188 398 749.8046875 363 c 128,-1,36
 778.724609375 328 778.724609375 328 766.2578125 274 c 0,37,38
 746.865234375 190 746.865234375 190 586.778320312 90 c 0,39,40
 532.466796875 54 532.466796875 54 504.541992188 37 c 1,41,-1
 504.311523438 36 l 1,42,43
 509.311523438 36 509.311523438 36 529.541992188 37 c 128,-1,44
 549.7734375 38 549.7734375 38 555.7734375 38 c 2,16,-1
EndSplineSet
EndChar

StartChar: threequarters
Encoding: 190 190 128
Width: 850
GlyphClass: 2
Flags: W
LayerCount: 2
Fore
SplineSet
257.681640625 670 m 0,0,1
 318.681640625 670 318.681640625 670 346.37109375 640.5 c 128,-1,2
 374.060546875 611 374.060546875 611 362.978515625 563 c 0,3,4
 353.744140625 523 353.744140625 523 325.587890625 498.5 c 128,-1,5
 297.431640625 474 297.431640625 474 264.045898438 468 c 1,6,-1
 263.815429688 467 l 1,7,8
 298.353515625 465 298.353515625 465 318.08203125 440 c 128,-1,9
 337.810546875 415 337.810546875 415 328.344726562 374 c 0,10,11
 316.801757812 324 316.801757812 324 270.14453125 293 c 128,-1,12
 223.487304688 262 223.487304688 262 161.487304688 262 c 0,13,14
 46.4873046875 262 46.4873046875 262 38.189453125 356 c 1,15,-1
 91.2685546875 378 l 1,16,17
 88.18359375 304 88.18359375 304 171.18359375 304 c 0,18,19
 211.18359375 304 211.18359375 304 240.416992188 324.5 c 128,-1,20
 269.649414062 345 269.649414062 345 277.729492188 380 c 0,21,22
 293.428710938 448 293.428710938 448 206.428710938 448 c 2,23,-1
 182.428710938 448 l 1,24,-1
 190.970703125 485 l 1,25,-1
 212.970703125 485 l 2,26,27
 250.970703125 485 250.970703125 485 275.97265625 504.5 c 128,-1,28
 300.974609375 524 300.974609375 524 308.362304688 556 c 0,29,30
 316.211914062 590 316.211914062 590 300.098632812 609 c 128,-1,31
 283.985351562 628 283.985351562 628 245.985351562 628 c 0,32,33
 173.985351562 628 173.985351562 628 144.978515625 563 c 1,34,-1
 101.903320312 580 l 1,35,36
 123.831054688 623 123.831054688 623 165.255859375 646.5 c 128,-1,37
 206.681640625 670 206.681640625 670 257.681640625 670 c 0,0,1
129 0 m 1,38,-1
 753.373046875 660 l 1,39,-1
 811.373046875 660 l 1,40,-1
 186 0 l 1,41,-1
 129 0 l 1,38,-1
799.321289062 140 m 1,42,-1
 790.779296875 103 l 1,43,-1
 715.779296875 103 l 1,44,-1
 691.076171875 -4 l 1,45,-1
 648.076171875 -4 l 1,46,-1
 672.779296875 103 l 1,47,-1
 473.779296875 103 l 1,48,-1
 480.244140625 131 l 1,49,-1
 726.731445312 393 l 1,50,-1
 782.731445312 393 l 1,51,-1
 724.321289062 140 l 1,52,-1
 799.321289062 140 l 1,42,-1
532.321289062 140 m 1,53,-1
 681.321289062 140 l 1,54,-1
 715.028320312 286 l 2,55,56
 724.956054688 329 724.956054688 329 731.803710938 350 c 1,57,-1
 728.803710938 350 l 1,58,59
 699.723632812 315 699.723632812 315 685.029296875 299 c 2,60,-1
 532.321289062 140 l 1,53,-1
EndSplineSet
EndChar

StartChar: questiondown
Encoding: 191 191 129
Width: 513
GlyphClass: 2
Flags: W
LayerCount: 2
Fore
SplineSet
296.962890625 407 m 0,0,1
 273.962890625 407 273.962890625 407 263.580078125 420.5 c 128,-1,2
 253.197265625 434 253.197265625 434 258.506835938 457 c 0,3,4
 263.5859375 479 263.5859375 479 280.702148438 492.5 c 128,-1,5
 297.819335938 506 297.819335938 506 319.819335938 506 c 128,-1,6
 341.819335938 506 341.819335938 506 352.202148438 492.5 c 128,-1,7
 362.5859375 479 362.5859375 479 357.506835938 457 c 128,-1,8
 352.427734375 435 352.427734375 435 335.6953125 421 c 128,-1,9
 318.962890625 407 318.962890625 407 296.962890625 407 c 0,0,1
149.291015625 -172 m 0,10,11
 56.291015625 -172 56.291015625 -172 8.91015625 -126 c 128,-1,12
 -38.4697265625 -80 -38.4697265625 -80 -20.4619140625 -2 c 0,13,14
 17.169921875 161 17.169921875 161 217.01953125 195 c 1,15,-1
 243.799804688 311 l 1,16,-1
 302.799804688 311 l 1,17,-1
 269.092773438 165 l 1,18,19
 158.783203125 142 158.783203125 142 107.471679688 106 c 128,-1,20
 56.1611328125 70 56.1611328125 70 40.923828125 4 c 0,21,22
 27.763671875 -53 27.763671875 -53 60.1455078125 -86 c 128,-1,23
 92.5263671875 -119 92.5263671875 -119 165.526367188 -119 c 0,24,25
 240.526367188 -119 240.526367188 -119 293.299804688 -81 c 128,-1,26
 346.072265625 -43 346.072265625 -43 370.002929688 26 c 1,27,-1
 414.538085938 -2 l 1,28,29
 381.068359375 -82 381.068359375 -82 312.1796875 -127 c 128,-1,30
 243.291015625 -172 243.291015625 -172 149.291015625 -172 c 0,10,11
EndSplineSet
Substitution2: "'case' Case-Sensitive Forms lookup 29 subtable" questiondown.case
Substitution2: "'smcp' Lowercase to Small Capitals lookup 12 subtable" questiondown.sc
Substitution2: "'c2sc' Capitals to Small Capitals lookup 11 subtable" questiondown.sc
AlternateSubs2: "'aalt' Access All Alternates lookup 1 subtable" questiondown.sc questiondown.case
EndChar

StartChar: Agrave
Encoding: 192 192 130
Width: 633
GlyphClass: 2
Flags: W
LayerCount: 2
Fore
SplineSet
445.53515625 743 m 1,0,-1
 398.53515625 743 l 1,1,-1
 349.703125 891 l 1,2,-1
 415.703125 891 l 1,3,-1
 445.53515625 743 l 1,0,-1
488 0 m 1,4,-1
 454.404296875 201 l 1,5,-1
 142.404296875 201 l 1,6,-1
 17 0 l 1,7,-1
 -43 0 l 1,8,-1
 371.373046875 660 l 1,9,-1
 439.373046875 660 l 1,10,-1
 548 0 l 1,11,-1
 488 0 l 1,4,-1
175.640625 254 m 1,12,-1
 445.640625 254 l 1,13,-1
 401.12890625 529 l 1,14,-1
 392.674804688 605 l 1,15,-1
 390.674804688 605 l 1,16,-1
 349.822265625 532 l 1,17,-1
 175.640625 254 l 1,12,-1
EndSplineSet
Substitution2: "Single Substitution lookup 56 subtable" Agrave.swsh
Substitution2: "'swsh' Swash lookup 32 subtable" Agrave.swsh
Substitution2: "'c2sc' Capitals to Small Capitals lookup 11 subtable" agrave.sc
AlternateSubs2: "'aalt' Access All Alternates lookup 1 subtable" agrave.sc Agrave.swsh
EndChar

StartChar: Aacute
Encoding: 193 193 131
Width: 633
GlyphClass: 2
Flags: W
LayerCount: 2
Fore
SplineSet
560.703125 891 m 1,0,-1
 443.53515625 743 l 1,1,-1
 396.53515625 743 l 1,2,-1
 494.703125 891 l 1,3,-1
 560.703125 891 l 1,0,-1
488 0 m 1,4,-1
 454.404296875 201 l 1,5,-1
 142.404296875 201 l 1,6,-1
 17 0 l 1,7,-1
 -43 0 l 1,8,-1
 371.373046875 660 l 1,9,-1
 439.373046875 660 l 1,10,-1
 548 0 l 1,11,-1
 488 0 l 1,4,-1
175.640625 254 m 1,12,-1
 445.640625 254 l 1,13,-1
 401.12890625 529 l 1,14,-1
 392.674804688 605 l 1,15,-1
 390.674804688 605 l 1,16,-1
 349.822265625 532 l 1,17,-1
 175.640625 254 l 1,12,-1
EndSplineSet
Substitution2: "Single Substitution lookup 56 subtable" Aacute.swsh
Substitution2: "'swsh' Swash lookup 32 subtable" Aacute.swsh
Substitution2: "'c2sc' Capitals to Small Capitals lookup 11 subtable" aacute.sc
AlternateSubs2: "'aalt' Access All Alternates lookup 1 subtable" aacute.sc Aacute.swsh
EndChar

StartChar: Acircumflex
Encoding: 194 194 132
Width: 633
GlyphClass: 2
Flags: W
LayerCount: 2
Fore
SplineSet
451.084960938 858 m 1,0,-1
 331.380859375 738 l 1,1,-1
 278.380859375 738 l 1,2,-1
 427.857421875 896 l 1,3,-1
 491.857421875 896 l 1,4,-1
 568.380859375 738 l 1,5,-1
 515.380859375 738 l 1,6,-1
 451.084960938 858 l 1,0,-1
488 0 m 1,7,-1
 454.404296875 201 l 1,8,-1
 142.404296875 201 l 1,9,-1
 17 0 l 1,10,-1
 -43 0 l 1,11,-1
 371.373046875 660 l 1,12,-1
 439.373046875 660 l 1,13,-1
 548 0 l 1,14,-1
 488 0 l 1,7,-1
175.640625 254 m 1,15,-1
 445.640625 254 l 1,16,-1
 401.12890625 529 l 1,17,-1
 392.674804688 605 l 1,18,-1
 390.674804688 605 l 1,19,-1
 349.822265625 532 l 1,20,-1
 175.640625 254 l 1,15,-1
EndSplineSet
Substitution2: "Single Substitution lookup 56 subtable" Acircumflex.swsh
Substitution2: "'swsh' Swash lookup 32 subtable" Acircumflex.swsh
Substitution2: "'c2sc' Capitals to Small Capitals lookup 11 subtable" acircumflex.sc
AlternateSubs2: "'aalt' Access All Alternates lookup 1 subtable" acircumflex.sc Acircumflex.swsh
EndChar

StartChar: Atilde
Encoding: 195 195 133
Width: 633
GlyphClass: 2
Flags: W
LayerCount: 2
Fore
SplineSet
370.619140625 817 m 0,0,1
 345.619140625 817 345.619140625 817 329.694335938 800 c 128,-1,2
 313.76953125 783 313.76953125 783 298.689453125 748 c 1,3,-1
 252.689453125 748 l 1,4,5
 291.469726562 864 291.469726562 864 382.469726562 864 c 0,6,7
 414.469726562 864 414.469726562 864 434.544921875 847 c 128,-1,8
 454.620117188 830 454.620117188 830 470.080078125 812.5 c 128,-1,9
 485.540039062 795 485.540039062 795 506.540039062 795 c 0,10,11
 531.540039062 795 531.540039062 795 548.580078125 812.5 c 128,-1,12
 565.620117188 830 565.620117188 830 579.701171875 865 c 1,13,-1
 624.701171875 865 l 1,14,15
 585.919921875 749 585.919921875 749 495.919921875 749 c 0,16,17
 463.919921875 749 463.919921875 749 443.344726562 766 c 128,-1,18
 422.76953125 783 422.76953125 783 407.194335938 800 c 128,-1,19
 391.619140625 817 391.619140625 817 370.619140625 817 c 0,0,1
488 0 m 1,20,-1
 454.404296875 201 l 1,21,-1
 142.404296875 201 l 1,22,-1
 17 0 l 1,23,-1
 -43 0 l 1,24,-1
 371.373046875 660 l 1,25,-1
 439.373046875 660 l 1,26,-1
 548 0 l 1,27,-1
 488 0 l 1,20,-1
175.640625 254 m 1,28,-1
 445.640625 254 l 1,29,-1
 401.12890625 529 l 1,30,-1
 392.674804688 605 l 1,31,-1
 390.674804688 605 l 1,32,-1
 349.822265625 532 l 1,33,-1
 175.640625 254 l 1,28,-1
EndSplineSet
Substitution2: "Single Substitution lookup 56 subtable" Atilde.swsh
Substitution2: "'swsh' Swash lookup 32 subtable" Atilde.swsh
Substitution2: "'c2sc' Capitals to Small Capitals lookup 11 subtable" atilde.sc
AlternateSubs2: "'aalt' Access All Alternates lookup 1 subtable" atilde.sc Atilde.swsh
EndChar

StartChar: Adieresis
Encoding: 196 196 134
Width: 633
GlyphClass: 2
Flags: W
LayerCount: 2
Fore
SplineSet
329.689453125 748 m 0,0,1
 309.689453125 748 309.689453125 748 299.959960938 760 c 128,-1,2
 290.23046875 772 290.23046875 772 294.84765625 792 c 128,-1,3
 299.46484375 812 299.46484375 812 314.850585938 824.5 c 128,-1,4
 330.236328125 837 330.236328125 837 350.236328125 837 c 128,-1,5
 370.236328125 837 370.236328125 837 379.350585938 824.5 c 128,-1,6
 388.46484375 812 388.46484375 812 383.84765625 792 c 128,-1,7
 379.23046875 772 379.23046875 772 363.959960938 760 c 128,-1,8
 348.689453125 748 348.689453125 748 329.689453125 748 c 0,0,1
519.689453125 748 m 0,9,10
 500.689453125 748 500.689453125 748 490.959960938 760 c 128,-1,11
 481.23046875 772 481.23046875 772 485.84765625 792 c 128,-1,12
 490.46484375 812 490.46484375 812 505.350585938 824.5 c 128,-1,13
 520.236328125 837 520.236328125 837 540.236328125 837 c 128,-1,14
 560.236328125 837 560.236328125 837 569.850585938 824.5 c 128,-1,15
 579.46484375 812 579.46484375 812 574.84765625 792 c 128,-1,16
 570.23046875 772 570.23046875 772 554.959960938 760 c 128,-1,17
 539.689453125 748 539.689453125 748 519.689453125 748 c 0,9,10
488 0 m 1,18,-1
 454.404296875 201 l 1,19,-1
 142.404296875 201 l 1,20,-1
 17 0 l 1,21,-1
 -43 0 l 1,22,-1
 371.373046875 660 l 1,23,-1
 439.373046875 660 l 1,24,-1
 548 0 l 1,25,-1
 488 0 l 1,18,-1
175.640625 254 m 1,26,-1
 445.640625 254 l 1,27,-1
 401.12890625 529 l 1,28,-1
 392.674804688 605 l 1,29,-1
 390.674804688 605 l 1,30,-1
 349.822265625 532 l 1,31,-1
 175.640625 254 l 1,26,-1
EndSplineSet
Substitution2: "Single Substitution lookup 56 subtable" Adieresis.swsh
Substitution2: "'titl' Titling lookup 41 subtable" Adieresis.titl
Substitution2: "'swsh' Swash lookup 32 subtable" Adieresis.swsh
Substitution2: "'c2sc' Capitals to Small Capitals lookup 11 subtable" adieresis.sc
AlternateSubs2: "'aalt' Access All Alternates lookup 1 subtable" adieresis.sc Adieresis.swsh Adieresis.titl
EndChar

StartChar: Aring
Encoding: 197 197 135
Width: 633
GlyphClass: 2
Flags: W
LayerCount: 2
Fore
SplineSet
488 0 m 1,0,-1
 454.404296875 201 l 1,1,-1
 142.404296875 201 l 1,2,-1
 17 0 l 1,3,-1
 -43 0 l 1,4,-1
 355.370117188 634 l 1,5,6
 298.680664062 657 298.680664062 657 315.072265625 728 c 0,7,8
 325.23046875 772 325.23046875 772 361.194335938 800 c 128,-1,9
 397.159179688 828 397.159179688 828 444.159179688 828 c 0,10,11
 492.159179688 828 492.159179688 828 514.694335938 800 c 128,-1,12
 537.23046875 772 537.23046875 772 527.072265625 728 c 0,13,14
 510.44921875 656 510.44921875 656 443.370117188 634 c 1,15,-1
 548 0 l 1,16,-1
 488 0 l 1,0,-1
355.072265625 728 m 0,17,18
 348.376953125 699 348.376953125 699 362.721679688 681 c 128,-1,19
 377.065429688 663 377.065429688 663 406.065429688 663 c 128,-1,20
 435.065429688 663 435.065429688 663 457.336914062 681.5 c 128,-1,21
 479.607421875 700 479.607421875 700 486.072265625 728 c 128,-1,22
 492.536132812 756 492.536132812 756 478.192382812 774 c 128,-1,23
 463.84765625 792 463.84765625 792 435.84765625 792 c 0,24,25
 406.84765625 792 406.84765625 792 384.192382812 774 c 128,-1,26
 361.536132812 756 361.536132812 756 355.072265625 728 c 0,17,18
175.640625 254 m 1,27,-1
 445.640625 254 l 1,28,-1
 401.12890625 529 l 1,29,-1
 392.674804688 605 l 1,30,-1
 390.674804688 605 l 1,31,-1
 349.822265625 532 l 1,32,-1
 175.640625 254 l 1,27,-1
EndSplineSet
Substitution2: "'c2sc' Capitals to Small Capitals lookup 11 subtable" aring.sc
Substitution2: "'aalt' Access All Alternates lookup 0 subtable" aring.sc
EndChar

StartChar: AE
Encoding: 198 198 136
Width: 929
GlyphClass: 2
Flags: W
LayerCount: 2
Fore
SplineSet
451.236328125 53 m 1,0,-1
 833.236328125 53 l 1,1,-1
 821 0 l 1,2,-1
 382 0 l 1,3,-1
 434.637695312 228 l 1,4,-1
 188.637695312 228 l 1,5,-1
 0 0 l 1,6,-1
 -63 0 l 1,7,-1
 487.373046875 660 l 1,8,-1
 958.373046875 660 l 1,9,-1
 946.13671875 607 l 1,10,-1
 579.13671875 607 l 1,11,-1
 522.34375 361 l 1,12,-1
 807.34375 361 l 1,13,-1
 795.107421875 308 l 1,14,-1
 510.107421875 308 l 1,15,-1
 451.236328125 53 l 1,0,-1
232.874023438 281 m 1,16,-1
 446.874023438 281 l 1,17,-1
 522.13671875 607 l 1,18,-1
 502.13671875 607 l 1,19,-1
 232.874023438 281 l 1,16,-1
EndSplineSet
Substitution2: "'c2sc' Capitals to Small Capitals lookup 11 subtable" ae.sc
Substitution2: "'aalt' Access All Alternates lookup 0 subtable" ae.sc
EndChar

StartChar: Ccedilla
Encoding: 199 199 137
Width: 673
GlyphClass: 2
Flags: W
LayerCount: 2
Fore
SplineSet
603.786132812 168 m 1,0,1
 561.470703125 93 561.470703125 93 492.465820312 47.5 c 128,-1,2
 423.461914062 2 423.461914062 2 340.153320312 -8 c 1,3,4
 392.45703125 -50 392.45703125 -50 378.142578125 -112 c 0,5,6
 368.676757812 -153 368.676757812 -153 333.09765625 -181.5 c 128,-1,7
 297.517578125 -210 297.517578125 -210 249.517578125 -210 c 0,8,9
 181.517578125 -210 181.517578125 -210 154.059570312 -173 c 1,10,-1
 185.294921875 -133 l 1,11,12
 205.4453125 -167 205.4453125 -167 252.4453125 -167 c 0,13,14
 279.4453125 -167 279.4453125 -167 301.485351562 -149.5 c 128,-1,15
 323.525390625 -132 323.525390625 -132 329.758789062 -105 c 0,16,17
 336.454101562 -76 336.454101562 -76 324.302734375 -55 c 128,-1,18
 312.150390625 -34 312.150390625 -34 271.921875 -9 c 1,19,20
 148.23046875 1 148.23046875 1 95.1240234375 91.5 c 128,-1,21
 42.017578125 182 42.017578125 182 76.1865234375 330 c 0,22,23
 112.202148438 486 112.202148438 486 215.44140625 578 c 128,-1,24
 318.681640625 670 318.681640625 670 454.681640625 670 c 0,25,26
 651.681640625 670 651.681640625 670 673.51171875 509 c 1,27,-1
 611.509765625 483 l 1,28,29
 595.4453125 617 595.4453125 617 446.4453125 617 c 0,30,31
 335.4453125 617 335.4453125 617 250.668945312 540 c 128,-1,32
 165.891601562 463 165.891601562 463 135.186523438 330 c 128,-1,33
 104.481445312 197 104.481445312 197 152.204101562 120 c 128,-1,34
 199.927734375 43 199.927734375 43 310.927734375 43 c 0,35,36
 387.927734375 43 387.927734375 43 451.084960938 80.5 c 128,-1,37
 514.2421875 118 514.2421875 118 552.633789062 189 c 1,38,-1
 603.786132812 168 l 1,0,1
EndSplineSet
Substitution2: "'c2sc' Capitals to Small Capitals lookup 11 subtable" ccedilla.sc
Substitution2: "'aalt' Access All Alternates lookup 0 subtable" ccedilla.sc
EndChar

StartChar: Egrave
Encoding: 200 200 138
Width: 618
GlyphClass: 2
Flags: W
AnchorPoint: "Anchor-0" 267 0 basechar 0
LayerCount: 2
Fore
SplineSet
476.53515625 743 m 1,0,-1
 429.53515625 743 l 1,1,-1
 380.703125 891 l 1,2,-1
 446.703125 891 l 1,3,-1
 476.53515625 743 l 1,0,-1
110.236328125 53 m 1,4,-1
 522.236328125 53 l 1,5,-1
 510 0 l 1,6,-1
 41 0 l 1,7,-1
 193.373046875 660 l 1,8,-1
 646.373046875 660 l 1,9,-1
 634.13671875 607 l 1,10,-1
 238.13671875 607 l 1,11,-1
 181.57421875 362 l 1,12,-1
 493.57421875 362 l 1,13,-1
 481.337890625 309 l 1,14,-1
 169.337890625 309 l 1,15,-1
 110.236328125 53 l 1,4,-1
EndSplineSet
Substitution2: "Single Substitution lookup 57 subtable" Egrave.swsh.001
Substitution2: "Single Substitution lookup 56 subtable" Egrave.swsh
AlternateSubs2: "'swsh' Swash lookup 33 subtable" Egrave.swsh Egrave.swsh.001
Substitution2: "'c2sc' Capitals to Small Capitals lookup 11 subtable" egrave.sc
AlternateSubs2: "'aalt' Access All Alternates lookup 1 subtable" egrave.sc Egrave.swsh Egrave.swsh.001
EndChar

StartChar: Eacute
Encoding: 201 201 139
Width: 618
GlyphClass: 2
Flags: W
AnchorPoint: "Anchor-0" 267 0 basechar 0
LayerCount: 2
Fore
SplineSet
571.703125 891 m 1,0,-1
 454.53515625 743 l 1,1,-1
 407.53515625 743 l 1,2,-1
 505.703125 891 l 1,3,-1
 571.703125 891 l 1,0,-1
110.236328125 53 m 1,4,-1
 522.236328125 53 l 1,5,-1
 510 0 l 1,6,-1
 41 0 l 1,7,-1
 193.373046875 660 l 1,8,-1
 646.373046875 660 l 1,9,-1
 634.13671875 607 l 1,10,-1
 238.13671875 607 l 1,11,-1
 181.57421875 362 l 1,12,-1
 493.57421875 362 l 1,13,-1
 481.337890625 309 l 1,14,-1
 169.337890625 309 l 1,15,-1
 110.236328125 53 l 1,4,-1
EndSplineSet
Substitution2: "Single Substitution lookup 57 subtable" Eacute.swsh.001
Substitution2: "Single Substitution lookup 56 subtable" Eacute.swsh
AlternateSubs2: "'swsh' Swash lookup 33 subtable" Eacute.swsh Eacute.swsh.001
Substitution2: "'c2sc' Capitals to Small Capitals lookup 11 subtable" eacute.sc
AlternateSubs2: "'aalt' Access All Alternates lookup 1 subtable" eacute.sc Eacute.swsh Eacute.swsh.001
EndChar

StartChar: Ecircumflex
Encoding: 202 202 140
Width: 618
GlyphClass: 2
Flags: W
AnchorPoint: "Anchor-0" 267 0 basechar 0
LayerCount: 2
Fore
SplineSet
465.084960938 858 m 1,0,-1
 345.380859375 738 l 1,1,-1
 292.380859375 738 l 1,2,-1
 441.857421875 896 l 1,3,-1
 505.857421875 896 l 1,4,-1
 582.380859375 738 l 1,5,-1
 529.380859375 738 l 1,6,-1
 465.084960938 858 l 1,0,-1
110.236328125 53 m 1,7,-1
 522.236328125 53 l 1,8,-1
 510 0 l 1,9,-1
 41 0 l 1,10,-1
 193.373046875 660 l 1,11,-1
 646.373046875 660 l 1,12,-1
 634.13671875 607 l 1,13,-1
 238.13671875 607 l 1,14,-1
 181.57421875 362 l 1,15,-1
 493.57421875 362 l 1,16,-1
 481.337890625 309 l 1,17,-1
 169.337890625 309 l 1,18,-1
 110.236328125 53 l 1,7,-1
EndSplineSet
Substitution2: "Single Substitution lookup 57 subtable" Ecircumflex.swsh.001
Substitution2: "Single Substitution lookup 56 subtable" Ecircumflex.swsh
AlternateSubs2: "'swsh' Swash lookup 33 subtable" Ecircumflex.swsh Ecircumflex.swsh.001
Substitution2: "'c2sc' Capitals to Small Capitals lookup 11 subtable" ecircumflex.sc
AlternateSubs2: "'aalt' Access All Alternates lookup 1 subtable" ecircumflex.sc Ecircumflex.swsh Ecircumflex.swsh.001
EndChar

StartChar: Edieresis
Encoding: 203 203 141
Width: 618
GlyphClass: 2
Flags: W
AnchorPoint: "Anchor-0" 267 0 basechar 0
LayerCount: 2
Fore
SplineSet
344.689453125 748 m 128,-1,1
 324.689453125 748 324.689453125 748 314.959960938 760 c 128,-1,2
 305.23046875 772 305.23046875 772 309.84765625 792 c 128,-1,3
 314.46484375 812 314.46484375 812 329.850585938 824.5 c 128,-1,4
 345.236328125 837 345.236328125 837 365.236328125 837 c 128,-1,5
 385.236328125 837 385.236328125 837 394.350585938 824.5 c 128,-1,6
 403.46484375 812 403.46484375 812 398.84765625 792 c 128,-1,7
 394.23046875 772 394.23046875 772 379.459960938 760 c 128,-1,0
 364.689453125 748 364.689453125 748 344.689453125 748 c 128,-1,1
534.689453125 748 m 128,-1,9
 514.689453125 748 514.689453125 748 505.459960938 760 c 128,-1,10
 496.23046875 772 496.23046875 772 500.84765625 792 c 128,-1,11
 505.46484375 812 505.46484375 812 520.350585938 824.5 c 128,-1,12
 535.236328125 837 535.236328125 837 555.236328125 837 c 128,-1,13
 575.236328125 837 575.236328125 837 584.850585938 824.5 c 128,-1,14
 594.46484375 812 594.46484375 812 589.84765625 792 c 128,-1,15
 585.23046875 772 585.23046875 772 569.959960938 760 c 128,-1,8
 554.689453125 748 554.689453125 748 534.689453125 748 c 128,-1,9
110.236328125 53 m 1,16,-1
 522.236328125 53 l 1,17,-1
 510 0 l 1,18,-1
 41 0 l 1,19,-1
 193.373046875 660 l 1,20,-1
 646.373046875 660 l 1,21,-1
 634.13671875 607 l 1,22,-1
 238.13671875 607 l 1,23,-1
 181.57421875 362 l 1,24,-1
 493.57421875 362 l 1,25,-1
 481.337890625 309 l 1,26,-1
 169.337890625 309 l 1,27,-1
 110.236328125 53 l 1,16,-1
EndSplineSet
Substitution2: "Single Substitution lookup 57 subtable" Edieresis.swsh.001
Substitution2: "Single Substitution lookup 56 subtable" Edieresis.swsh
AlternateSubs2: "'swsh' Swash lookup 33 subtable" Edieresis.swsh Edieresis.swsh.001
Substitution2: "'c2sc' Capitals to Small Capitals lookup 11 subtable" edieresis.sc
AlternateSubs2: "'aalt' Access All Alternates lookup 1 subtable" edieresis.sc Edieresis.swsh Edieresis.swsh.001
EndChar

StartChar: Igrave
Encoding: 204 204 142
Width: 267
GlyphClass: 2
Flags: W
LayerCount: 2
Fore
SplineSet
231.703125 891 m 1,0,-1
 261.53515625 743 l 1,1,-1
 214.53515625 743 l 1,2,-1
 165.703125 891 l 1,3,-1
 231.703125 891 l 1,0,-1
250.373046875 660 m 1,4,-1
 98 0 l 1,5,-1
 41 0 l 1,6,-1
 193.373046875 660 l 1,7,-1
 250.373046875 660 l 1,4,-1
EndSplineSet
Substitution2: "'c2sc' Capitals to Small Capitals lookup 11 subtable" igrave.sc
Substitution2: "'aalt' Access All Alternates lookup 0 subtable" igrave.sc
EndChar

StartChar: Iacute
Encoding: 205 205 143
Width: 267
GlyphClass: 2
Flags: W
LayerCount: 2
Fore
SplineSet
311.703125 891 m 1,0,-1
 377.703125 891 l 1,1,-1
 260.53515625 743 l 1,2,-1
 213.53515625 743 l 1,3,-1
 311.703125 891 l 1,0,-1
250.373046875 660 m 1,4,-1
 98 0 l 1,5,-1
 41 0 l 1,6,-1
 193.373046875 660 l 1,7,-1
 250.373046875 660 l 1,4,-1
EndSplineSet
Substitution2: "'c2sc' Capitals to Small Capitals lookup 11 subtable" iacute.sc
Substitution2: "'aalt' Access All Alternates lookup 0 subtable" iacute.sc
EndChar

StartChar: Icircumflex
Encoding: 206 206 144
Width: 267
GlyphClass: 2
Flags: W
LayerCount: 2
Fore
SplineSet
384.380859375 738 m 1,0,-1
 331.380859375 738 l 1,1,-1
 267.084960938 858 l 1,2,-1
 147.380859375 738 l 1,3,-1
 94.380859375 738 l 1,4,-1
 243.857421875 896 l 1,5,-1
 307.857421875 896 l 1,6,-1
 384.380859375 738 l 1,0,-1
250.373046875 660 m 1,7,-1
 98 0 l 1,8,-1
 41 0 l 1,9,-1
 193.373046875 660 l 1,10,-1
 250.373046875 660 l 1,7,-1
EndSplineSet
Substitution2: "'c2sc' Capitals to Small Capitals lookup 11 subtable" icircumflex.sc
Substitution2: "'aalt' Access All Alternates lookup 0 subtable" icircumflex.sc
EndChar

StartChar: Idieresis
Encoding: 207 207 145
Width: 267
GlyphClass: 2
Flags: W
LayerCount: 2
Fore
SplineSet
186.236328125 837 m 128,-1,1
 206.236328125 837 206.236328125 837 215.350585938 824.5 c 128,-1,2
 224.46484375 812 224.46484375 812 219.84765625 792 c 128,-1,3
 215.23046875 772 215.23046875 772 199.959960938 760 c 128,-1,4
 184.689453125 748 184.689453125 748 165.689453125 748 c 128,-1,5
 146.689453125 748 146.689453125 748 136.959960938 760 c 128,-1,6
 127.23046875 772 127.23046875 772 131.84765625 792 c 128,-1,7
 136.46484375 812 136.46484375 812 151.350585938 824.5 c 128,-1,0
 166.236328125 837 166.236328125 837 186.236328125 837 c 128,-1,1
339.236328125 837 m 128,-1,9
 359.236328125 837 359.236328125 837 368.350585938 824.5 c 128,-1,10
 377.46484375 812 377.46484375 812 372.84765625 792 c 128,-1,11
 368.23046875 772 368.23046875 772 353.459960938 760 c 128,-1,12
 338.689453125 748 338.689453125 748 318.689453125 748 c 128,-1,13
 298.689453125 748 298.689453125 748 288.959960938 760 c 128,-1,14
 279.23046875 772 279.23046875 772 283.84765625 792 c 128,-1,15
 288.46484375 812 288.46484375 812 303.850585938 824.5 c 128,-1,8
 319.236328125 837 319.236328125 837 339.236328125 837 c 128,-1,9
250.373046875 660 m 1,16,-1
 98 0 l 1,17,-1
 41 0 l 1,18,-1
 193.373046875 660 l 1,19,-1
 250.373046875 660 l 1,16,-1
EndSplineSet
Substitution2: "'c2sc' Capitals to Small Capitals lookup 11 subtable" idieresis.sc
Substitution2: "'aalt' Access All Alternates lookup 0 subtable" idieresis.sc
EndChar

StartChar: Eth
Encoding: 208 208 146
Width: 720
GlyphClass: 2
Flags: W
LayerCount: 2
Fore
SplineSet
415.373046875 660 m 2,0,1
 573.373046875 660 573.373046875 660 639.98046875 576 c 128,-1,2
 706.586914062 492 706.586914062 492 670.110351562 334 c 0,3,4
 632.940429688 173 632.940429688 173 526.969726562 86.5 c 128,-1,5
 421 0 421 0 263 0 c 2,6,-1
 54 0 l 1,7,-1
 126.03125 312 l 1,8,-1
 26.03125 312 l 1,9,-1
 35.9580078125 355 l 1,10,-1
 135.958007812 355 l 1,11,-1
 206.373046875 660 l 1,12,-1
 415.373046875 660 l 2,0,1
280.236328125 53 m 2,13,14
 407.236328125 53 407.236328125 53 493.08984375 126 c 128,-1,15
 578.942382812 199 578.942382812 199 610.110351562 334 c 0,16,17
 640.353515625 465 640.353515625 465 587.745117188 536 c 128,-1,18
 535.13671875 607 535.13671875 607 408.13671875 607 c 2,19,-1
 251.13671875 607 l 1,20,-1
 192.958007812 355 l 1,21,-1
 392.958007812 355 l 1,22,-1
 383.03125 312 l 1,23,-1
 183.03125 312 l 1,24,-1
 123.236328125 53 l 1,25,-1
 280.236328125 53 l 2,13,14
EndSplineSet
Substitution2: "'c2sc' Capitals to Small Capitals lookup 11 subtable" eth.sc
Substitution2: "'aalt' Access All Alternates lookup 0 subtable" eth.sc
EndChar

StartChar: Ntilde
Encoding: 209 209 147
Width: 720
GlyphClass: 2
Flags: W
AnchorPoint: "Anchor-0" 315 0 basechar 0
LayerCount: 2
Fore
SplineSet
672.701171875 865 m 1,0,1
 633.919921875 749 633.919921875 749 543.919921875 749 c 0,2,3
 511.919921875 749 511.919921875 749 491.344726562 766 c 128,-1,4
 470.76953125 783 470.76953125 783 455.194335938 800 c 128,-1,5
 439.619140625 817 439.619140625 817 418.619140625 817 c 0,6,7
 393.619140625 817 393.619140625 817 377.694335938 800 c 128,-1,8
 361.76953125 783 361.76953125 783 346.689453125 748 c 1,9,-1
 300.689453125 748 l 1,10,11
 339.469726562 864 339.469726562 864 430.469726562 864 c 0,12,13
 462.469726562 864 462.469726562 864 482.544921875 847 c 128,-1,14
 502.620117188 830 502.620117188 830 518.080078125 812.5 c 128,-1,15
 533.540039062 795 533.540039062 795 554.540039062 795 c 0,16,17
 579.540039062 795 579.540039062 795 596.580078125 812.5 c 128,-1,18
 613.620117188 830 613.620117188 830 627.701171875 865 c 1,19,-1
 672.701171875 865 l 1,0,1
703.373046875 660 m 1,20,-1
 551 0 l 1,21,-1
 480 0 l 1,22,-1
 262.665039062 501 l 1,23,-1
 231.059570312 598 l 1,24,-1
 230.059570312 598 l 1,25,-1
 212.51171875 509 l 1,26,-1
 95 0 l 1,27,-1
 41 0 l 1,28,-1
 193.373046875 660 l 1,29,-1
 264.373046875 660 l 1,30,-1
 481.169921875 161 l 1,31,-1
 513.313476562 62 l 1,32,-1
 530.861328125 151 l 1,33,-1
 648.373046875 660 l 1,34,-1
 703.373046875 660 l 1,20,-1
EndSplineSet
Substitution2: "Single Substitution lookup 57 subtable" Ntilde.swsh
Substitution2: "'swsh' Swash lookup 36 subtable" Ntilde.swsh
Substitution2: "'c2sc' Capitals to Small Capitals lookup 11 subtable" ntilde.sc
AlternateSubs2: "'aalt' Access All Alternates lookup 1 subtable" ntilde.sc Ntilde.swsh
EndChar

StartChar: Ograve
Encoding: 210 210 148
Width: 736
GlyphClass: 2
Flags: W
LayerCount: 2
Fore
SplineSet
466.703125 891 m 1,0,-1
 496.53515625 743 l 1,1,-1
 449.53515625 743 l 1,2,-1
 400.703125 891 l 1,3,-1
 466.703125 891 l 1,0,-1
458.681640625 670 m 128,-1,5
 598.681640625 670 598.681640625 670 659.557617188 578.5 c 128,-1,6
 720.432617188 487 720.432617188 487 684.186523438 330 c 128,-1,7
 647.940429688 173 647.940429688 173 544.815429688 81.5 c 128,-1,8
 441.69140625 -10 441.69140625 -10 301.69140625 -10 c 128,-1,9
 161.69140625 -10 161.69140625 -10 100.815429688 81.5 c 128,-1,10
 39.9404296875 173 39.9404296875 173 76.1865234375 330 c 128,-1,11
 112.432617188 487 112.432617188 487 215.557617188 578.5 c 128,-1,4
 318.681640625 670 318.681640625 670 458.681640625 670 c 128,-1,5
446.4453125 617 m 128,-1,13
 333.4453125 617 333.4453125 617 249.668945312 540 c 128,-1,14
 165.891601562 463 165.891601562 463 135.186523438 330 c 128,-1,15
 104.481445312 197 104.481445312 197 152.704101562 120 c 128,-1,16
 200.927734375 43 200.927734375 43 313.927734375 43 c 128,-1,17
 426.927734375 43 426.927734375 43 510.704101562 120 c 128,-1,18
 594.481445312 197 594.481445312 197 625.186523438 330 c 128,-1,19
 655.891601562 463 655.891601562 463 607.668945312 540 c 128,-1,12
 559.4453125 617 559.4453125 617 446.4453125 617 c 128,-1,13
EndSplineSet
Substitution2: "'c2sc' Capitals to Small Capitals lookup 11 subtable" ograve.sc
Substitution2: "'aalt' Access All Alternates lookup 0 subtable" ograve.sc
EndChar

StartChar: Oacute
Encoding: 211 211 149
Width: 736
GlyphClass: 2
Flags: W
LayerCount: 2
Fore
SplineSet
545.703125 891 m 1,0,-1
 611.703125 891 l 1,1,-1
 494.53515625 743 l 1,2,-1
 447.53515625 743 l 1,3,-1
 545.703125 891 l 1,0,-1
458.681640625 670 m 128,-1,5
 598.681640625 670 598.681640625 670 659.557617188 578.5 c 128,-1,6
 720.432617188 487 720.432617188 487 684.186523438 330 c 128,-1,7
 647.940429688 173 647.940429688 173 544.815429688 81.5 c 128,-1,8
 441.69140625 -10 441.69140625 -10 301.69140625 -10 c 128,-1,9
 161.69140625 -10 161.69140625 -10 100.815429688 81.5 c 128,-1,10
 39.9404296875 173 39.9404296875 173 76.1865234375 330 c 128,-1,11
 112.432617188 487 112.432617188 487 215.557617188 578.5 c 128,-1,4
 318.681640625 670 318.681640625 670 458.681640625 670 c 128,-1,5
446.4453125 617 m 128,-1,13
 333.4453125 617 333.4453125 617 249.668945312 540 c 128,-1,14
 165.891601562 463 165.891601562 463 135.186523438 330 c 128,-1,15
 104.481445312 197 104.481445312 197 152.704101562 120 c 128,-1,16
 200.927734375 43 200.927734375 43 313.927734375 43 c 128,-1,17
 426.927734375 43 426.927734375 43 510.704101562 120 c 128,-1,18
 594.481445312 197 594.481445312 197 625.186523438 330 c 128,-1,19
 655.891601562 463 655.891601562 463 607.668945312 540 c 128,-1,12
 559.4453125 617 559.4453125 617 446.4453125 617 c 128,-1,13
EndSplineSet
Substitution2: "'c2sc' Capitals to Small Capitals lookup 11 subtable" oacute.sc
Substitution2: "'aalt' Access All Alternates lookup 0 subtable" oacute.sc
EndChar

StartChar: Ocircumflex
Encoding: 212 212 150
Width: 736
GlyphClass: 2
Flags: W
LayerCount: 2
Fore
SplineSet
619.380859375 738 m 1,0,-1
 566.380859375 738 l 1,1,-1
 502.084960938 858 l 1,2,-1
 382.380859375 738 l 1,3,-1
 329.380859375 738 l 1,4,-1
 478.857421875 896 l 1,5,-1
 542.857421875 896 l 1,6,-1
 619.380859375 738 l 1,0,-1
458.681640625 670 m 128,-1,8
 598.681640625 670 598.681640625 670 659.557617188 578.5 c 128,-1,9
 720.432617188 487 720.432617188 487 684.186523438 330 c 128,-1,10
 647.940429688 173 647.940429688 173 544.815429688 81.5 c 128,-1,11
 441.69140625 -10 441.69140625 -10 301.69140625 -10 c 128,-1,12
 161.69140625 -10 161.69140625 -10 100.815429688 81.5 c 128,-1,13
 39.9404296875 173 39.9404296875 173 76.1865234375 330 c 128,-1,14
 112.432617188 487 112.432617188 487 215.557617188 578.5 c 128,-1,7
 318.681640625 670 318.681640625 670 458.681640625 670 c 128,-1,8
446.4453125 617 m 128,-1,16
 333.4453125 617 333.4453125 617 249.668945312 540 c 128,-1,17
 165.891601562 463 165.891601562 463 135.186523438 330 c 128,-1,18
 104.481445312 197 104.481445312 197 152.704101562 120 c 128,-1,19
 200.927734375 43 200.927734375 43 313.927734375 43 c 128,-1,20
 426.927734375 43 426.927734375 43 510.704101562 120 c 128,-1,21
 594.481445312 197 594.481445312 197 625.186523438 330 c 128,-1,22
 655.891601562 463 655.891601562 463 607.668945312 540 c 128,-1,15
 559.4453125 617 559.4453125 617 446.4453125 617 c 128,-1,16
EndSplineSet
Substitution2: "'c2sc' Capitals to Small Capitals lookup 11 subtable" ocircumflex.sc
Substitution2: "'aalt' Access All Alternates lookup 0 subtable" ocircumflex.sc
EndChar

StartChar: Otilde
Encoding: 213 213 151
Width: 736
GlyphClass: 2
Flags: W
LayerCount: 2
Fore
SplineSet
675.701171875 865 m 1,0,1
 636.919921875 749 636.919921875 749 546.919921875 749 c 0,2,3
 514.919921875 749 514.919921875 749 494.344726562 766 c 128,-1,4
 473.76953125 783 473.76953125 783 458.194335938 800 c 128,-1,5
 442.619140625 817 442.619140625 817 421.619140625 817 c 0,6,7
 396.619140625 817 396.619140625 817 380.694335938 800 c 128,-1,8
 364.76953125 783 364.76953125 783 349.689453125 748 c 1,9,-1
 303.689453125 748 l 1,10,11
 342.469726562 864 342.469726562 864 433.469726562 864 c 0,12,13
 465.469726562 864 465.469726562 864 485.544921875 847 c 128,-1,14
 505.620117188 830 505.620117188 830 521.080078125 812.5 c 128,-1,15
 536.540039062 795 536.540039062 795 557.540039062 795 c 0,16,17
 582.540039062 795 582.540039062 795 599.580078125 812.5 c 128,-1,18
 616.620117188 830 616.620117188 830 630.701171875 865 c 1,19,-1
 675.701171875 865 l 1,0,1
458.681640625 670 m 128,-1,21
 598.681640625 670 598.681640625 670 659.557617188 578.5 c 128,-1,22
 720.432617188 487 720.432617188 487 684.186523438 330 c 128,-1,23
 647.940429688 173 647.940429688 173 544.815429688 81.5 c 128,-1,24
 441.69140625 -10 441.69140625 -10 301.69140625 -10 c 128,-1,25
 161.69140625 -10 161.69140625 -10 100.815429688 81.5 c 128,-1,26
 39.9404296875 173 39.9404296875 173 76.1865234375 330 c 128,-1,27
 112.432617188 487 112.432617188 487 215.557617188 578.5 c 128,-1,20
 318.681640625 670 318.681640625 670 458.681640625 670 c 128,-1,21
446.4453125 617 m 128,-1,29
 333.4453125 617 333.4453125 617 249.668945312 540 c 128,-1,30
 165.891601562 463 165.891601562 463 135.186523438 330 c 128,-1,31
 104.481445312 197 104.481445312 197 152.704101562 120 c 128,-1,32
 200.927734375 43 200.927734375 43 313.927734375 43 c 128,-1,33
 426.927734375 43 426.927734375 43 510.704101562 120 c 128,-1,34
 594.481445312 197 594.481445312 197 625.186523438 330 c 128,-1,35
 655.891601562 463 655.891601562 463 607.668945312 540 c 128,-1,28
 559.4453125 617 559.4453125 617 446.4453125 617 c 128,-1,29
EndSplineSet
Substitution2: "'c2sc' Capitals to Small Capitals lookup 11 subtable" otilde.sc
Substitution2: "'aalt' Access All Alternates lookup 0 subtable" otilde.sc
EndChar

StartChar: Odieresis
Encoding: 214 214 152
Width: 736
GlyphClass: 2
Flags: W
LayerCount: 2
Fore
SplineSet
402.236328125 837 m 128,-1,1
 422.236328125 837 422.236328125 837 431.350585938 824.5 c 128,-1,2
 440.46484375 812 440.46484375 812 435.84765625 792 c 128,-1,3
 431.23046875 772 431.23046875 772 415.959960938 760 c 128,-1,4
 400.689453125 748 400.689453125 748 381.689453125 748 c 0,5,6
 361.689453125 748 361.689453125 748 351.959960938 760 c 128,-1,7
 342.23046875 772 342.23046875 772 346.84765625 792 c 128,-1,8
 351.46484375 812 351.46484375 812 366.850585938 824.5 c 128,-1,0
 382.236328125 837 382.236328125 837 402.236328125 837 c 128,-1,1
592.236328125 837 m 128,-1,10
 612.236328125 837 612.236328125 837 621.850585938 824.5 c 128,-1,11
 631.46484375 812 631.46484375 812 626.84765625 792 c 128,-1,12
 622.23046875 772 622.23046875 772 606.959960938 760 c 128,-1,13
 591.689453125 748 591.689453125 748 571.689453125 748 c 0,14,15
 552.689453125 748 552.689453125 748 542.959960938 760 c 128,-1,16
 533.23046875 772 533.23046875 772 537.84765625 792 c 128,-1,17
 542.46484375 812 542.46484375 812 557.350585938 824.5 c 128,-1,9
 572.236328125 837 572.236328125 837 592.236328125 837 c 128,-1,10
458.681640625 670 m 128,-1,19
 598.681640625 670 598.681640625 670 659.557617188 578.5 c 128,-1,20
 720.432617188 487 720.432617188 487 684.186523438 330 c 128,-1,21
 647.940429688 173 647.940429688 173 544.815429688 81.5 c 128,-1,22
 441.69140625 -10 441.69140625 -10 301.69140625 -10 c 128,-1,23
 161.69140625 -10 161.69140625 -10 100.815429688 81.5 c 128,-1,24
 39.9404296875 173 39.9404296875 173 76.1865234375 330 c 128,-1,25
 112.432617188 487 112.432617188 487 215.557617188 578.5 c 128,-1,18
 318.681640625 670 318.681640625 670 458.681640625 670 c 128,-1,19
446.4453125 617 m 128,-1,27
 333.4453125 617 333.4453125 617 249.668945312 540 c 128,-1,28
 165.891601562 463 165.891601562 463 135.186523438 330 c 128,-1,29
 104.481445312 197 104.481445312 197 152.704101562 120 c 128,-1,30
 200.927734375 43 200.927734375 43 313.927734375 43 c 128,-1,31
 426.927734375 43 426.927734375 43 510.704101562 120 c 128,-1,32
 594.481445312 197 594.481445312 197 625.186523438 330 c 128,-1,33
 655.891601562 463 655.891601562 463 607.668945312 540 c 128,-1,26
 559.4453125 617 559.4453125 617 446.4453125 617 c 128,-1,27
EndSplineSet
Substitution2: "'titl' Titling lookup 41 subtable" Odieresis.titl
Substitution2: "'c2sc' Capitals to Small Capitals lookup 11 subtable" odieresis.sc
AlternateSubs2: "'aalt' Access All Alternates lookup 1 subtable" odieresis.sc Odieresis.titl
EndChar

StartChar: multiply
Encoding: 215 215 153
Width: 604
GlyphClass: 2
Flags: W
LayerCount: 2
Fore
SplineSet
554.278320312 482 m 1,0,-1
 348.954101562 316 l 1,1,-1
 477.399414062 149 l 1,2,-1
 429.395507812 110 l 1,3,-1
 301.950195312 277 l 1,4,-1
 96.3955078125 110 l 1,5,-1
 66.3994140625 149 l 1,6,-1
 271.954101562 316 l 1,7,-1
 143.278320312 482 l 1,8,-1
 191.282226562 521 l 1,9,-1
 319.727539062 354 l 1,10,-1
 524.282226562 521 l 1,11,-1
 554.278320312 482 l 1,0,-1
EndSplineSet
EndChar

StartChar: Oslash
Encoding: 216 216 154
Width: 736
GlyphClass: 2
Flags: W
LayerCount: 2
Fore
SplineSet
652.750976562 588 m 1,0,1
 722.279296875 495 722.279296875 495 684.186523438 330 c 0,2,3
 647.940429688 173 647.940429688 173 544.815429688 81.5 c 128,-1,4
 441.69140625 -10 441.69140625 -10 301.69140625 -10 c 0,5,6
 199.69140625 -10 199.69140625 -10 138.234375 40 c 1,7,-1
 68.150390625 -34 l 1,8,-1
 15.150390625 -34 l 1,9,-1
 110.69921875 68 l 1,10,11
 36.9384765625 160 36.9384765625 160 76.1865234375 330 c 0,12,13
 112.432617188 487 112.432617188 487 215.557617188 578.5 c 128,-1,14
 318.681640625 670 318.681640625 670 458.681640625 670 c 0,15,16
 562.681640625 670 562.681640625 670 626.4453125 617 c 1,17,-1
 690.375976562 686 l 1,18,-1
 743.375976562 686 l 1,19,-1
 652.750976562 588 l 1,0,1
135.186523438 330 m 0,20,21
 103.557617188 193 103.557617188 193 155.549804688 115 c 1,22,-1
 582.594726562 570 l 1,23,24
 534.4453125 617 534.4453125 617 446.4453125 617 c 0,25,26
 333.4453125 617 333.4453125 617 249.668945312 540 c 128,-1,27
 165.891601562 463 165.891601562 463 135.186523438 330 c 0,20,21
313.927734375 43 m 0,28,29
 426.927734375 43 426.927734375 43 510.704101562 120 c 128,-1,30
 594.481445312 197 594.481445312 197 625.186523438 330 c 128,-1,31
 655.891601562 463 655.891601562 463 607.668945312 540 c 1,32,-1
 180.854492188 86 l 1,33,34
 230.927734375 43 230.927734375 43 313.927734375 43 c 0,28,29
EndSplineSet
Substitution2: "'c2sc' Capitals to Small Capitals lookup 11 subtable" oslash.sc
Substitution2: "'aalt' Access All Alternates lookup 0 subtable" oslash.sc
EndChar

StartChar: Ugrave
Encoding: 217 217 155
Width: 706
GlyphClass: 2
Flags: W
LayerCount: 2
Fore
SplineSet
458.703125 891 m 1,0,-1
 488.53515625 743 l 1,1,-1
 441.53515625 743 l 1,2,-1
 392.703125 891 l 1,3,-1
 458.703125 891 l 1,0,-1
696.373046875 660 m 1,4,-1
 599.870117188 242 l 2,5,6
 571.473632812 119 571.473632812 119 490.58203125 54.5 c 128,-1,7
 409.69140625 -10 409.69140625 -10 286.69140625 -10 c 128,-1,8
 163.69140625 -10 163.69140625 -10 112.08203125 54.5 c 128,-1,9
 60.4736328125 119 60.4736328125 119 88.8701171875 242 c 2,10,-1
 185.373046875 660 l 1,11,-1
 242.373046875 660 l 1,12,-1
 148.87109375 255 l 2,13,14
 99.927734375 43 99.927734375 43 298.927734375 43 c 0,15,16
 496.927734375 43 496.927734375 43 545.87109375 255 c 2,17,-1
 639.373046875 660 l 1,18,-1
 696.373046875 660 l 1,4,-1
EndSplineSet
Substitution2: "'c2sc' Capitals to Small Capitals lookup 11 subtable" ugrave.sc
Substitution2: "'aalt' Access All Alternates lookup 0 subtable" ugrave.sc
EndChar

StartChar: Uacute
Encoding: 218 218 156
Width: 706
GlyphClass: 2
Flags: W
LayerCount: 2
Fore
SplineSet
530.703125 891 m 1,0,-1
 596.703125 891 l 1,1,-1
 479.53515625 743 l 1,2,-1
 432.53515625 743 l 1,3,-1
 530.703125 891 l 1,0,-1
696.373046875 660 m 1,4,-1
 599.870117188 242 l 2,5,6
 571.473632812 119 571.473632812 119 490.58203125 54.5 c 128,-1,7
 409.69140625 -10 409.69140625 -10 286.69140625 -10 c 128,-1,8
 163.69140625 -10 163.69140625 -10 112.08203125 54.5 c 128,-1,9
 60.4736328125 119 60.4736328125 119 88.8701171875 242 c 2,10,-1
 185.373046875 660 l 1,11,-1
 242.373046875 660 l 1,12,-1
 148.87109375 255 l 2,13,14
 99.927734375 43 99.927734375 43 298.927734375 43 c 0,15,16
 496.927734375 43 496.927734375 43 545.87109375 255 c 2,17,-1
 639.373046875 660 l 1,18,-1
 696.373046875 660 l 1,4,-1
EndSplineSet
Substitution2: "'c2sc' Capitals to Small Capitals lookup 11 subtable" uacute.sc
Substitution2: "'aalt' Access All Alternates lookup 0 subtable" uacute.sc
EndChar

StartChar: Ucircumflex
Encoding: 219 219 157
Width: 706
GlyphClass: 2
Flags: W
LayerCount: 2
Fore
SplineSet
604.380859375 738 m 1,0,-1
 551.380859375 738 l 1,1,-1
 487.084960938 858 l 1,2,-1
 367.380859375 738 l 1,3,-1
 314.380859375 738 l 1,4,-1
 463.857421875 896 l 1,5,-1
 527.857421875 896 l 1,6,-1
 604.380859375 738 l 1,0,-1
696.373046875 660 m 1,7,-1
 599.870117188 242 l 2,8,9
 571.473632812 119 571.473632812 119 490.58203125 54.5 c 128,-1,10
 409.69140625 -10 409.69140625 -10 286.69140625 -10 c 128,-1,11
 163.69140625 -10 163.69140625 -10 112.08203125 54.5 c 128,-1,12
 60.4736328125 119 60.4736328125 119 88.8701171875 242 c 2,13,-1
 185.373046875 660 l 1,14,-1
 242.373046875 660 l 1,15,-1
 148.87109375 255 l 2,16,17
 99.927734375 43 99.927734375 43 298.927734375 43 c 0,18,19
 496.927734375 43 496.927734375 43 545.87109375 255 c 2,20,-1
 639.373046875 660 l 1,21,-1
 696.373046875 660 l 1,7,-1
EndSplineSet
Substitution2: "'c2sc' Capitals to Small Capitals lookup 11 subtable" ucircumflex.sc
Substitution2: "'aalt' Access All Alternates lookup 0 subtable" ucircumflex.sc
EndChar

StartChar: Udieresis
Encoding: 220 220 158
Width: 706
GlyphClass: 2
Flags: W
LayerCount: 2
Fore
SplineSet
387.236328125 837 m 128,-1,1
 407.236328125 837 407.236328125 837 416.350585938 824.5 c 128,-1,2
 425.46484375 812 425.46484375 812 420.84765625 792 c 128,-1,3
 416.23046875 772 416.23046875 772 401.459960938 760 c 128,-1,4
 386.689453125 748 386.689453125 748 366.689453125 748 c 128,-1,5
 346.689453125 748 346.689453125 748 336.959960938 760 c 128,-1,6
 327.23046875 772 327.23046875 772 331.84765625 792 c 128,-1,7
 336.46484375 812 336.46484375 812 351.850585938 824.5 c 128,-1,0
 367.236328125 837 367.236328125 837 387.236328125 837 c 128,-1,1
577.236328125 837 m 128,-1,9
 597.236328125 837 597.236328125 837 606.850585938 824.5 c 128,-1,10
 616.46484375 812 616.46484375 812 611.84765625 792 c 128,-1,11
 607.23046875 772 607.23046875 772 591.959960938 760 c 128,-1,12
 576.689453125 748 576.689453125 748 556.689453125 748 c 128,-1,13
 536.689453125 748 536.689453125 748 527.459960938 760 c 128,-1,14
 518.23046875 772 518.23046875 772 522.84765625 792 c 128,-1,15
 527.46484375 812 527.46484375 812 542.350585938 824.5 c 128,-1,8
 557.236328125 837 557.236328125 837 577.236328125 837 c 128,-1,9
696.373046875 660 m 1,16,-1
 599.870117188 242 l 2,17,18
 571.473632812 119 571.473632812 119 490.58203125 54.5 c 128,-1,19
 409.69140625 -10 409.69140625 -10 286.69140625 -10 c 128,-1,20
 163.69140625 -10 163.69140625 -10 112.08203125 54.5 c 128,-1,21
 60.4736328125 119 60.4736328125 119 88.8701171875 242 c 2,22,-1
 185.373046875 660 l 1,23,-1
 242.373046875 660 l 1,24,-1
 148.87109375 255 l 2,25,26
 99.927734375 43 99.927734375 43 298.927734375 43 c 0,27,28
 496.927734375 43 496.927734375 43 545.87109375 255 c 2,29,-1
 639.373046875 660 l 1,30,-1
 696.373046875 660 l 1,16,-1
EndSplineSet
Substitution2: "'titl' Titling lookup 41 subtable" Udieresis.titl
Substitution2: "'c2sc' Capitals to Small Capitals lookup 11 subtable" udieresis.sc
AlternateSubs2: "'aalt' Access All Alternates lookup 1 subtable" udieresis.sc Udieresis.titl
EndChar

StartChar: Yacute
Encoding: 221 221 159
Width: 550
GlyphClass: 2
Flags: W
LayerCount: 2
Fore
SplineSet
453.703125 891 m 1,0,-1
 519.703125 891 l 1,1,-1
 402.53515625 743 l 1,2,-1
 355.53515625 743 l 1,3,-1
 453.703125 891 l 1,0,-1
626.373046875 660 m 1,4,-1
 299.333007812 257 l 1,5,-1
 240 0 l 1,6,-1
 183 0 l 1,7,-1
 242.333007812 257 l 1,8,-1
 100.373046875 660 l 1,9,-1
 168.373046875 660 l 1,10,-1
 283.954101562 316 l 1,11,-1
 559.373046875 660 l 1,12,-1
 626.373046875 660 l 1,4,-1
EndSplineSet
Substitution2: "'c2sc' Capitals to Small Capitals lookup 11 subtable" yacute.sc
Substitution2: "'aalt' Access All Alternates lookup 0 subtable" yacute.sc
EndChar

StartChar: Thorn
Encoding: 222 222 160
Width: 605
GlyphClass: 2
Flags: W
LayerCount: 2
Fore
SplineSet
374.745117188 536 m 2,0,1
 494.745117188 536 494.745117188 536 543.586914062 485.5 c 128,-1,2
 592.427734375 435 592.427734375 435 570.033203125 338 c 128,-1,3
 547.639648438 241 547.639648438 241 475.48046875 190.5 c 128,-1,4
 403.321289062 140 403.321289062 140 283.321289062 140 c 2,5,-1
 130.321289062 140 l 1,6,-1
 98 0 l 1,7,-1
 41 0 l 1,8,-1
 193.373046875 660 l 1,9,-1
 250.373046875 660 l 1,10,-1
 221.745117188 536 l 1,11,-1
 374.745117188 536 l 2,0,1
304.557617188 193 m 2,12,13
 477.557617188 193 477.557617188 193 511.033203125 338 c 128,-1,14
 544.509765625 483 544.509765625 483 371.509765625 483 c 2,15,-1
 209.509765625 483 l 1,16,-1
 142.557617188 193 l 1,17,-1
 304.557617188 193 l 2,12,13
EndSplineSet
Substitution2: "'c2sc' Capitals to Small Capitals lookup 11 subtable" thorn.sc
Substitution2: "'aalt' Access All Alternates lookup 0 subtable" thorn.sc
EndChar

StartChar: germandbls
Encoding: 223 223 161
Width: 597
GlyphClass: 2
Flags: W
LayerCount: 2
Fore
SplineSet
380.115234375 386 m 1,0,1
 471.883789062 385 471.883789062 385 505.956054688 329 c 128,-1,2
 540.02734375 273 540.02734375 273 521.327148438 192 c 0,3,4
 501.471679688 106 501.471679688 106 432.58203125 48 c 128,-1,5
 363.69140625 -10 363.69140625 -10 265.69140625 -10 c 0,6,7
 195.69140625 -10 195.69140625 -10 169.233398438 27 c 1,8,-1
 197.622070312 72 l 1,9,10
 224.465820312 41 224.465820312 41 280.465820312 41 c 0,11,12
 350.465820312 41 350.465820312 41 400.892578125 84 c 128,-1,13
 451.3203125 127 451.3203125 127 467.481445312 197 c 0,14,15
 485.48828125 275 485.48828125 275 446.723632812 315 c 128,-1,16
 407.958007812 355 407.958007812 355 320.958007812 355 c 2,17,-1
 279.958007812 355 l 1,18,-1
 292.194335938 408 l 1,19,-1
 333.194335938 408 l 2,20,21
 402.194335938 408 402.194335938 408 452.698242188 447 c 128,-1,22
 503.202148438 486 503.202148438 486 518.208007812 551 c 0,23,24
 532.984375 615 532.984375 615 502.717773438 648.5 c 128,-1,25
 472.452148438 682 472.452148438 682 402.452148438 682 c 0,26,27
 316.452148438 682 316.452148438 682 267.139648438 633 c 128,-1,28
 217.827148438 584 217.827148438 584 194.970703125 485 c 2,29,-1
 83 0 l 1,30,-1
 26 0 l 1,31,-1
 142.357421875 504 l 2,32,33
 195.688476562 735 195.688476562 735 419.688476562 735 c 0,34,35
 517.688476562 735 517.688476562 735 556.452148438 682 c 128,-1,36
 595.215820312 629 595.215820312 629 577.669921875 553 c 0,37,38
 562.432617188 487 562.432617188 487 508.620117188 438 c 128,-1,39
 454.807617188 389 454.807617188 389 380.577148438 388 c 1,40,-1
 380.115234375 386 l 1,0,1
EndSplineSet
Substitution2: "Single Substitution lookup 57 subtable" germandbls.calt
Substitution2: "'smcp' Lowercase to Small Capitals lookup 12 subtable" germandbls.sc
AlternateSubs2: "'aalt' Access All Alternates lookup 1 subtable" germandbls.sc germandbls.calt
EndChar

StartChar: agrave
Encoding: 224 224 162
Width: 548
GlyphClass: 2
Flags: W
LayerCount: 2
Fore
SplineSet
365.595703125 583 m 1,0,-1
 318.595703125 583 l 1,1,-1
 260.53515625 743 l 1,2,-1
 322.53515625 743 l 1,3,-1
 365.595703125 583 l 1,0,-1
439.00390625 39 m 0,4,5
 461.00390625 39 461.00390625 39 479.388671875 45 c 1,6,-1
 466 0 l 1,7,8
 443.69140625 -10 443.69140625 -10 411.69140625 -10 c 0,9,10
 335.69140625 -10 335.69140625 -10 346.622070312 72 c 1,11,12
 314.849609375 34 314.849609375 34 260.770507812 12 c 128,-1,13
 206.69140625 -10 206.69140625 -10 151.69140625 -10 c 0,14,15
 77.69140625 -10 77.69140625 -10 39.92578125 23.5 c 128,-1,16
 2.1591796875 57 2.1591796875 57 16.2421875 118 c 0,17,18
 43.7158203125 237 43.7158203125 237 242.333984375 270 c 2,19,-1
 397.336914062 296 l 1,20,-1
 406.571289062 336 l 2,21,22
 419.961914062 394 419.961914062 394 393.081054688 427 c 128,-1,23
 366.19921875 460 366.19921875 460 303.19921875 460 c 0,24,25
 188.19921875 460 188.19921875 460 123.419921875 357 c 1,26,-1
 87.5771484375 388 l 1,27,28
 121.966796875 446 121.966796875 446 181.85546875 478 c 128,-1,29
 241.743164062 510 241.743164062 510 314.743164062 510 c 0,30,31
 401.743164062 510 401.743164062 510 442.930664062 467.5 c 128,-1,32
 484.119140625 425 484.119140625 425 465.1875 343 c 2,33,-1
 406.31640625 88 l 2,34,35
 395.00390625 39 395.00390625 39 439.00390625 39 c 0,4,5
167.234375 40 m 0,36,37
 233.234375 40 233.234375 40 293.353515625 73 c 128,-1,38
 353.471679688 106 353.471679688 106 366.400390625 162 c 2,39,-1
 386.486328125 249 l 1,40,-1
 249.9453125 225 l 2,41,42
 93.7119140625 198 93.7119140625 198 75.2421875 118 c 0,43,44
 66.7001953125 81 66.7001953125 81 90.9677734375 60.5 c 128,-1,45
 115.234375 40 115.234375 40 167.234375 40 c 0,36,37
EndSplineSet
Substitution2: "'smcp' Lowercase to Small Capitals lookup 12 subtable" agrave.sc
Substitution2: "'aalt' Access All Alternates lookup 0 subtable" agrave.sc
EndChar

StartChar: aacute
Encoding: 225 225 163
Width: 548
GlyphClass: 2
Flags: W
LayerCount: 2
Fore
SplineSet
479.53515625 743 m 1,0,-1
 347.595703125 583 l 1,1,-1
 300.595703125 583 l 1,2,-1
 417.53515625 743 l 1,3,-1
 479.53515625 743 l 1,0,-1
439.00390625 39 m 0,4,5
 461.00390625 39 461.00390625 39 479.388671875 45 c 1,6,-1
 466 0 l 1,7,8
 443.69140625 -10 443.69140625 -10 411.69140625 -10 c 0,9,10
 335.69140625 -10 335.69140625 -10 346.622070312 72 c 1,11,12
 314.849609375 34 314.849609375 34 260.770507812 12 c 128,-1,13
 206.69140625 -10 206.69140625 -10 151.69140625 -10 c 0,14,15
 77.69140625 -10 77.69140625 -10 39.92578125 23.5 c 128,-1,16
 2.1591796875 57 2.1591796875 57 16.2421875 118 c 0,17,18
 43.7158203125 237 43.7158203125 237 242.333984375 270 c 2,19,-1
 397.336914062 296 l 1,20,-1
 406.571289062 336 l 2,21,22
 419.961914062 394 419.961914062 394 393.081054688 427 c 128,-1,23
 366.19921875 460 366.19921875 460 303.19921875 460 c 0,24,25
 188.19921875 460 188.19921875 460 123.419921875 357 c 1,26,-1
 87.5771484375 388 l 1,27,28
 121.966796875 446 121.966796875 446 181.85546875 478 c 128,-1,29
 241.743164062 510 241.743164062 510 314.743164062 510 c 0,30,31
 401.743164062 510 401.743164062 510 442.930664062 467.5 c 128,-1,32
 484.119140625 425 484.119140625 425 465.1875 343 c 2,33,-1
 406.31640625 88 l 2,34,35
 395.00390625 39 395.00390625 39 439.00390625 39 c 0,4,5
167.234375 40 m 0,36,37
 233.234375 40 233.234375 40 293.353515625 73 c 128,-1,38
 353.471679688 106 353.471679688 106 366.400390625 162 c 2,39,-1
 386.486328125 249 l 1,40,-1
 249.9453125 225 l 2,41,42
 93.7119140625 198 93.7119140625 198 75.2421875 118 c 0,43,44
 66.7001953125 81 66.7001953125 81 90.9677734375 60.5 c 128,-1,45
 115.234375 40 115.234375 40 167.234375 40 c 0,36,37
EndSplineSet
Substitution2: "'smcp' Lowercase to Small Capitals lookup 12 subtable" aacute.sc
Substitution2: "'aalt' Access All Alternates lookup 0 subtable" aacute.sc
EndChar

